{"glyphs":{"0":{"ha":947,"x_min":90,"x_max":857,"o":"m 469 -18 q 334 13 401 -18 q 211 105 267 43 q 123 260 156 167 q 90 476 90 353 q 124 699 90 604 q 213 857 157 793 q 336 952 268 921 q 474 983 404 983 q 611 951 543 983 q 735 857 679 919 q 824 701 790 794 q 857 482 857 607 q 824 263 857 357 q 734 107 790 169 q 609 13 678 44 q 469 -18 540 -18 m 467 97 q 667 204 592 97 q 742 508 742 311 q 672 802 742 701 q 472 903 601 903 q 284 801 349 903 q 219 506 219 699 q 288 197 219 296 q 467 97 357 97 z "},"1":{"ha":742,"x_min":63,"x_max":679,"o":"m 357 17 q 357 60 357 15 q 357 179 357 104 q 356 347 357 254 q 351 535 354 439 q 346 719 349 632 q 338 868 343 806 l 358 961 l 482 972 q 483 730 483 843 q 479 509 482 617 q 471 291 476 401 q 457 57 465 181 l 357 17 m 658 -54 q 447 -8 554 -19 q 247 -1 340 3 q 88 -17 154 -4 l 74 56 q 224 89 143 76 q 388 104 304 101 q 547 97 471 107 q 679 64 622 88 l 658 -54 m 82 675 l 63 781 l 358 961 l 428 904 l 82 675 z "},"2":{"ha":882,"x_min":63,"x_max":819,"o":"m 161 29 l 63 42 q 267 221 165 128 q 451 406 368 314 q 585 583 535 499 q 636 736 636 668 q 606 828 636 796 q 529 875 575 861 q 438 889 483 889 q 317 865 375 889 q 174 789 258 840 l 135 926 q 299 968 217 953 q 450 983 382 983 q 576 971 518 983 q 679 930 635 958 q 749 852 724 901 q 774 729 774 803 q 749 622 774 676 q 676 505 725 567 q 554 372 628 443 q 383 215 481 300 q 161 29 285 131 m 792 -44 q 553 -10 681 -22 q 303 0 426 1 q 79 -17 179 -1 l 63 42 q 239 90 139 75 q 446 106 339 104 q 651 99 553 107 q 819 82 749 92 l 792 -44 z "},"3":{"ha":919,"x_min":63,"x_max":829,"o":"m 235 382 l 210 493 q 441 563 347 526 q 583 647 535 599 q 632 764 632 696 q 615 819 632 794 q 560 858 597 843 q 461 872 522 872 q 364 864 417 872 q 251 836 311 856 q 124 783 192 817 l 110 926 q 269 968 179 951 q 447 985 358 985 q 603 953 539 985 q 700 867 667 922 q 733 742 733 813 q 674 595 733 663 q 502 474 614 528 q 235 382 390 421 m 354 -17 q 215 -8 296 -17 q 63 19 135 1 l 72 150 q 281 94 183 111 q 447 76 378 76 q 604 103 542 76 q 697 169 667 129 q 728 251 728 210 q 697 328 728 292 q 606 389 667 365 q 453 413 544 413 q 338 404 393 413 q 250 386 283 396 l 364 490 q 462 510 417 504 q 546 515 507 515 q 704 481 642 515 q 798 392 767 447 q 829 272 829 336 q 778 131 829 197 q 621 24 726 65 q 354 -17 515 -17 z "},"4":{"ha":942,"x_min":63,"x_max":810,"o":"m 139 336 l 63 356 q 215 465 144 400 q 345 604 286 529 q 448 753 404 679 q 519 890 492 826 q 554 997 546 954 l 669 1008 q 631 879 664 953 q 544 726 599 806 q 424 569 490 646 q 284 432 357 493 q 139 336 211 371 m 740 272 q 505 293 624 288 q 277 297 386 299 q 79 288 168 296 l 63 356 q 328 397 206 385 q 565 410 451 408 q 792 407 678 411 l 740 272 m 690 -8 q 695 158 693 82 q 697 303 697 235 q 694 442 697 372 q 683 588 690 511 q 663 758 676 665 l 796 792 q 806 591 803 683 q 809 409 810 499 q 804 224 808 319 q 793 14 800 129 l 690 -8 z "},"5":{"ha":843,"x_min":63,"x_max":753,"o":"m 301 -24 q 232 -19 272 -24 q 148 -7 192 -15 q 63 11 104 1 l 71 114 q 208 94 138 103 q 322 85 279 85 q 431 94 375 85 q 536 124 488 103 q 615 184 585 146 q 644 281 644 222 q 614 385 644 343 q 532 451 583 426 q 418 486 481 476 q 290 493 356 496 q 164 478 224 490 l 213 556 q 364 581 288 575 q 510 573 440 586 q 634 526 579 560 q 721 434 689 492 q 753 292 753 376 q 715 141 753 201 q 612 44 676 81 q 467 -8 547 8 q 301 -24 386 -24 m 118 468 q 94 592 104 525 q 79 727 85 660 q 74 851 74 794 q 81 944 75 908 l 179 915 q 181 807 179 850 q 185 731 182 764 q 195 667 189 699 q 210 594 201 635 q 233 490 219 553 l 118 468 m 676 857 q 552 846 608 851 q 445 838 496 840 q 341 839 394 836 q 224 851 288 842 q 81 879 161 861 l 81 944 q 272 928 182 929 q 453 942 363 928 q 643 982 543 956 l 676 857 z "},"6":{"ha":908,"x_min":90,"x_max":846,"o":"m 460 -14 q 324 10 390 -14 q 206 79 258 33 q 122 194 153 125 q 90 353 90 263 q 132 547 90 439 q 265 770 174 656 q 508 986 357 885 l 582 956 q 396 777 476 879 q 271 566 315 675 q 226 360 226 457 q 251 212 228 278 q 330 108 275 146 q 476 69 385 69 q 613 109 558 69 q 696 210 668 149 q 724 335 724 271 q 696 444 724 393 q 613 528 668 496 q 472 560 557 560 q 322 522 397 560 q 190 408 247 485 l 208 560 q 347 618 274 599 q 489 638 419 638 q 685 596 607 638 q 805 488 764 554 q 846 346 846 421 q 822 217 846 281 q 751 101 799 153 q 631 17 703 49 q 460 -14 558 -14 z "},"7":{"ha":824,"x_min":63,"x_max":761,"o":"m 207 -15 q 259 147 224 61 q 353 341 294 233 q 499 589 411 449 q 710 914 588 729 l 761 885 q 632 646 690 756 q 528 444 574 536 q 449 273 482 351 q 394 128 415 194 q 361 1 372 61 l 207 -15 m 761 885 q 574 842 665 856 q 394 826 482 829 q 224 827 307 824 q 63 836 140 831 l 89 985 q 331 940 211 953 q 559 931 451 928 q 750 947 667 935 l 761 885 z "},"8":{"ha":936,"x_min":90,"x_max":846,"o":"m 449 -14 q 317 3 381 -14 q 201 56 253 21 q 120 144 150 92 q 90 269 90 197 q 122 401 90 344 q 206 494 153 457 q 326 549 260 531 q 464 567 393 567 q 603 548 535 567 q 726 494 671 529 q 813 406 781 458 q 846 285 846 353 q 812 156 846 211 q 721 62 778 100 q 593 5 664 24 q 449 -14 522 -14 m 467 60 q 594 83 533 60 q 695 151 656 106 q 735 260 735 196 q 695 383 735 333 q 594 457 656 432 q 467 482 533 482 q 342 458 401 482 q 247 385 283 433 q 211 261 211 336 q 247 149 211 193 q 342 82 283 104 q 467 60 401 60 m 447 499 q 326 513 385 499 q 219 557 267 528 q 145 630 172 586 q 118 733 118 674 q 147 842 118 796 q 223 918 175 888 q 331 963 271 949 q 454 978 390 978 q 582 963 519 978 q 694 918 644 947 q 774 845 744 889 q 804 744 804 801 q 774 639 804 685 q 692 562 743 593 q 576 515 640 531 q 447 499 513 499 m 458 567 q 571 587 517 567 q 660 645 625 607 q 694 738 694 683 q 660 833 694 794 q 573 890 626 871 q 461 908 519 908 q 354 888 406 908 q 270 829 303 867 q 238 740 238 792 q 269 642 238 681 q 351 585 300 604 q 458 567 401 567 z "},"9":{"ha":908,"x_min":63,"x_max":818,"o":"m 400 -14 l 326 17 q 513 195 433 93 q 638 406 593 297 q 682 613 683 515 q 658 760 682 694 q 578 865 633 826 q 432 903 524 903 q 296 863 351 903 q 213 763 240 824 q 185 638 185 703 q 213 528 185 581 q 297 444 240 476 q 436 413 353 413 q 587 450 511 413 q 718 564 663 488 l 700 413 q 562 354 635 374 q 419 335 489 335 q 224 376 303 335 q 104 485 144 418 q 63 626 64 551 q 86 756 63 692 q 158 872 110 819 q 278 955 206 924 q 449 986 351 986 q 584 963 518 986 q 703 893 650 939 q 787 778 756 847 q 818 619 818 710 q 776 426 818 535 q 643 202 735 317 q 400 -14 551 88 z "},"A":{"ha":1054,"x_min":125,"x_max":925,"o":"m 750 1 q 767 128 757 51 q 787 296 778 204 q 799 483 796 388 q 792 668 801 579 q 756 827 782 757 q 683 939 731 897 q 563 981 636 981 q 427 933 482 981 q 339 803 372 885 q 289 620 306 722 q 269 408 272 518 q 273 194 267 299 q 292 3 279 89 l 138 -10 q 141 420 125 224 q 206 761 157 617 q 344 985 256 906 q 564 1064 432 1064 q 762 984 685 1064 q 878 761 839 904 q 921 428 917 618 q 899 19 925 239 l 750 1 m 193 276 l 238 381 q 399 360 321 365 q 551 356 478 354 q 694 366 625 358 q 828 386 764 374 l 840 299 q 633 271 738 279 q 420 265 529 263 q 193 276 311 267 z "},"Á":{"ha":1054,"x_min":125,"x_max":925,"o":"m 750 1 q 767 128 757 51 q 787 296 778 204 q 799 483 796 388 q 792 668 801 579 q 756 827 782 757 q 683 939 731 897 q 563 981 636 981 q 427 933 482 981 q 339 803 372 885 q 289 620 306 722 q 269 408 272 518 q 273 194 267 299 q 292 3 279 89 l 138 -10 q 141 420 125 224 q 206 761 157 617 q 344 985 256 906 q 564 1064 432 1064 q 762 984 685 1064 q 878 761 839 904 q 921 428 917 618 q 899 19 925 239 l 750 1 m 193 276 l 238 381 q 399 360 321 365 q 551 356 478 354 q 694 366 625 358 q 828 386 764 374 l 840 299 q 633 271 738 279 q 420 265 529 263 q 193 276 311 267 m 567 1167 l 525 1200 l 764 1489 l 822 1432 l 567 1167 z "},"Ă":{"ha":1054,"x_min":125,"x_max":925,"o":"m 750 1 q 767 128 757 51 q 787 296 778 204 q 799 483 796 388 q 792 668 801 579 q 756 827 782 757 q 683 939 731 897 q 563 981 636 981 q 427 933 482 981 q 339 803 372 885 q 289 620 306 722 q 269 408 272 518 q 273 194 267 299 q 292 3 279 89 l 138 -10 q 141 420 125 224 q 206 761 157 617 q 344 985 256 906 q 564 1064 432 1064 q 762 984 685 1064 q 878 761 839 904 q 921 428 917 618 q 899 19 925 239 l 750 1 m 193 276 l 238 381 q 399 360 321 365 q 551 356 478 354 q 694 366 625 358 q 828 386 764 374 l 840 299 q 633 271 738 279 q 420 265 529 263 q 193 276 311 267 m 567 1171 q 484 1189 526 1171 q 414 1248 442 1207 q 386 1358 386 1289 l 461 1363 q 497 1253 465 1283 q 567 1224 528 1224 q 644 1259 621 1224 q 668 1375 668 1294 l 749 1383 q 703 1230 749 1289 q 567 1171 658 1171 z "},"Ǎ":{"ha":1054,"x_min":125,"x_max":925,"o":"m 750 1 q 767 128 757 51 q 787 296 778 204 q 799 483 796 388 q 792 668 801 579 q 756 827 782 757 q 683 939 731 897 q 563 981 636 981 q 427 933 482 981 q 339 803 372 885 q 289 620 306 722 q 269 408 272 518 q 273 194 267 299 q 292 3 279 89 l 138 -10 q 141 420 125 224 q 206 761 157 617 q 344 985 256 906 q 564 1064 432 1064 q 762 984 685 1064 q 878 761 839 904 q 921 428 917 618 q 899 19 925 239 l 750 1 m 193 276 l 238 381 q 399 360 321 365 q 551 356 478 354 q 694 366 625 358 q 828 386 764 374 l 840 299 q 633 271 738 279 q 420 265 529 263 q 193 276 311 267 m 421 1429 l 583 1221 l 567 1143 l 342 1388 l 421 1429 m 713 1429 l 792 1388 l 567 1143 l 550 1221 l 713 1429 z "},"Â":{"ha":1054,"x_min":125,"x_max":925,"o":"m 750 1 q 767 128 757 51 q 787 296 778 204 q 799 483 796 388 q 792 668 801 579 q 756 827 782 757 q 683 939 731 897 q 563 981 636 981 q 427 933 482 981 q 339 803 372 885 q 289 620 306 722 q 269 408 272 518 q 273 194 267 299 q 292 3 279 89 l 138 -10 q 141 420 125 224 q 206 761 157 617 q 344 985 256 906 q 564 1064 432 1064 q 762 984 685 1064 q 878 761 839 904 q 921 428 917 618 q 899 19 925 239 l 750 1 m 193 276 l 238 381 q 399 360 321 365 q 551 356 478 354 q 694 366 625 358 q 828 386 764 374 l 840 299 q 633 271 738 279 q 420 265 529 263 q 193 276 311 267 m 421 1147 l 342 1189 l 567 1433 l 583 1356 l 421 1147 m 713 1147 l 550 1356 l 567 1433 l 792 1189 l 713 1147 z "},"Ä":{"ha":1054,"x_min":125,"x_max":925,"o":"m 750 1 q 767 128 757 51 q 787 296 778 204 q 799 483 796 388 q 792 668 801 579 q 756 827 782 757 q 683 939 731 897 q 563 981 636 981 q 427 933 482 981 q 339 803 372 885 q 289 620 306 722 q 269 408 272 518 q 273 194 267 299 q 292 3 279 89 l 138 -10 q 141 420 125 224 q 206 761 157 617 q 344 985 256 906 q 564 1064 432 1064 q 762 984 685 1064 q 878 761 839 904 q 921 428 917 618 q 899 19 925 239 l 750 1 m 193 276 l 238 381 q 399 360 321 365 q 551 356 478 354 q 694 366 625 358 q 828 386 764 374 l 840 299 q 633 271 738 279 q 420 265 529 263 q 193 276 311 267 m 397 1168 q 394 1238 394 1200 q 394 1306 393 1275 l 522 1303 q 520 1238 522 1268 q 519 1171 518 1207 l 397 1168 m 619 1168 q 616 1238 617 1200 q 617 1306 615 1275 l 744 1303 q 742 1238 744 1268 q 742 1171 740 1207 l 619 1168 z "},"À":{"ha":1054,"x_min":125,"x_max":925,"o":"m 750 1 q 767 128 757 51 q 787 296 778 204 q 799 483 796 388 q 792 668 801 579 q 756 827 782 757 q 683 939 731 897 q 563 981 636 981 q 427 933 482 981 q 339 803 372 885 q 289 620 306 722 q 269 408 272 518 q 273 194 267 299 q 292 3 279 89 l 138 -10 q 141 420 125 224 q 206 761 157 617 q 344 985 256 906 q 564 1064 432 1064 q 762 984 685 1064 q 878 761 839 904 q 921 428 917 618 q 899 19 925 239 l 750 1 m 193 276 l 238 381 q 399 360 321 365 q 551 356 478 354 q 694 366 625 358 q 828 386 764 374 l 840 299 q 633 271 738 279 q 420 265 529 263 q 193 276 311 267 m 564 1167 l 310 1432 l 368 1489 l 606 1200 l 564 1167 z "},"Ā":{"ha":1054,"x_min":125,"x_max":925,"o":"m 750 1 q 767 128 757 51 q 787 296 778 204 q 799 483 796 388 q 792 668 801 579 q 756 827 782 757 q 683 939 731 897 q 563 981 636 981 q 427 933 482 981 q 339 803 372 885 q 289 620 306 722 q 269 408 272 518 q 273 194 267 299 q 292 3 279 89 l 138 -10 q 141 420 125 224 q 206 761 157 617 q 344 985 256 906 q 564 1064 432 1064 q 762 984 685 1064 q 878 761 839 904 q 921 428 917 618 q 899 19 925 239 l 750 1 m 193 276 l 238 381 q 399 360 321 365 q 551 356 478 354 q 694 366 625 358 q 828 386 764 374 l 840 299 q 633 271 738 279 q 420 265 529 263 q 193 276 311 267 m 728 1174 l 396 1176 l 410 1243 l 738 1224 l 728 1174 z "},"Ą":{"ha":1054,"x_min":125,"x_max":925,"o":"m 750 1 q 767 128 757 51 q 787 296 778 204 q 799 483 796 388 q 792 668 801 579 q 756 827 782 757 q 683 939 731 897 q 563 981 636 981 q 427 933 482 981 q 339 803 372 885 q 289 620 306 722 q 269 408 272 518 q 273 194 267 299 q 292 3 279 89 l 138 -10 q 141 420 125 224 q 206 761 157 617 q 344 985 256 906 q 564 1064 432 1064 q 762 984 685 1064 q 878 761 839 904 q 921 428 917 618 q 899 19 925 239 l 750 1 m 193 276 l 238 381 q 399 360 321 365 q 551 356 478 354 q 694 366 625 358 q 828 386 764 374 l 840 299 q 633 271 738 279 q 420 265 529 263 q 193 276 311 267 m 883 -272 q 775 -256 824 -272 q 699 -208 726 -239 q 671 -139 671 -178 q 714 -49 671 -94 q 835 33 757 -3 l 881 19 q 765 -56 801 -19 q 728 -128 728 -92 q 772 -193 728 -171 q 889 -207 817 -215 l 883 -272 z "},"Å":{"ha":1054,"x_min":125,"x_max":925,"o":"m 750 1 q 767 128 757 51 q 787 296 778 204 q 799 483 796 388 q 792 668 801 579 q 756 827 782 757 q 683 939 731 897 q 563 981 636 981 q 427 933 482 981 q 339 803 372 885 q 289 620 306 722 q 269 408 272 518 q 273 194 267 299 q 292 3 279 89 l 138 -10 q 141 420 125 224 q 206 761 157 617 q 344 985 256 906 q 564 1064 432 1064 q 762 984 685 1064 q 878 761 839 904 q 921 428 917 618 q 899 19 925 239 l 750 1 m 193 276 l 238 381 q 399 360 321 365 q 551 356 478 354 q 694 366 625 358 q 828 386 764 374 l 840 299 q 633 271 738 279 q 420 265 529 263 q 193 276 311 267 m 565 1168 q 490 1190 521 1168 q 442 1247 458 1213 q 425 1318 425 1282 q 459 1415 425 1371 q 565 1458 493 1458 q 647 1436 614 1458 q 697 1379 679 1414 q 714 1306 714 1344 q 678 1211 714 1254 q 565 1168 643 1168 m 568 1221 q 642 1247 619 1221 q 665 1308 665 1274 q 640 1376 665 1346 q 568 1407 615 1407 q 497 1378 519 1407 q 474 1315 474 1350 q 498 1251 474 1282 q 568 1221 522 1221 z "},"Ã":{"ha":1054,"x_min":125,"x_max":925,"o":"m 750 1 q 767 128 757 51 q 787 296 778 204 q 799 483 796 388 q 792 668 801 579 q 756 827 782 757 q 683 939 731 897 q 563 981 636 981 q 427 933 482 981 q 339 803 372 885 q 289 620 306 722 q 269 408 272 518 q 273 194 267 299 q 292 3 279 89 l 138 -10 q 141 420 125 224 q 206 761 157 617 q 344 985 256 906 q 564 1064 432 1064 q 762 984 685 1064 q 878 761 839 904 q 921 428 917 618 q 899 19 925 239 l 750 1 m 193 276 l 238 381 q 399 360 321 365 q 551 356 478 354 q 694 366 625 358 q 828 386 764 374 l 840 299 q 633 271 738 279 q 420 265 529 263 q 193 276 311 267 m 404 1160 l 342 1165 q 359 1266 342 1228 q 405 1322 376 1304 q 467 1339 433 1339 q 526 1319 500 1339 q 574 1275 551 1300 q 619 1231 596 1250 q 669 1211 643 1211 q 723 1247 707 1211 q 736 1338 739 1283 l 792 1333 q 773 1230 792 1269 q 728 1173 754 1190 q 681 1156 703 1156 q 623 1175 650 1156 q 570 1219 596 1194 q 519 1264 544 1244 q 469 1283 494 1283 q 419 1248 436 1283 q 404 1160 403 1213 z "},"Æ":{"ha":1446,"x_min":125,"x_max":1383,"o":"m 764 1 q 781 128 771 51 q 798 296 790 204 q 807 483 806 388 q 797 668 808 579 q 759 827 786 757 q 684 939 732 897 q 563 981 636 981 q 427 934 482 981 q 339 808 372 888 q 289 627 306 728 q 269 418 272 526 q 273 206 267 310 q 292 17 279 103 l 138 4 q 141 432 125 238 q 206 768 157 626 q 344 987 256 910 q 564 1064 432 1064 q 762 984 685 1064 q 878 761 839 904 q 921 428 917 618 q 899 19 925 239 l 764 1 m 193 428 l 238 536 q 399 515 321 521 q 551 512 478 510 q 694 522 625 514 q 828 542 764 529 l 840 450 q 633 422 738 431 q 420 416 529 414 q 193 428 311 418 m 1383 -7 q 1301 -8 1347 -7 q 1200 -8 1254 -8 q 1088 -9 1146 -8 q 974 -8 1031 -10 q 863 -5 917 -7 q 764 1 810 -3 l 825 82 q 921 76 869 76 q 1028 79 972 75 q 1144 90 1085 83 q 1263 103 1203 96 q 1383 115 1324 110 l 1383 -7 m 1229 457 q 1039 468 1135 467 q 818 460 943 469 l 818 542 q 1035 562 929 557 q 1225 568 1140 567 l 1229 457 m 1360 950 q 1225 965 1300 958 q 1070 974 1150 971 q 915 979 990 978 q 776 981 839 981 q 676 979 714 981 l 564 1064 q 719 1064 632 1064 q 901 1065 807 1064 q 1085 1066 996 1065 q 1247 1067 1175 1067 q 1360 1069 1318 1068 l 1360 950 z "},"B":{"ha":1047,"x_min":132,"x_max":957,"o":"m 268 424 l 222 496 q 470 578 371 536 q 628 665 569 619 q 713 756 688 710 q 738 850 738 803 q 699 934 738 899 q 596 969 661 969 q 474 946 540 969 q 351 869 407 922 q 268 726 294 815 l 233 808 q 310 944 261 888 q 417 1038 358 1001 q 534 1091 476 1074 q 639 1108 592 1108 q 808 1042 754 1108 q 863 878 863 976 q 804 691 863 775 q 616 541 746 607 q 268 424 486 475 m 164 -6 q 169 270 168 132 q 165 540 169 408 q 153 792 161 672 q 132 1014 144 913 l 285 1039 q 294 812 290 919 q 300 603 299 704 q 301 404 301 503 q 299 206 301 306 q 294 0 297 107 l 164 -6 m 294 0 l 217 81 q 503 105 388 81 q 688 168 619 129 q 785 252 756 207 q 815 339 815 297 q 777 442 815 408 q 676 482 739 475 q 540 478 614 489 q 392 446 465 467 q 263 404 319 425 l 268 457 q 451 538 356 507 q 637 577 547 569 q 799 565 726 585 q 914 496 871 546 q 957 360 957 446 q 887 176 957 257 q 670 47 817 94 q 294 0 524 0 z "},"C":{"ha":935,"x_min":90,"x_max":872,"o":"m 572 -3 q 392 32 478 -3 q 238 132 306 67 q 130 289 169 197 q 90 494 90 381 q 137 745 90 642 q 260 913 183 849 q 428 1008 336 978 q 613 1039 521 1039 q 753 1022 686 1039 q 872 972 821 1004 l 857 864 q 737 906 797 893 q 619 918 676 918 q 424 865 513 918 q 282 716 335 813 q 229 490 229 619 q 258 317 229 392 q 335 191 286 242 q 444 115 383 140 q 568 89 504 89 q 714 104 653 89 q 838 151 775 119 l 839 64 q 708 11 775 25 q 572 -3 640 -3 z "},"Ć":{"ha":935,"x_min":90,"x_max":894,"o":"m 572 -3 q 392 32 478 -3 q 238 132 306 67 q 130 289 169 197 q 90 494 90 381 q 137 745 90 642 q 260 913 183 849 q 428 1008 336 978 q 613 1039 521 1039 q 753 1022 686 1039 q 872 972 821 1004 l 857 864 q 737 906 797 893 q 619 918 676 918 q 424 865 513 918 q 282 716 335 813 q 229 490 229 619 q 258 317 229 392 q 335 191 286 242 q 444 115 383 140 q 568 89 504 89 q 714 104 653 89 q 838 151 775 119 l 839 64 q 708 11 775 25 q 572 -3 640 -3 m 639 1167 l 597 1200 l 836 1489 l 894 1432 l 639 1167 z "},"Č":{"ha":935,"x_min":90,"x_max":872,"o":"m 572 -3 q 392 32 478 -3 q 238 132 306 67 q 130 289 169 197 q 90 494 90 381 q 137 745 90 642 q 260 913 183 849 q 428 1008 336 978 q 613 1039 521 1039 q 753 1022 686 1039 q 872 972 821 1004 l 857 864 q 737 906 797 893 q 619 918 676 918 q 424 865 513 918 q 282 716 335 813 q 229 490 229 619 q 258 317 229 392 q 335 191 286 242 q 444 115 383 140 q 568 89 504 89 q 714 104 653 89 q 838 151 775 119 l 839 64 q 708 11 775 25 q 572 -3 640 -3 m 493 1429 l 656 1221 l 639 1143 l 414 1388 l 493 1429 m 785 1429 l 864 1388 l 639 1143 l 622 1221 l 785 1429 z "},"Ç":{"ha":935,"x_min":90,"x_max":872,"o":"m 572 -3 q 392 32 478 -3 q 238 132 306 67 q 130 289 169 197 q 90 494 90 381 q 137 745 90 642 q 260 913 183 849 q 428 1008 336 978 q 613 1039 521 1039 q 753 1022 686 1039 q 872 972 821 1004 l 857 864 q 737 906 797 893 q 619 918 676 918 q 424 865 513 918 q 282 716 335 813 q 229 490 229 619 q 258 317 229 392 q 335 191 286 242 q 444 115 383 140 q 568 89 504 89 q 714 104 653 89 q 838 151 775 119 l 839 64 q 708 11 775 25 q 572 -3 640 -3 m 529 -278 l 531 -218 q 584 -226 556 -224 q 639 -224 613 -229 q 682 -205 665 -219 q 699 -164 699 -190 q 684 -119 699 -135 q 646 -95 669 -103 q 594 -86 622 -87 q 540 -85 567 -85 l 571 -26 q 665 -44 625 -26 q 726 -92 704 -62 q 749 -157 749 -121 q 726 -228 749 -201 q 669 -268 704 -256 q 597 -282 635 -281 q 529 -278 560 -283 m 525 -85 l 575 38 l 643 40 l 558 -85 l 525 -85 z "},"Ċ":{"ha":935,"x_min":90,"x_max":872,"o":"m 572 -3 q 392 32 478 -3 q 238 132 306 67 q 130 289 169 197 q 90 494 90 381 q 137 745 90 642 q 260 913 183 849 q 428 1008 336 978 q 613 1039 521 1039 q 753 1022 686 1039 q 872 972 821 1004 l 857 864 q 737 906 797 893 q 619 918 676 918 q 424 865 513 918 q 282 716 335 813 q 229 490 229 619 q 258 317 229 392 q 335 191 286 242 q 444 115 383 140 q 568 89 504 89 q 714 104 653 89 q 838 151 775 119 l 839 64 q 708 11 775 25 q 572 -3 640 -3 m 574 1174 q 570 1251 571 1210 q 571 1326 569 1292 l 713 1324 q 710 1251 713 1285 q 710 1178 708 1217 l 574 1174 z "},"D":{"ha":1061,"x_min":132,"x_max":971,"o":"m 167 776 q 304 922 221 860 q 485 1019 388 985 q 678 1053 583 1053 q 835 1013 769 1053 q 935 900 900 974 q 971 725 971 826 q 921 520 971 628 q 780 310 871 413 q 565 126 689 207 q 294 0 442 44 l 271 71 q 492 177 390 106 q 669 340 594 249 q 786 527 744 432 q 828 703 828 622 q 810 808 828 754 q 751 900 792 863 q 638 938 710 938 q 550 927 601 938 q 440 890 499 917 q 326 813 382 863 q 224 685 269 764 l 167 776 m 164 -6 q 169 270 168 132 q 165 540 169 408 q 153 792 161 672 q 132 1014 144 913 l 285 1039 q 294 812 290 919 q 300 603 299 704 q 301 404 301 503 q 299 206 301 306 q 294 0 297 107 l 164 -6 z "},"Ð":{"ha":1061,"x_min":26,"x_max":971,"o":"m 26 414 l 28 533 l 553 518 l 553 431 l 26 414 m 167 776 q 304 922 221 860 q 485 1019 388 985 q 678 1053 583 1053 q 835 1013 769 1053 q 935 900 900 974 q 971 725 971 826 q 921 520 971 628 q 780 310 871 413 q 565 126 689 207 q 294 0 442 44 l 271 71 q 492 177 390 106 q 669 340 594 249 q 786 527 744 432 q 828 703 828 622 q 810 808 828 754 q 751 900 792 863 q 638 938 710 938 q 550 927 601 938 q 440 890 499 917 q 326 813 382 863 q 224 685 269 764 l 167 776 m 164 -6 q 169 270 168 132 q 165 540 169 408 q 153 792 161 672 q 132 1014 144 913 l 285 1039 q 294 812 290 919 q 300 603 299 704 q 301 404 301 503 q 299 206 301 306 q 294 0 297 107 l 164 -6 z "},"Ď":{"ha":1061,"x_min":132,"x_max":971,"o":"m 167 776 q 304 922 221 860 q 485 1019 388 985 q 678 1053 583 1053 q 835 1013 769 1053 q 935 900 900 974 q 971 725 971 826 q 921 520 971 628 q 780 310 871 413 q 565 126 689 207 q 294 0 442 44 l 271 71 q 492 177 390 106 q 669 340 594 249 q 786 527 744 432 q 828 703 828 622 q 810 808 828 754 q 751 900 792 863 q 638 938 710 938 q 550 927 601 938 q 440 890 499 917 q 326 813 382 863 q 224 685 269 764 l 167 776 m 164 -6 q 169 270 168 132 q 165 540 169 408 q 153 792 161 672 q 132 1014 144 913 l 285 1039 q 294 812 290 919 q 300 603 299 704 q 301 404 301 503 q 299 206 301 306 q 294 0 297 107 l 164 -6 m 403 1429 l 565 1221 l 549 1143 l 324 1388 l 403 1429 m 694 1429 l 774 1388 l 549 1143 l 532 1221 l 694 1429 z "},"Đ":{"ha":1061,"x_min":26,"x_max":971,"o":"m 26 414 l 28 533 l 553 518 l 553 431 l 26 414 m 167 776 q 304 922 221 860 q 485 1019 388 985 q 678 1053 583 1053 q 835 1013 769 1053 q 935 900 900 974 q 971 725 971 826 q 921 520 971 628 q 780 310 871 413 q 565 126 689 207 q 294 0 442 44 l 271 71 q 492 177 390 106 q 669 340 594 249 q 786 527 744 432 q 828 703 828 622 q 810 808 828 754 q 751 900 792 863 q 638 938 710 938 q 550 927 601 938 q 440 890 499 917 q 326 813 382 863 q 224 685 269 764 l 167 776 m 164 -6 q 169 270 168 132 q 165 540 169 408 q 153 792 161 672 q 132 1014 144 913 l 285 1039 q 294 812 290 919 q 300 603 299 704 q 301 404 301 503 q 299 206 301 306 q 294 0 297 107 l 164 -6 z "},"E":{"ha":872,"x_min":132,"x_max":810,"o":"m 154 21 q 162 216 160 113 q 163 428 164 319 q 159 642 163 536 q 149 844 156 747 q 132 1022 142 942 l 285 1026 q 294 804 292 907 q 295 608 296 701 q 292 425 294 515 q 285 240 289 335 q 279 39 282 146 l 154 21 m 810 -7 q 673 -5 756 -7 q 497 1 590 -3 q 313 10 403 4 q 154 21 222 15 l 215 101 q 342 92 271 93 q 494 93 414 90 q 654 102 574 96 q 810 115 735 108 l 810 -7 m 656 450 q 465 461 561 460 q 244 453 369 463 l 244 535 q 461 555 356 550 q 651 561 567 560 l 656 450 m 786 950 q 631 964 711 961 q 475 964 550 967 q 340 956 400 961 q 244 946 279 950 l 132 1022 q 244 1034 176 1028 q 388 1046 311 1040 q 540 1056 464 1051 q 680 1065 615 1061 q 786 1069 744 1068 l 786 950 z "},"É":{"ha":872,"x_min":132,"x_max":810,"o":"m 154 21 q 162 216 160 113 q 163 428 164 319 q 159 642 163 536 q 149 844 156 747 q 132 1022 142 942 l 285 1026 q 294 804 292 907 q 295 608 296 701 q 292 425 294 515 q 285 240 289 335 q 279 39 282 146 l 154 21 m 810 -7 q 673 -5 756 -7 q 497 1 590 -3 q 313 10 403 4 q 154 21 222 15 l 215 101 q 342 92 271 93 q 494 93 414 90 q 654 102 574 96 q 810 115 735 108 l 810 -7 m 656 450 q 465 461 561 460 q 244 453 369 463 l 244 535 q 461 555 356 550 q 651 561 567 560 l 656 450 m 786 950 q 631 964 711 961 q 475 964 550 967 q 340 956 400 961 q 244 946 279 950 l 132 1022 q 244 1034 176 1028 q 388 1046 311 1040 q 540 1056 464 1051 q 680 1065 615 1061 q 786 1069 744 1068 l 786 950 m 489 1167 l 447 1200 l 686 1489 l 744 1432 l 489 1167 z "},"Ě":{"ha":872,"x_min":132,"x_max":810,"o":"m 154 21 q 162 216 160 113 q 163 428 164 319 q 159 642 163 536 q 149 844 156 747 q 132 1022 142 942 l 285 1026 q 294 804 292 907 q 295 608 296 701 q 292 425 294 515 q 285 240 289 335 q 279 39 282 146 l 154 21 m 810 -7 q 673 -5 756 -7 q 497 1 590 -3 q 313 10 403 4 q 154 21 222 15 l 215 101 q 342 92 271 93 q 494 93 414 90 q 654 102 574 96 q 810 115 735 108 l 810 -7 m 656 450 q 465 461 561 460 q 244 453 369 463 l 244 535 q 461 555 356 550 q 651 561 567 560 l 656 450 m 786 950 q 631 964 711 961 q 475 964 550 967 q 340 956 400 961 q 244 946 279 950 l 132 1022 q 244 1034 176 1028 q 388 1046 311 1040 q 540 1056 464 1051 q 680 1065 615 1061 q 786 1069 744 1068 l 786 950 m 343 1429 l 506 1221 l 489 1143 l 264 1388 l 343 1429 m 635 1429 l 714 1388 l 489 1143 l 472 1221 l 635 1429 z "},"Ê":{"ha":872,"x_min":132,"x_max":810,"o":"m 154 21 q 162 216 160 113 q 163 428 164 319 q 159 642 163 536 q 149 844 156 747 q 132 1022 142 942 l 285 1026 q 294 804 292 907 q 295 608 296 701 q 292 425 294 515 q 285 240 289 335 q 279 39 282 146 l 154 21 m 810 -7 q 673 -5 756 -7 q 497 1 590 -3 q 313 10 403 4 q 154 21 222 15 l 215 101 q 342 92 271 93 q 494 93 414 90 q 654 102 574 96 q 810 115 735 108 l 810 -7 m 656 450 q 465 461 561 460 q 244 453 369 463 l 244 535 q 461 555 356 550 q 651 561 567 560 l 656 450 m 786 950 q 631 964 711 961 q 475 964 550 967 q 340 956 400 961 q 244 946 279 950 l 132 1022 q 244 1034 176 1028 q 388 1046 311 1040 q 540 1056 464 1051 q 680 1065 615 1061 q 786 1069 744 1068 l 786 950 m 343 1147 l 264 1189 l 489 1433 l 506 1356 l 343 1147 m 635 1147 l 472 1356 l 489 1433 l 714 1189 l 635 1147 z "},"Ë":{"ha":872,"x_min":132,"x_max":810,"o":"m 154 21 q 162 216 160 113 q 163 428 164 319 q 159 642 163 536 q 149 844 156 747 q 132 1022 142 942 l 285 1026 q 294 804 292 907 q 295 608 296 701 q 292 425 294 515 q 285 240 289 335 q 279 39 282 146 l 154 21 m 810 -7 q 673 -5 756 -7 q 497 1 590 -3 q 313 10 403 4 q 154 21 222 15 l 215 101 q 342 92 271 93 q 494 93 414 90 q 654 102 574 96 q 810 115 735 108 l 810 -7 m 656 450 q 465 461 561 460 q 244 453 369 463 l 244 535 q 461 555 356 550 q 651 561 567 560 l 656 450 m 786 950 q 631 964 711 961 q 475 964 550 967 q 340 956 400 961 q 244 946 279 950 l 132 1022 q 244 1034 176 1028 q 388 1046 311 1040 q 540 1056 464 1051 q 680 1065 615 1061 q 786 1069 744 1068 l 786 950 m 319 1168 q 316 1238 317 1200 q 317 1306 315 1275 l 444 1303 q 442 1238 444 1268 q 442 1171 440 1207 l 319 1168 m 542 1168 q 538 1238 539 1200 q 539 1306 538 1275 l 667 1303 q 665 1238 667 1268 q 664 1171 663 1207 l 542 1168 z "},"Ė":{"ha":872,"x_min":132,"x_max":810,"o":"m 154 21 q 162 216 160 113 q 163 428 164 319 q 159 642 163 536 q 149 844 156 747 q 132 1022 142 942 l 285 1026 q 294 804 292 907 q 295 608 296 701 q 292 425 294 515 q 285 240 289 335 q 279 39 282 146 l 154 21 m 810 -7 q 673 -5 756 -7 q 497 1 590 -3 q 313 10 403 4 q 154 21 222 15 l 215 101 q 342 92 271 93 q 494 93 414 90 q 654 102 574 96 q 810 115 735 108 l 810 -7 m 656 450 q 465 461 561 460 q 244 453 369 463 l 244 535 q 461 555 356 550 q 651 561 567 560 l 656 450 m 786 950 q 631 964 711 961 q 475 964 550 967 q 340 956 400 961 q 244 946 279 950 l 132 1022 q 244 1034 176 1028 q 388 1046 311 1040 q 540 1056 464 1051 q 680 1065 615 1061 q 786 1069 744 1068 l 786 950 m 424 1174 q 420 1251 421 1210 q 421 1326 419 1292 l 563 1324 q 560 1251 563 1285 q 560 1178 558 1217 l 424 1174 z "},"È":{"ha":872,"x_min":132,"x_max":810,"o":"m 154 21 q 162 216 160 113 q 163 428 164 319 q 159 642 163 536 q 149 844 156 747 q 132 1022 142 942 l 285 1026 q 294 804 292 907 q 295 608 296 701 q 292 425 294 515 q 285 240 289 335 q 279 39 282 146 l 154 21 m 810 -7 q 673 -5 756 -7 q 497 1 590 -3 q 313 10 403 4 q 154 21 222 15 l 215 101 q 342 92 271 93 q 494 93 414 90 q 654 102 574 96 q 810 115 735 108 l 810 -7 m 656 450 q 465 461 561 460 q 244 453 369 463 l 244 535 q 461 555 356 550 q 651 561 567 560 l 656 450 m 786 950 q 631 964 711 961 q 475 964 550 967 q 340 956 400 961 q 244 946 279 950 l 132 1022 q 244 1034 176 1028 q 388 1046 311 1040 q 540 1056 464 1051 q 680 1065 615 1061 q 786 1069 744 1068 l 786 950 m 486 1167 l 232 1432 l 290 1489 l 528 1200 l 486 1167 z "},"Ē":{"ha":872,"x_min":132,"x_max":810,"o":"m 154 21 q 162 216 160 113 q 163 428 164 319 q 159 642 163 536 q 149 844 156 747 q 132 1022 142 942 l 285 1026 q 294 804 292 907 q 295 608 296 701 q 292 425 294 515 q 285 240 289 335 q 279 39 282 146 l 154 21 m 810 -7 q 673 -5 756 -7 q 497 1 590 -3 q 313 10 403 4 q 154 21 222 15 l 215 101 q 342 92 271 93 q 494 93 414 90 q 654 102 574 96 q 810 115 735 108 l 810 -7 m 656 450 q 465 461 561 460 q 244 453 369 463 l 244 535 q 461 555 356 550 q 651 561 567 560 l 656 450 m 786 950 q 631 964 711 961 q 475 964 550 967 q 340 956 400 961 q 244 946 279 950 l 132 1022 q 244 1034 176 1028 q 388 1046 311 1040 q 540 1056 464 1051 q 680 1065 615 1061 q 786 1069 744 1068 l 786 950 m 650 1174 l 318 1176 l 332 1243 l 660 1224 l 650 1174 z "},"Ę":{"ha":872,"x_min":132,"x_max":810,"o":"m 154 21 q 162 216 160 113 q 163 428 164 319 q 159 642 163 536 q 149 844 156 747 q 132 1022 142 942 l 285 1026 q 294 804 292 907 q 295 608 296 701 q 292 425 294 515 q 285 240 289 335 q 279 39 282 146 l 154 21 m 810 -7 q 673 -5 756 -7 q 497 1 590 -3 q 313 10 403 4 q 154 21 222 15 l 215 101 q 342 92 271 93 q 494 93 414 90 q 654 102 574 96 q 810 115 735 108 l 810 -7 m 656 450 q 465 461 561 460 q 244 453 369 463 l 244 535 q 461 555 356 550 q 651 561 567 560 l 656 450 m 786 950 q 631 964 711 961 q 475 964 550 967 q 340 956 400 961 q 244 946 279 950 l 132 1022 q 244 1034 176 1028 q 388 1046 311 1040 q 540 1056 464 1051 q 680 1065 615 1061 q 786 1069 744 1068 l 786 950 m 790 -282 q 682 -265 731 -282 q 606 -218 633 -249 q 578 -149 578 -187 q 621 -58 578 -104 q 742 24 664 -12 l 788 10 q 672 -65 708 -29 q 635 -137 635 -101 q 679 -203 635 -181 q 796 -217 724 -225 l 790 -282 z "},"Ẽ":{"ha":872,"x_min":132,"x_max":810,"o":"m 154 21 q 162 216 160 113 q 163 428 164 319 q 159 642 163 536 q 149 844 156 747 q 132 1022 142 942 l 285 1026 q 294 804 292 907 q 295 608 296 701 q 292 425 294 515 q 285 240 289 335 q 279 39 282 146 l 154 21 m 810 -7 q 673 -5 756 -7 q 497 1 590 -3 q 313 10 403 4 q 154 21 222 15 l 215 101 q 342 92 271 93 q 494 93 414 90 q 654 102 574 96 q 810 115 735 108 l 810 -7 m 656 450 q 465 461 561 460 q 244 453 369 463 l 244 535 q 461 555 356 550 q 651 561 567 560 l 656 450 m 786 950 q 631 964 711 961 q 475 964 550 967 q 340 956 400 961 q 244 946 279 950 l 132 1022 q 244 1034 176 1028 q 388 1046 311 1040 q 540 1056 464 1051 q 680 1065 615 1061 q 786 1069 744 1068 l 786 950 m 326 1160 l 264 1165 q 281 1266 264 1228 q 327 1322 299 1304 q 389 1339 356 1339 q 448 1319 422 1339 q 496 1275 474 1300 q 542 1231 518 1250 q 592 1211 565 1211 q 645 1247 629 1211 q 658 1338 661 1283 l 714 1333 q 695 1230 714 1269 q 651 1173 676 1190 q 603 1156 625 1156 q 545 1175 572 1156 q 492 1219 518 1194 q 442 1264 467 1244 q 392 1283 417 1283 q 342 1248 358 1283 q 326 1160 325 1213 z "},"F":{"ha":819,"x_min":132,"x_max":757,"o":"m 154 6 q 162 202 160 97 q 163 417 164 307 q 159 636 163 528 q 149 843 156 744 q 132 1022 142 942 l 285 1026 q 294 803 292 907 q 295 603 296 699 q 292 415 294 508 q 285 226 289 322 q 279 24 282 131 l 154 6 m 631 450 q 450 461 542 460 q 239 453 358 463 l 239 535 q 446 555 344 550 q 628 561 547 560 l 631 450 m 757 950 q 609 964 686 961 q 460 964 532 967 q 330 956 388 961 q 239 946 272 950 l 132 1022 q 239 1034 175 1028 q 376 1046 303 1040 q 522 1056 450 1051 q 656 1065 594 1061 q 757 1069 718 1068 l 757 950 z "},"G":{"ha":1090,"x_min":90,"x_max":1000,"o":"m 514 0 q 322 35 401 0 q 190 131 242 69 q 115 269 139 192 q 90 433 90 347 q 117 607 90 519 q 193 773 143 694 q 314 913 243 851 q 474 1011 385 975 q 668 1047 564 1047 q 767 1039 717 1047 q 869 1013 818 1031 l 869 928 q 767 958 818 950 q 650 965 717 965 q 503 929 578 965 q 367 824 429 893 q 266 655 304 754 q 228 429 228 556 q 269 254 228 325 q 380 147 311 183 q 528 111 449 111 q 694 138 621 111 q 819 205 768 164 q 898 291 871 246 q 925 375 925 336 q 897 460 925 433 q 817 488 868 488 q 735 473 778 488 q 651 435 692 458 q 576 386 610 413 l 538 533 q 674 597 608 578 q 794 617 739 617 q 904 594 858 617 q 975 524 950 572 q 1000 397 1000 476 q 973 280 1000 338 q 898 172 946 222 q 788 83 850 122 q 656 22 726 44 q 514 0 586 0 z "},"Ğ":{"ha":1090,"x_min":90,"x_max":1000,"o":"m 514 0 q 322 35 401 0 q 190 131 242 69 q 115 269 139 192 q 90 433 90 347 q 117 607 90 519 q 193 773 143 694 q 314 913 243 851 q 474 1011 385 975 q 668 1047 564 1047 q 767 1039 717 1047 q 869 1013 818 1031 l 869 928 q 767 958 818 950 q 650 965 717 965 q 503 929 578 965 q 367 824 429 893 q 266 655 304 754 q 228 429 228 556 q 269 254 228 325 q 380 147 311 183 q 528 111 449 111 q 694 138 621 111 q 819 205 768 164 q 898 291 871 246 q 925 375 925 336 q 897 460 925 433 q 817 488 868 488 q 735 473 778 488 q 651 435 692 458 q 576 386 610 413 l 538 533 q 674 597 608 578 q 794 617 739 617 q 904 594 858 617 q 975 524 950 572 q 1000 397 1000 476 q 973 280 1000 338 q 898 172 946 222 q 788 83 850 122 q 656 22 726 44 q 514 0 586 0 m 682 1171 q 599 1189 642 1171 q 529 1248 557 1207 q 501 1358 501 1289 l 576 1363 q 612 1253 581 1283 q 682 1224 643 1224 q 760 1259 736 1224 q 783 1375 783 1294 l 864 1383 q 819 1230 864 1289 q 682 1171 774 1171 z "},"Ģ":{"ha":1090,"x_min":90,"x_max":1000,"o":"m 514 0 q 322 35 401 0 q 190 131 242 69 q 115 269 139 192 q 90 433 90 347 q 117 607 90 519 q 193 773 143 694 q 314 913 243 851 q 474 1011 385 975 q 668 1047 564 1047 q 767 1039 717 1047 q 869 1013 818 1031 l 869 928 q 767 958 818 950 q 650 965 717 965 q 503 929 578 965 q 367 824 429 893 q 266 655 304 754 q 228 429 228 556 q 269 254 228 325 q 380 147 311 183 q 528 111 449 111 q 694 138 621 111 q 819 205 768 164 q 898 291 871 246 q 925 375 925 336 q 897 460 925 433 q 817 488 868 488 q 735 473 778 488 q 651 435 692 458 q 576 386 610 413 l 538 533 q 674 597 608 578 q 794 617 739 617 q 904 594 858 617 q 975 524 950 572 q 1000 397 1000 476 q 973 280 1000 338 q 898 172 946 222 q 788 83 850 122 q 656 22 726 44 q 514 0 586 0 m 504 -369 l 461 -304 q 503 -264 486 -287 q 528 -214 521 -240 l 547 -226 l 467 -229 q 463 -174 464 -203 q 464 -119 463 -144 l 565 -122 q 565 -174 565 -149 q 563 -226 564 -199 q 548 -306 561 -274 q 504 -369 535 -337 z "},"Ġ":{"ha":1090,"x_min":90,"x_max":1000,"o":"m 514 0 q 322 35 401 0 q 190 131 242 69 q 115 269 139 192 q 90 433 90 347 q 117 607 90 519 q 193 773 143 694 q 314 913 243 851 q 474 1011 385 975 q 668 1047 564 1047 q 767 1039 717 1047 q 869 1013 818 1031 l 869 928 q 767 958 818 950 q 650 965 717 965 q 503 929 578 965 q 367 824 429 893 q 266 655 304 754 q 228 429 228 556 q 269 254 228 325 q 380 147 311 183 q 528 111 449 111 q 694 138 621 111 q 819 205 768 164 q 898 291 871 246 q 925 375 925 336 q 897 460 925 433 q 817 488 868 488 q 735 473 778 488 q 651 435 692 458 q 576 386 610 413 l 538 533 q 674 597 608 578 q 794 617 739 617 q 904 594 858 617 q 975 524 950 572 q 1000 397 1000 476 q 973 280 1000 338 q 898 172 946 222 q 788 83 850 122 q 656 22 726 44 q 514 0 586 0 m 617 1174 q 613 1251 614 1210 q 614 1326 613 1292 l 756 1324 q 753 1251 756 1285 q 753 1178 751 1217 l 617 1174 z "},"H":{"ha":1132,"x_min":132,"x_max":1000,"o":"m 164 -12 q 169 340 169 174 q 161 672 169 507 q 132 1019 153 838 l 285 1051 q 297 792 293 926 q 299 523 300 658 q 292 257 297 388 q 279 10 288 126 l 164 -12 m 975 469 q 827 450 908 457 q 658 441 746 443 q 483 440 569 439 q 322 447 397 442 q 192 461 247 453 l 201 544 q 312 535 243 539 q 463 530 381 531 q 631 534 546 529 q 795 552 717 539 q 932 589 874 565 l 975 469 m 865 -12 q 870 202 868 99 q 871 406 872 306 q 865 606 869 506 q 853 808 861 706 q 833 1019 846 910 l 986 1051 q 996 845 993 951 q 999 631 999 739 q 999 415 1000 522 q 992 206 997 308 q 981 10 988 104 l 865 -12 z "},"Ħ":{"ha":1163,"x_min":-7,"x_max":1131,"o":"m 3 732 l -7 857 l 1119 915 l 1131 824 l 3 732 m 164 -12 q 169 340 169 174 q 161 672 169 507 q 132 1019 153 838 l 285 1051 q 297 792 293 926 q 299 523 300 658 q 292 257 297 388 q 279 10 288 126 l 164 -12 m 975 469 q 827 450 908 457 q 658 441 746 443 q 483 440 569 439 q 322 447 397 442 q 192 461 247 453 l 201 544 q 312 535 243 539 q 463 530 381 531 q 631 534 546 529 q 795 552 717 539 q 932 589 874 565 l 975 469 m 865 -12 q 870 202 868 99 q 871 406 872 306 q 865 606 869 506 q 853 808 861 706 q 833 1019 846 910 l 986 1051 q 996 845 993 951 q 999 631 999 739 q 999 415 1000 522 q 992 206 997 308 q 981 10 988 104 l 865 -12 z "},"I":{"ha":431,"x_min":132,"x_max":300,"o":"m 164 -11 q 170 342 169 175 q 163 674 171 508 q 132 1019 154 840 l 288 1049 q 298 790 296 924 q 298 522 300 657 q 290 256 296 386 q 275 10 283 126 l 164 -11 z "},"Ĳ":{"ha":1006,"x_min":132,"x_max":875,"o":"m 164 -11 q 170 342 169 175 q 163 674 171 508 q 132 1019 154 840 l 288 1049 q 298 790 296 924 q 298 522 300 657 q 290 256 296 386 q 275 10 283 126 l 164 -11 m 867 424 q 828 230 860 311 q 742 97 797 149 q 609 20 686 44 q 433 -4 532 -4 l 424 146 q 487 134 458 138 q 539 131 515 131 q 680 167 636 131 q 735 267 724 203 q 747 417 747 332 q 744 560 747 481 q 732 751 742 639 q 700 1028 722 864 l 864 1067 q 874 734 872 900 q 867 424 875 568 z "},"Í":{"ha":431,"x_min":132,"x_max":450,"o":"m 164 -11 q 170 342 169 175 q 163 674 171 508 q 132 1019 154 840 l 288 1049 q 298 790 296 924 q 298 522 300 657 q 290 256 296 386 q 275 10 283 126 l 164 -11 m 194 1167 l 153 1200 l 392 1489 l 450 1432 l 194 1167 z "},"Î":{"ha":431,"x_min":-31,"x_max":419,"o":"m 164 -11 q 170 342 169 175 q 163 674 171 508 q 132 1019 154 840 l 288 1049 q 298 790 296 924 q 298 522 300 657 q 290 256 296 386 q 275 10 283 126 l 164 -11 m 49 1147 l -31 1189 l 194 1433 l 211 1356 l 49 1147 m 340 1147 l 178 1356 l 194 1433 l 419 1189 l 340 1147 z "},"Ï":{"ha":431,"x_min":21,"x_max":372,"o":"m 164 -11 q 170 342 169 175 q 163 674 171 508 q 132 1019 154 840 l 288 1049 q 298 790 296 924 q 298 522 300 657 q 290 256 296 386 q 275 10 283 126 l 164 -11 m 25 1168 q 22 1238 22 1200 q 22 1306 21 1275 l 150 1303 q 148 1238 150 1268 q 147 1171 146 1207 l 25 1168 m 247 1168 q 244 1238 244 1200 q 244 1306 243 1275 l 372 1303 q 370 1238 372 1268 q 369 1171 368 1207 l 247 1168 z "},"İ":{"ha":431,"x_min":125,"x_max":300,"o":"m 164 -11 q 170 342 169 175 q 163 674 171 508 q 132 1019 154 840 l 288 1049 q 298 790 296 924 q 298 522 300 657 q 290 256 296 386 q 275 10 283 126 l 164 -11 m 129 1174 q 126 1251 126 1210 q 126 1326 125 1292 l 268 1324 q 266 1251 268 1285 q 265 1178 264 1217 l 129 1174 z "},"Ì":{"ha":431,"x_min":-62,"x_max":300,"o":"m 164 -11 q 170 342 169 175 q 163 674 171 508 q 132 1019 154 840 l 288 1049 q 298 790 296 924 q 298 522 300 657 q 290 256 296 386 q 275 10 283 126 l 164 -11 m 192 1167 l -62 1432 l -4 1489 l 233 1200 l 192 1167 z "},"Ī":{"ha":431,"x_min":24,"x_max":365,"o":"m 164 -11 q 170 342 169 175 q 163 674 171 508 q 132 1019 154 840 l 288 1049 q 298 790 296 924 q 298 522 300 657 q 290 256 296 386 q 275 10 283 126 l 164 -11 m 356 1174 l 24 1176 l 38 1243 l 365 1224 l 356 1174 z "},"Į":{"ha":431,"x_min":65,"x_max":300,"o":"m 164 -11 q 170 342 169 175 q 163 674 171 508 q 132 1019 154 840 l 288 1049 q 298 790 296 924 q 298 522 300 657 q 290 256 296 386 q 275 10 283 126 l 164 -11 m 278 -282 q 169 -265 218 -282 q 93 -218 121 -249 q 65 -149 65 -187 q 108 -58 65 -104 q 229 24 151 -12 l 275 10 q 159 -65 196 -29 q 122 -137 122 -101 q 167 -203 122 -181 q 283 -217 211 -225 l 278 -282 z "},"Ĩ":{"ha":431,"x_min":-31,"x_max":419,"o":"m 164 -11 q 170 342 169 175 q 163 674 171 508 q 132 1019 154 840 l 288 1049 q 298 790 296 924 q 298 522 300 657 q 290 256 296 386 q 275 10 283 126 l 164 -11 m 32 1160 l -31 1165 q -13 1266 -31 1228 q 33 1322 4 1304 q 94 1339 61 1339 q 153 1319 128 1339 q 201 1275 179 1300 q 247 1231 224 1250 q 297 1211 271 1211 q 351 1247 335 1211 q 364 1338 367 1283 l 419 1333 q 401 1230 419 1269 q 356 1173 382 1190 q 308 1156 331 1156 q 251 1175 278 1156 q 198 1219 224 1194 q 147 1264 172 1244 q 97 1283 122 1283 q 47 1248 64 1283 q 32 1160 31 1213 z "},"J":{"ha":644,"x_min":63,"x_max":514,"o":"m 506 424 q 467 230 499 311 q 381 97 436 149 q 248 20 325 44 q 72 -4 171 -4 l 63 146 q 126 134 97 138 q 178 131 154 131 q 319 167 275 131 q 374 267 363 203 q 386 417 386 332 q 383 560 386 481 q 371 751 381 639 q 339 1028 361 864 l 503 1067 q 513 734 511 900 q 506 424 514 568 z "},"K":{"ha":981,"x_min":132,"x_max":932,"o":"m 164 -11 q 170 342 169 175 q 163 674 171 508 q 132 1019 154 840 l 288 1049 q 299 790 296 924 q 300 520 301 656 q 293 254 299 385 q 279 7 288 124 l 164 -11 m 279 7 l 258 288 q 320 501 279 397 q 419 694 361 604 q 551 857 476 785 q 713 977 625 929 q 901 1042 801 1025 l 913 903 q 686 813 793 885 q 494 622 579 740 q 354 349 410 504 q 279 7 299 193 m 782 0 q 729 176 768 94 q 634 323 690 258 q 511 428 578 388 q 374 481 444 469 l 432 596 q 593 522 515 567 q 737 412 671 478 q 853 249 803 346 q 932 19 903 153 l 782 0 z "},"Ķ":{"ha":981,"x_min":132,"x_max":932,"o":"m 164 -11 q 170 342 169 175 q 163 674 171 508 q 132 1019 154 840 l 288 1049 q 299 790 296 924 q 300 520 301 656 q 293 254 299 385 q 279 7 288 124 l 164 -11 m 279 7 l 258 288 q 320 501 279 397 q 419 694 361 604 q 551 857 476 785 q 713 977 625 929 q 901 1042 801 1025 l 913 903 q 686 813 793 885 q 494 622 579 740 q 354 349 410 504 q 279 7 299 193 m 782 0 q 729 176 768 94 q 634 323 690 258 q 511 428 578 388 q 374 481 444 469 l 432 596 q 593 522 515 567 q 737 412 671 478 q 853 249 803 346 q 932 19 903 153 l 782 0 m 507 -328 l 464 -262 q 506 -222 489 -246 q 531 -172 524 -199 l 550 -185 l 469 -187 q 466 -132 467 -161 q 467 -78 465 -103 l 568 -81 q 567 -132 568 -107 q 565 -185 567 -157 q 551 -264 564 -232 q 507 -328 538 -296 z "},"L":{"ha":800,"x_min":132,"x_max":738,"o":"m 160 21 q 169 210 165 113 q 173 410 172 308 q 169 616 174 511 q 156 826 165 721 q 132 1035 147 931 l 285 1047 q 299 772 296 900 q 301 526 303 644 q 295 290 300 408 q 285 39 290 171 l 160 21 m 738 21 q 639 13 690 18 q 533 5 588 8 q 418 1 478 1 q 294 4 358 0 q 160 21 229 8 l 221 96 q 449 90 324 75 q 724 143 575 104 l 738 21 z "},"Ĺ":{"ha":800,"x_min":132,"x_max":738,"o":"m 160 21 q 169 210 165 113 q 173 410 172 308 q 169 616 174 511 q 156 826 165 721 q 132 1035 147 931 l 285 1047 q 299 772 296 900 q 301 526 303 644 q 295 290 300 408 q 285 39 290 171 l 160 21 m 738 21 q 639 13 690 18 q 533 5 588 8 q 418 1 478 1 q 294 4 358 0 q 160 21 229 8 l 221 96 q 449 90 324 75 q 724 143 575 104 l 738 21 m 285 1167 l 243 1200 l 482 1489 l 540 1432 l 285 1167 z "},"Ľ":{"ha":800,"x_min":132,"x_max":738,"o":"m 160 21 q 169 210 165 113 q 173 410 172 308 q 169 616 174 511 q 156 826 165 721 q 132 1035 147 931 l 285 1047 q 299 772 296 900 q 301 526 303 644 q 295 290 300 408 q 285 39 290 171 l 160 21 m 738 21 q 639 13 690 18 q 533 5 588 8 q 418 1 478 1 q 294 4 358 0 q 160 21 229 8 l 221 96 q 449 90 324 75 q 724 143 575 104 l 738 21 m 582 796 l 574 1074 l 660 1081 l 642 810 l 582 796 z "},"Ļ":{"ha":800,"x_min":132,"x_max":738,"o":"m 160 21 q 169 210 165 113 q 173 410 172 308 q 169 616 174 511 q 156 826 165 721 q 132 1035 147 931 l 285 1047 q 299 772 296 900 q 301 526 303 644 q 295 290 300 408 q 285 39 290 171 l 160 21 m 738 21 q 639 13 690 18 q 533 5 588 8 q 418 1 478 1 q 294 4 358 0 q 160 21 229 8 l 221 96 q 449 90 324 75 q 724 143 575 104 l 738 21 m 472 -369 l 429 -304 q 472 -264 454 -287 q 496 -214 489 -240 l 515 -226 l 435 -229 q 431 -174 432 -203 q 432 -119 431 -144 l 533 -122 q 533 -174 533 -149 q 531 -226 532 -199 q 516 -306 529 -274 q 472 -369 503 -337 z "},"Ł":{"ha":800,"x_min":-7,"x_max":738,"o":"m 49 244 l -7 346 l 511 686 l 554 610 l 49 244 m 160 21 q 169 210 165 113 q 173 410 172 308 q 169 616 174 511 q 156 826 165 721 q 132 1035 147 931 l 285 1047 q 299 772 296 900 q 301 526 303 644 q 295 290 300 408 q 285 39 290 171 l 160 21 m 738 21 q 639 13 690 18 q 533 5 588 8 q 418 1 478 1 q 294 4 358 0 q 160 21 229 8 l 221 96 q 449 90 324 75 q 724 143 575 104 l 738 21 z "},"M":{"ha":1639,"x_min":132,"x_max":1510,"o":"m 164 -11 q 169 256 168 128 q 168 508 171 385 q 157 758 165 632 q 132 1019 149 885 l 288 1049 q 297 843 294 949 q 300 629 300 738 q 298 415 300 521 q 291 206 296 308 q 279 10 286 104 l 164 -11 m 722 -7 q 734 172 731 79 q 735 356 738 264 q 726 535 733 449 q 703 695 718 621 q 667 826 689 769 q 613 913 644 882 q 540 944 582 944 q 426 866 481 944 q 335 646 371 788 q 294 317 299 504 l 207 318 q 264 679 229 536 q 345 905 299 822 q 450 1022 392 988 q 578 1056 508 1056 q 719 1003 663 1056 q 808 856 775 951 q 856 631 840 761 q 873 346 871 501 q 869 18 875 190 l 722 -7 m 1351 -3 q 1363 203 1361 101 q 1358 399 1364 304 q 1341 576 1353 493 q 1310 726 1329 658 q 1266 842 1290 793 q 1210 918 1242 892 q 1143 944 1179 944 q 1070 913 1104 944 q 1008 822 1036 881 q 958 680 981 763 q 917 494 935 597 q 888 270 900 390 q 869 18 876 150 l 817 240 q 826 395 818 308 q 849 574 833 482 q 892 754 865 667 q 956 911 918 842 q 1045 1022 994 981 q 1161 1064 1096 1064 q 1313 1005 1250 1064 q 1416 843 1375 946 q 1478 607 1457 740 q 1504 323 1499 474 q 1501 19 1510 172 l 1351 -3 z "},"N":{"ha":1138,"x_min":132,"x_max":1010,"o":"m 767 0 q 652 38 710 0 q 539 140 594 75 q 433 287 483 204 q 338 460 382 369 q 262 643 294 551 q 208 815 229 735 l 286 1010 q 340 817 310 919 q 406 610 369 714 q 484 412 443 506 q 569 244 525 318 q 661 128 614 171 q 757 85 708 85 q 838 132 810 85 q 874 260 865 179 q 876 444 882 342 q 853 656 869 546 q 813 874 836 767 q 767 1069 790 981 l 914 1111 q 951 960 932 1050 q 984 767 969 871 q 1004 555 999 663 q 1001 348 1010 447 q 967 170 993 249 q 892 46 940 92 q 767 0 843 0 m 281 0 l 132 0 q 152 496 151 240 q 142 989 153 751 l 286 1010 l 258 822 q 266 630 263 732 q 272 427 269 528 q 276 238 275 326 q 279 88 278 150 q 281 0 281 25 z "},"Ń":{"ha":1138,"x_min":132,"x_max":1010,"o":"m 767 0 q 652 38 710 0 q 539 140 594 75 q 433 287 483 204 q 338 460 382 369 q 262 643 294 551 q 208 815 229 735 l 286 1010 q 340 817 310 919 q 406 610 369 714 q 484 412 443 506 q 569 244 525 318 q 661 128 614 171 q 757 85 708 85 q 838 132 810 85 q 874 260 865 179 q 876 444 882 342 q 853 656 869 546 q 813 874 836 767 q 767 1069 790 981 l 914 1111 q 951 960 932 1050 q 984 767 969 871 q 1004 555 999 663 q 1001 348 1010 447 q 967 170 993 249 q 892 46 940 92 q 767 0 843 0 m 281 0 l 132 0 q 152 496 151 240 q 142 989 153 751 l 286 1010 l 258 822 q 266 630 263 732 q 272 427 269 528 q 276 238 275 326 q 279 88 278 150 q 281 0 281 25 m 514 1167 l 472 1200 l 711 1489 l 769 1432 l 514 1167 z "},"Ň":{"ha":1138,"x_min":132,"x_max":1010,"o":"m 767 0 q 652 38 710 0 q 539 140 594 75 q 433 287 483 204 q 338 460 382 369 q 262 643 294 551 q 208 815 229 735 l 286 1010 q 340 817 310 919 q 406 610 369 714 q 484 412 443 506 q 569 244 525 318 q 661 128 614 171 q 757 85 708 85 q 838 132 810 85 q 874 260 865 179 q 876 444 882 342 q 853 656 869 546 q 813 874 836 767 q 767 1069 790 981 l 914 1111 q 951 960 932 1050 q 984 767 969 871 q 1004 555 999 663 q 1001 348 1010 447 q 967 170 993 249 q 892 46 940 92 q 767 0 843 0 m 281 0 l 132 0 q 152 496 151 240 q 142 989 153 751 l 286 1010 l 258 822 q 266 630 263 732 q 272 427 269 528 q 276 238 275 326 q 279 88 278 150 q 281 0 281 25 m 368 1429 l 531 1221 l 514 1143 l 289 1388 l 368 1429 m 660 1429 l 739 1388 l 514 1143 l 497 1221 l 660 1429 z "},"Ņ":{"ha":1138,"x_min":132,"x_max":1010,"o":"m 767 0 q 652 38 710 0 q 539 140 594 75 q 433 287 483 204 q 338 460 382 369 q 262 643 294 551 q 208 815 229 735 l 286 1010 q 340 817 310 919 q 406 610 369 714 q 484 412 443 506 q 569 244 525 318 q 661 128 614 171 q 757 85 708 85 q 838 132 810 85 q 874 260 865 179 q 876 444 882 342 q 853 656 869 546 q 813 874 836 767 q 767 1069 790 981 l 914 1111 q 951 960 932 1050 q 984 767 969 871 q 1004 555 999 663 q 1001 348 1010 447 q 967 170 993 249 q 892 46 940 92 q 767 0 843 0 m 281 0 l 132 0 q 152 496 151 240 q 142 989 153 751 l 286 1010 l 258 822 q 266 630 263 732 q 272 427 269 528 q 276 238 275 326 q 279 88 278 150 q 281 0 281 25 m 590 -369 l 547 -304 q 590 -264 572 -287 q 614 -214 607 -240 l 633 -226 l 553 -229 q 549 -174 550 -203 q 550 -119 549 -144 l 651 -122 q 651 -174 651 -149 q 649 -226 650 -199 q 634 -306 647 -274 q 590 -369 621 -337 z "},"Ñ":{"ha":1138,"x_min":132,"x_max":1010,"o":"m 767 0 q 652 38 710 0 q 539 140 594 75 q 433 287 483 204 q 338 460 382 369 q 262 643 294 551 q 208 815 229 735 l 286 1010 q 340 817 310 919 q 406 610 369 714 q 484 412 443 506 q 569 244 525 318 q 661 128 614 171 q 757 85 708 85 q 838 132 810 85 q 874 260 865 179 q 876 444 882 342 q 853 656 869 546 q 813 874 836 767 q 767 1069 790 981 l 914 1111 q 951 960 932 1050 q 984 767 969 871 q 1004 555 999 663 q 1001 348 1010 447 q 967 170 993 249 q 892 46 940 92 q 767 0 843 0 m 281 0 l 132 0 q 152 496 151 240 q 142 989 153 751 l 286 1010 l 258 822 q 266 630 263 732 q 272 427 269 528 q 276 238 275 326 q 279 88 278 150 q 281 0 281 25 m 351 1160 l 289 1165 q 306 1266 289 1228 q 352 1322 324 1304 q 414 1339 381 1339 q 473 1319 447 1339 q 521 1275 499 1300 q 567 1231 543 1250 q 617 1211 590 1211 q 670 1247 654 1211 q 683 1338 686 1283 l 739 1333 q 720 1230 739 1269 q 676 1173 701 1190 q 628 1156 650 1156 q 570 1175 597 1156 q 517 1219 543 1194 q 467 1264 492 1244 q 417 1283 442 1283 q 367 1248 383 1283 q 351 1160 350 1213 z "},"Ŋ":{"ha":1157,"x_min":132,"x_max":1026,"o":"m 132 0 q 152 496 151 240 q 142 989 153 751 l 286 1010 l 258 822 q 266 630 263 732 q 272 427 269 528 q 276 238 275 326 q 279 88 278 150 q 281 0 281 25 l 132 0 m 919 0 q 794 38 863 0 q 652 140 725 75 q 509 287 579 204 q 378 460 439 369 q 273 643 317 551 q 208 815 229 735 l 286 1010 q 351 817 310 919 q 446 610 392 714 q 560 412 500 506 q 683 244 621 318 q 803 128 744 171 q 910 85 861 85 l 919 0 m 583 -421 l 574 -271 q 637 -283 608 -279 q 689 -286 665 -286 q 802 -265 761 -286 q 863 -203 843 -243 q 889 -104 882 -162 q 899 28 896 -46 q 897 268 903 139 q 878 535 892 397 q 843 810 864 674 q 796 1069 822 946 l 946 1108 q 978 880 964 1006 q 1004 624 993 754 q 1021 372 1015 493 q 1026 156 1026 251 q 1017 7 1025 61 q 967 -185 1000 -104 q 881 -319 933 -267 q 756 -396 829 -371 q 583 -421 682 -421 z "},"O":{"ha":1111,"x_min":90,"x_max":1021,"o":"m 557 -18 q 353 26 440 -18 q 207 147 265 71 q 119 317 149 222 q 90 511 90 411 q 120 709 90 613 q 208 883 150 806 q 353 1008 267 961 q 554 1054 440 1054 q 757 1008 669 1054 q 903 885 844 963 q 991 713 961 808 q 1021 517 1021 617 q 992 321 1021 417 q 903 149 963 225 q 758 27 844 72 q 557 -18 672 -18 m 564 99 q 715 138 651 99 q 819 244 778 178 q 881 392 861 311 q 901 556 901 472 q 879 717 901 640 q 814 855 857 794 q 706 951 771 915 q 556 986 642 986 q 364 926 439 986 q 253 769 289 867 q 217 558 217 672 q 240 384 217 467 q 308 238 264 301 q 417 136 353 174 q 564 99 482 99 z "},"Ó":{"ha":1111,"x_min":90,"x_max":1021,"o":"m 557 -18 q 353 26 440 -18 q 207 147 265 71 q 119 317 149 222 q 90 511 90 411 q 120 709 90 613 q 208 883 150 806 q 353 1008 267 961 q 554 1054 440 1054 q 757 1008 669 1054 q 903 885 844 963 q 991 713 961 808 q 1021 517 1021 617 q 992 321 1021 417 q 903 149 963 225 q 758 27 844 72 q 557 -18 672 -18 m 564 99 q 715 138 651 99 q 819 244 778 178 q 881 392 861 311 q 901 556 901 472 q 879 717 901 640 q 814 855 857 794 q 706 951 771 915 q 556 986 642 986 q 364 926 439 986 q 253 769 289 867 q 217 558 217 672 q 240 384 217 467 q 308 238 264 301 q 417 136 353 174 q 564 99 482 99 m 554 1167 l 513 1200 l 751 1489 l 810 1432 l 554 1167 z "},"Ô":{"ha":1111,"x_min":90,"x_max":1021,"o":"m 557 -18 q 353 26 440 -18 q 207 147 265 71 q 119 317 149 222 q 90 511 90 411 q 120 709 90 613 q 208 883 150 806 q 353 1008 267 961 q 554 1054 440 1054 q 757 1008 669 1054 q 903 885 844 963 q 991 713 961 808 q 1021 517 1021 617 q 992 321 1021 417 q 903 149 963 225 q 758 27 844 72 q 557 -18 672 -18 m 564 99 q 715 138 651 99 q 819 244 778 178 q 881 392 861 311 q 901 556 901 472 q 879 717 901 640 q 814 855 857 794 q 706 951 771 915 q 556 986 642 986 q 364 926 439 986 q 253 769 289 867 q 217 558 217 672 q 240 384 217 467 q 308 238 264 301 q 417 136 353 174 q 564 99 482 99 m 408 1147 l 329 1189 l 554 1433 l 571 1356 l 408 1147 m 700 1147 l 538 1356 l 554 1433 l 779 1189 l 700 1147 z "},"Ö":{"ha":1111,"x_min":90,"x_max":1021,"o":"m 557 -18 q 353 26 440 -18 q 207 147 265 71 q 119 317 149 222 q 90 511 90 411 q 120 709 90 613 q 208 883 150 806 q 353 1008 267 961 q 554 1054 440 1054 q 757 1008 669 1054 q 903 885 844 963 q 991 713 961 808 q 1021 517 1021 617 q 992 321 1021 417 q 903 149 963 225 q 758 27 844 72 q 557 -18 672 -18 m 564 99 q 715 138 651 99 q 819 244 778 178 q 881 392 861 311 q 901 556 901 472 q 879 717 901 640 q 814 855 857 794 q 706 951 771 915 q 556 986 642 986 q 364 926 439 986 q 253 769 289 867 q 217 558 217 672 q 240 384 217 467 q 308 238 264 301 q 417 136 353 174 q 564 99 482 99 m 385 1168 q 381 1238 382 1200 q 382 1306 381 1275 l 510 1303 q 508 1238 510 1268 q 507 1171 506 1207 l 385 1168 m 607 1168 q 603 1238 604 1200 q 604 1306 603 1275 l 732 1303 q 730 1238 732 1268 q 729 1171 728 1207 l 607 1168 z "},"Ò":{"ha":1111,"x_min":90,"x_max":1021,"o":"m 557 -18 q 353 26 440 -18 q 207 147 265 71 q 119 317 149 222 q 90 511 90 411 q 120 709 90 613 q 208 883 150 806 q 353 1008 267 961 q 554 1054 440 1054 q 757 1008 669 1054 q 903 885 844 963 q 991 713 961 808 q 1021 517 1021 617 q 992 321 1021 417 q 903 149 963 225 q 758 27 844 72 q 557 -18 672 -18 m 564 99 q 715 138 651 99 q 819 244 778 178 q 881 392 861 311 q 901 556 901 472 q 879 717 901 640 q 814 855 857 794 q 706 951 771 915 q 556 986 642 986 q 364 926 439 986 q 253 769 289 867 q 217 558 217 672 q 240 384 217 467 q 308 238 264 301 q 417 136 353 174 q 564 99 482 99 m 551 1167 l 297 1432 l 356 1489 l 593 1200 l 551 1167 z "},"Ő":{"ha":1111,"x_min":90,"x_max":1021,"o":"m 557 -18 q 353 26 440 -18 q 207 147 265 71 q 119 317 149 222 q 90 511 90 411 q 120 709 90 613 q 208 883 150 806 q 353 1008 267 961 q 554 1054 440 1054 q 757 1008 669 1054 q 903 885 844 963 q 991 713 961 808 q 1021 517 1021 617 q 992 321 1021 417 q 903 149 963 225 q 758 27 844 72 q 557 -18 672 -18 m 564 99 q 715 138 651 99 q 819 244 778 178 q 881 392 861 311 q 901 556 901 472 q 879 717 901 640 q 814 855 857 794 q 706 951 771 915 q 556 986 642 986 q 364 926 439 986 q 253 769 289 867 q 217 558 217 672 q 240 384 217 467 q 308 238 264 301 q 417 136 353 174 q 564 99 482 99 m 360 1167 l 318 1200 l 557 1489 l 615 1432 l 360 1167 m 624 1168 l 582 1201 l 821 1490 l 879 1433 l 624 1168 z "},"Ō":{"ha":1111,"x_min":90,"x_max":1021,"o":"m 557 -18 q 353 26 440 -18 q 207 147 265 71 q 119 317 149 222 q 90 511 90 411 q 120 709 90 613 q 208 883 150 806 q 353 1008 267 961 q 554 1054 440 1054 q 757 1008 669 1054 q 903 885 844 963 q 991 713 961 808 q 1021 517 1021 617 q 992 321 1021 417 q 903 149 963 225 q 758 27 844 72 q 557 -18 672 -18 m 564 99 q 715 138 651 99 q 819 244 778 178 q 881 392 861 311 q 901 556 901 472 q 879 717 901 640 q 814 855 857 794 q 706 951 771 915 q 556 986 642 986 q 364 926 439 986 q 253 769 289 867 q 217 558 217 672 q 240 384 217 467 q 308 238 264 301 q 417 136 353 174 q 564 99 482 99 m 715 1174 l 383 1176 l 397 1243 l 725 1224 l 715 1174 z "},"Ø":{"ha":1111,"x_min":90,"x_max":1021,"o":"m 274 -81 l 192 -40 l 810 1094 l 890 1056 l 274 -81 m 557 -18 q 353 26 440 -18 q 207 147 265 71 q 119 317 149 222 q 90 511 90 411 q 120 709 90 613 q 208 883 150 806 q 353 1008 267 961 q 554 1054 440 1054 q 757 1008 669 1054 q 903 885 844 963 q 991 713 961 808 q 1021 517 1021 617 q 992 321 1021 417 q 903 149 963 225 q 758 27 844 72 q 557 -18 672 -18 m 564 99 q 715 138 651 99 q 819 244 778 178 q 881 392 861 311 q 901 556 901 472 q 879 717 901 640 q 814 855 857 794 q 706 951 771 915 q 556 986 642 986 q 364 926 439 986 q 253 769 289 867 q 217 558 217 672 q 240 384 217 467 q 308 238 264 301 q 417 136 353 174 q 564 99 482 99 z "},"Õ":{"ha":1111,"x_min":90,"x_max":1021,"o":"m 557 -18 q 353 26 440 -18 q 207 147 265 71 q 119 317 149 222 q 90 511 90 411 q 120 709 90 613 q 208 883 150 806 q 353 1008 267 961 q 554 1054 440 1054 q 757 1008 669 1054 q 903 885 844 963 q 991 713 961 808 q 1021 517 1021 617 q 992 321 1021 417 q 903 149 963 225 q 758 27 844 72 q 557 -18 672 -18 m 564 99 q 715 138 651 99 q 819 244 778 178 q 881 392 861 311 q 901 556 901 472 q 879 717 901 640 q 814 855 857 794 q 706 951 771 915 q 556 986 642 986 q 364 926 439 986 q 253 769 289 867 q 217 558 217 672 q 240 384 217 467 q 308 238 264 301 q 417 136 353 174 q 564 99 482 99 m 392 1160 l 329 1165 q 347 1266 329 1228 q 392 1322 364 1304 q 454 1339 421 1339 q 513 1319 488 1339 q 561 1275 539 1300 q 607 1231 583 1250 q 657 1211 631 1211 q 710 1247 694 1211 q 724 1338 726 1283 l 779 1333 q 760 1230 779 1269 q 716 1173 742 1190 q 668 1156 690 1156 q 610 1175 638 1156 q 558 1219 583 1194 q 507 1264 532 1244 q 457 1283 482 1283 q 407 1248 424 1283 q 392 1160 390 1213 z "},"Œ":{"ha":1457,"x_min":90,"x_max":1394,"o":"m 572 -3 q 392 32 478 -3 q 238 132 306 67 q 130 289 169 197 q 90 494 90 381 q 137 745 90 642 q 260 913 183 849 q 428 1008 336 978 q 613 1039 521 1039 q 722 1028 669 1039 q 821 999 775 1018 l 803 886 q 710 910 757 903 q 619 918 664 918 q 424 865 513 918 q 282 716 335 813 q 229 490 229 619 q 278 270 229 360 q 406 135 328 181 q 568 89 483 89 q 714 104 653 89 q 838 151 775 119 l 839 64 q 708 11 775 25 q 572 -3 640 -3 m 739 21 q 747 216 744 113 q 748 428 749 319 q 744 642 747 536 q 733 844 740 747 q 717 1022 726 942 l 869 1026 q 878 804 876 907 q 880 608 881 701 q 876 425 879 515 q 870 240 874 335 q 864 39 867 146 l 739 21 m 1394 -7 q 1258 -5 1340 -7 q 1081 1 1175 -3 q 897 10 988 4 q 739 21 807 15 l 800 101 q 927 92 856 93 q 1078 93 999 90 q 1239 102 1158 96 q 1394 115 1319 108 l 1394 -7 m 1240 450 q 1050 461 1146 460 q 829 453 954 463 l 829 535 q 1046 555 940 550 q 1236 561 1151 560 l 1240 450 m 1371 950 q 1215 964 1296 961 q 1060 964 1135 967 q 924 956 985 961 q 829 946 864 950 l 717 1022 q 828 1034 761 1028 q 972 1046 896 1040 q 1124 1056 1049 1051 q 1265 1065 1200 1061 q 1371 1069 1329 1068 l 1371 950 z "},"P":{"ha":967,"x_min":132,"x_max":876,"o":"m 164 -6 q 169 270 168 132 q 165 540 169 408 q 153 792 161 672 q 132 1014 144 913 l 285 1039 q 294 812 290 919 q 300 603 299 704 q 301 404 301 503 q 299 206 301 306 q 294 0 297 107 l 164 -6 m 268 288 l 222 360 q 470 460 371 407 q 628 569 569 513 q 713 683 688 625 q 738 799 738 742 q 723 874 738 838 q 676 933 708 910 q 590 956 644 956 q 469 924 535 956 q 349 824 404 892 q 268 650 294 757 l 233 749 q 310 913 261 844 q 417 1024 358 981 q 534 1088 476 1067 q 639 1108 592 1108 q 768 1072 715 1108 q 849 974 821 1036 q 876 832 876 911 q 815 621 876 719 q 621 439 754 522 q 268 288 488 356 z "},"Þ":{"ha":964,"x_min":132,"x_max":874,"o":"m 149 -6 q 139 222 143 114 q 133 430 135 329 q 132 629 132 531 q 134 828 132 728 q 139 1033 136 928 l 269 1039 q 265 763 265 901 q 268 493 264 625 q 281 241 272 361 q 301 19 289 121 l 149 -6 m 228 250 l 217 326 q 496 364 382 326 q 668 461 610 401 q 726 588 726 521 q 694 681 726 649 q 607 724 661 714 q 487 730 553 735 q 353 712 421 725 q 229 685 286 699 l 229 758 q 428 811 344 796 q 588 826 513 826 q 735 797 671 826 q 837 715 800 768 q 874 588 874 661 q 825 453 874 515 q 689 346 776 392 q 483 275 601 300 q 228 250 365 250 z "},"Q":{"ha":1111,"x_min":90,"x_max":1021,"o":"m 875 -185 q 756 -53 801 -122 q 695 103 711 17 q 693 301 679 190 l 764 292 q 780 147 763 218 q 844 15 797 76 q 979 -96 892 -47 l 875 -185 m 557 1060 q 758 1015 672 1060 q 903 893 844 969 q 992 721 963 817 q 1021 525 1021 625 q 991 329 1021 425 q 903 156 961 233 q 757 33 844 79 q 554 -12 669 -12 q 353 34 440 -12 q 208 158 267 81 q 120 333 150 236 q 90 531 90 429 q 119 725 90 631 q 207 895 149 819 q 353 1015 265 971 q 557 1060 440 1060 m 564 943 q 417 906 482 943 q 308 804 353 868 q 240 658 264 740 q 217 483 217 575 q 253 272 217 369 q 364 115 289 175 q 556 56 439 56 q 706 91 642 56 q 814 187 771 126 q 879 324 857 247 q 901 486 901 401 q 881 650 901 569 q 819 797 861 731 q 715 903 778 864 q 564 943 651 943 z "},"R":{"ha":958,"x_min":132,"x_max":910,"o":"m 268 329 l 222 396 q 470 493 371 443 q 628 594 569 543 q 713 697 688 646 q 738 799 738 749 q 723 878 738 838 q 676 948 708 919 q 590 976 644 976 q 469 943 535 976 q 349 840 404 910 q 268 664 294 771 l 233 749 q 310 910 261 844 q 417 1017 358 976 q 534 1076 476 1057 q 639 1094 592 1094 q 768 1063 715 1094 q 849 978 821 1031 q 876 860 876 925 q 815 652 876 747 q 621 477 754 557 q 268 329 488 397 m 164 -6 q 169 270 168 132 q 165 540 169 408 q 153 792 161 672 q 132 1014 144 913 l 285 1039 q 294 812 290 919 q 300 603 299 704 q 301 404 301 503 q 299 206 301 306 q 294 0 297 107 l 164 -6 m 760 -28 q 678 174 735 89 q 540 308 622 258 q 351 365 457 357 l 396 453 q 565 409 486 436 q 710 333 644 382 q 826 201 775 283 q 910 -8 876 119 l 760 -28 z "},"Ŕ":{"ha":958,"x_min":132,"x_max":910,"o":"m 268 329 l 222 396 q 470 493 371 443 q 628 594 569 543 q 713 697 688 646 q 738 799 738 749 q 723 878 738 838 q 676 948 708 919 q 590 976 644 976 q 469 943 535 976 q 349 840 404 910 q 268 664 294 771 l 233 749 q 310 910 261 844 q 417 1017 358 976 q 534 1076 476 1057 q 639 1094 592 1094 q 768 1063 715 1094 q 849 978 821 1031 q 876 860 876 925 q 815 652 876 747 q 621 477 754 557 q 268 329 488 397 m 164 -6 q 169 270 168 132 q 165 540 169 408 q 153 792 161 672 q 132 1014 144 913 l 285 1039 q 294 812 290 919 q 300 603 299 704 q 301 404 301 503 q 299 206 301 306 q 294 0 297 107 l 164 -6 m 760 -28 q 678 174 735 89 q 540 308 622 258 q 351 365 457 357 l 396 453 q 565 409 486 436 q 710 333 644 382 q 826 201 775 283 q 910 -8 876 119 l 760 -28 m 469 1167 l 428 1200 l 667 1489 l 725 1432 l 469 1167 z "},"Ř":{"ha":958,"x_min":132,"x_max":910,"o":"m 268 329 l 222 396 q 470 493 371 443 q 628 594 569 543 q 713 697 688 646 q 738 799 738 749 q 723 878 738 838 q 676 948 708 919 q 590 976 644 976 q 469 943 535 976 q 349 840 404 910 q 268 664 294 771 l 233 749 q 310 910 261 844 q 417 1017 358 976 q 534 1076 476 1057 q 639 1094 592 1094 q 768 1063 715 1094 q 849 978 821 1031 q 876 860 876 925 q 815 652 876 747 q 621 477 754 557 q 268 329 488 397 m 164 -6 q 169 270 168 132 q 165 540 169 408 q 153 792 161 672 q 132 1014 144 913 l 285 1039 q 294 812 290 919 q 300 603 299 704 q 301 404 301 503 q 299 206 301 306 q 294 0 297 107 l 164 -6 m 760 -28 q 678 174 735 89 q 540 308 622 258 q 351 365 457 357 l 396 453 q 565 409 486 436 q 710 333 644 382 q 826 201 775 283 q 910 -8 876 119 l 760 -28 m 324 1429 l 486 1221 l 469 1143 l 244 1388 l 324 1429 m 615 1429 l 694 1388 l 469 1143 l 453 1221 l 615 1429 z "},"Ŗ":{"ha":958,"x_min":132,"x_max":910,"o":"m 268 329 l 222 396 q 470 493 371 443 q 628 594 569 543 q 713 697 688 646 q 738 799 738 749 q 723 878 738 838 q 676 948 708 919 q 590 976 644 976 q 469 943 535 976 q 349 840 404 910 q 268 664 294 771 l 233 749 q 310 910 261 844 q 417 1017 358 976 q 534 1076 476 1057 q 639 1094 592 1094 q 768 1063 715 1094 q 849 978 821 1031 q 876 860 876 925 q 815 652 876 747 q 621 477 754 557 q 268 329 488 397 m 164 -6 q 169 270 168 132 q 165 540 169 408 q 153 792 161 672 q 132 1014 144 913 l 285 1039 q 294 812 290 919 q 300 603 299 704 q 301 404 301 503 q 299 206 301 306 q 294 0 297 107 l 164 -6 m 760 -28 q 678 174 735 89 q 540 308 622 258 q 351 365 457 357 l 396 453 q 565 409 486 436 q 710 333 644 382 q 826 201 775 283 q 910 -8 876 119 l 760 -28 m 460 -328 l 417 -262 q 459 -222 442 -246 q 483 -172 476 -199 l 503 -185 l 422 -187 q 419 -132 419 -161 q 419 -78 418 -103 l 521 -81 q 520 -132 521 -107 q 518 -185 519 -157 q 503 -264 517 -232 q 460 -328 490 -296 z "},"S":{"ha":904,"x_min":63,"x_max":842,"o":"m 461 -15 q 268 3 369 -15 q 63 56 167 22 l 94 158 q 238 98 178 117 q 348 74 299 79 q 444 69 397 69 q 558 95 501 69 q 651 169 614 121 q 689 288 689 218 q 658 377 689 339 q 575 445 626 415 q 463 501 524 475 q 340 553 401 526 q 228 613 279 581 q 145 689 176 646 q 114 792 114 732 q 144 916 114 864 q 227 1001 175 968 q 344 1051 279 1035 q 476 1067 408 1067 q 644 1042 563 1067 q 776 974 725 1018 l 750 879 q 606 958 682 932 q 472 983 529 983 q 319 949 381 983 q 257 838 257 914 q 289 723 257 768 q 373 647 321 678 q 488 592 425 615 q 612 546 550 569 q 726 491 674 522 q 810 413 778 460 q 842 294 842 365 q 794 123 842 192 q 660 19 746 54 q 461 -15 575 -15 z "},"Ś":{"ha":904,"x_min":63,"x_max":842,"o":"m 461 -15 q 268 3 369 -15 q 63 56 167 22 l 94 158 q 238 98 178 117 q 348 74 299 79 q 444 69 397 69 q 558 95 501 69 q 651 169 614 121 q 689 288 689 218 q 658 377 689 339 q 575 445 626 415 q 463 501 524 475 q 340 553 401 526 q 228 613 279 581 q 145 689 176 646 q 114 792 114 732 q 144 916 114 864 q 227 1001 175 968 q 344 1051 279 1035 q 476 1067 408 1067 q 644 1042 563 1067 q 776 974 725 1018 l 750 879 q 606 958 682 932 q 472 983 529 983 q 319 949 381 983 q 257 838 257 914 q 289 723 257 768 q 373 647 321 678 q 488 592 425 615 q 612 546 550 569 q 726 491 674 522 q 810 413 778 460 q 842 294 842 365 q 794 123 842 192 q 660 19 746 54 q 461 -15 575 -15 m 482 1167 l 440 1200 l 679 1489 l 738 1432 l 482 1167 z "},"Š":{"ha":904,"x_min":63,"x_max":842,"o":"m 461 -15 q 268 3 369 -15 q 63 56 167 22 l 94 158 q 238 98 178 117 q 348 74 299 79 q 444 69 397 69 q 558 95 501 69 q 651 169 614 121 q 689 288 689 218 q 658 377 689 339 q 575 445 626 415 q 463 501 524 475 q 340 553 401 526 q 228 613 279 581 q 145 689 176 646 q 114 792 114 732 q 144 916 114 864 q 227 1001 175 968 q 344 1051 279 1035 q 476 1067 408 1067 q 644 1042 563 1067 q 776 974 725 1018 l 750 879 q 606 958 682 932 q 472 983 529 983 q 319 949 381 983 q 257 838 257 914 q 289 723 257 768 q 373 647 321 678 q 488 592 425 615 q 612 546 550 569 q 726 491 674 522 q 810 413 778 460 q 842 294 842 365 q 794 123 842 192 q 660 19 746 54 q 461 -15 575 -15 m 336 1429 l 499 1221 l 482 1143 l 257 1388 l 336 1429 m 628 1429 l 707 1388 l 482 1143 l 465 1221 l 628 1429 z "},"Ş":{"ha":904,"x_min":63,"x_max":842,"o":"m 461 -15 q 268 3 369 -15 q 63 56 167 22 l 94 158 q 238 98 178 117 q 348 74 299 79 q 444 69 397 69 q 558 95 501 69 q 651 169 614 121 q 689 288 689 218 q 658 377 689 339 q 575 445 626 415 q 463 501 524 475 q 340 553 401 526 q 228 613 279 581 q 145 689 176 646 q 114 792 114 732 q 144 916 114 864 q 227 1001 175 968 q 344 1051 279 1035 q 476 1067 408 1067 q 644 1042 563 1067 q 776 974 725 1018 l 750 879 q 606 958 682 932 q 472 983 529 983 q 319 949 381 983 q 257 838 257 914 q 289 723 257 768 q 373 647 321 678 q 488 592 425 615 q 612 546 550 569 q 726 491 674 522 q 810 413 778 460 q 842 294 842 365 q 794 123 842 192 q 660 19 746 54 q 461 -15 575 -15 m 375 -290 l 376 -231 q 430 -239 401 -236 q 485 -237 458 -242 q 528 -217 511 -232 q 544 -176 544 -203 q 530 -131 544 -147 q 492 -108 515 -115 q 440 -99 468 -100 q 386 -97 413 -97 l 417 -39 q 510 -57 471 -39 q 572 -104 550 -75 q 594 -169 594 -133 q 572 -241 594 -214 q 515 -281 550 -268 q 443 -294 481 -293 q 375 -290 406 -296 m 371 -97 l 421 25 l 489 28 l 404 -97 l 371 -97 z "},"Ș":{"ha":904,"x_min":63,"x_max":842,"o":"m 461 -15 q 268 3 369 -15 q 63 56 167 22 l 94 158 q 238 98 178 117 q 348 74 299 79 q 444 69 397 69 q 558 95 501 69 q 651 169 614 121 q 689 288 689 218 q 658 377 689 339 q 575 445 626 415 q 463 501 524 475 q 340 553 401 526 q 228 613 279 581 q 145 689 176 646 q 114 792 114 732 q 144 916 114 864 q 227 1001 175 968 q 344 1051 279 1035 q 476 1067 408 1067 q 644 1042 563 1067 q 776 974 725 1018 l 750 879 q 606 958 682 932 q 472 983 529 983 q 319 949 381 983 q 257 838 257 914 q 289 723 257 768 q 373 647 321 678 q 488 592 425 615 q 612 546 550 569 q 726 491 674 522 q 810 413 778 460 q 842 294 842 365 q 794 123 842 192 q 660 19 746 54 q 461 -15 575 -15 m 456 -385 l 413 -319 q 455 -279 438 -303 q 479 -229 472 -256 l 499 -242 l 418 -244 q 415 -189 415 -218 q 415 -135 414 -160 l 517 -137 q 516 -189 517 -164 q 514 -242 515 -214 q 499 -321 513 -289 q 456 -385 486 -353 z "},"ẞ":{"ha":1136,"x_min":126,"x_max":1046,"o":"m 136 -11 q 142 384 143 204 q 133 694 142 564 q 159 875 126 803 q 249 989 192 947 q 378 1049 307 1031 q 521 1067 450 1067 q 735 1040 638 1067 q 904 968 832 1014 l 831 911 q 723 949 782 933 q 608 974 664 965 q 511 983 551 983 q 392 963 447 983 q 303 888 336 943 q 272 726 269 833 q 274 518 275 639 q 267 265 272 397 q 251 10 261 133 l 136 -11 m 356 11 l 364 114 q 510 94 432 103 q 664 89 589 86 q 801 110 739 92 q 901 170 864 129 q 938 281 938 211 q 907 385 938 343 q 825 451 876 426 q 711 486 774 476 q 583 493 649 496 q 457 478 517 490 l 506 556 q 657 581 581 575 q 803 573 733 586 q 927 526 872 560 q 1014 434 982 492 q 1046 292 1046 376 q 1015 153 1046 211 q 932 59 985 96 q 810 3 879 22 q 664 -21 742 -17 q 508 -16 586 -25 q 356 11 429 -7 m 457 478 q 547 667 493 571 q 671 851 601 763 q 822 1007 740 939 l 904 968 q 722 748 807 868 q 585 503 636 628 l 457 478 z "},"T":{"ha":951,"x_min":63,"x_max":889,"o":"m 426 -11 q 433 342 432 175 q 425 674 433 508 q 394 1019 417 840 l 550 1049 q 561 790 558 924 q 563 522 564 657 q 556 256 561 386 q 542 10 550 126 l 426 -11 m 888 958 l 68 964 l 63 1042 l 889 1064 l 888 958 z "},"Ť":{"ha":951,"x_min":63,"x_max":889,"o":"m 426 -11 q 433 342 432 175 q 425 674 433 508 q 394 1019 417 840 l 550 1049 q 561 790 558 924 q 563 522 564 657 q 556 256 561 386 q 542 10 550 126 l 426 -11 m 888 958 l 68 964 l 63 1042 l 889 1064 l 888 958 m 333 1429 l 496 1221 l 479 1143 l 254 1388 l 333 1429 m 625 1429 l 704 1388 l 479 1143 l 463 1221 l 625 1429 z "},"Ţ":{"ha":951,"x_min":63,"x_max":889,"o":"m 426 -11 q 433 342 432 175 q 425 674 433 508 q 394 1019 417 840 l 550 1049 q 561 790 558 924 q 563 522 564 657 q 556 256 561 386 q 542 10 550 126 l 426 -11 m 888 958 l 68 964 l 63 1042 l 889 1064 l 888 958 m 406 -289 l 407 -229 q 460 -237 432 -235 q 515 -235 489 -240 q 558 -216 542 -231 q 575 -175 575 -201 q 560 -130 575 -146 q 522 -106 546 -114 q 471 -97 499 -99 q 417 -96 443 -96 l 447 -37 q 541 -56 501 -37 q 603 -103 581 -74 q 625 -168 625 -132 q 603 -240 625 -212 q 546 -279 581 -267 q 474 -293 511 -292 q 406 -289 436 -294 m 401 -96 l 451 26 l 519 29 l 435 -96 l 401 -96 z "},"Ț":{"ha":951,"x_min":63,"x_max":889,"o":"m 426 -11 q 433 342 432 175 q 425 674 433 508 q 394 1019 417 840 l 550 1049 q 561 790 558 924 q 563 522 564 657 q 556 256 561 386 q 542 10 550 126 l 426 -11 m 888 958 l 68 964 l 63 1042 l 889 1064 l 888 958 m 472 -342 l 429 -276 q 472 -236 454 -260 q 496 -186 489 -212 l 515 -199 l 435 -201 q 431 -146 432 -175 q 432 -92 431 -117 l 533 -94 q 533 -146 533 -121 q 531 -199 532 -171 q 516 -278 529 -246 q 472 -342 503 -310 z "},"U":{"ha":1122,"x_min":101,"x_max":992,"o":"m 542 -11 q 377 43 447 -11 q 257 188 307 97 q 175 392 207 279 q 126 622 143 504 q 106 847 110 739 q 107 1033 101 954 l 260 1058 q 253 966 256 1032 q 255 810 251 900 q 270 622 258 721 q 303 426 282 522 q 360 252 325 331 q 444 127 394 174 q 561 81 494 81 q 685 127 635 81 q 766 253 735 174 q 814 433 797 333 q 836 641 831 533 q 840 853 842 749 q 833 1042 839 957 l 913 808 q 908 654 911 740 q 893 476 904 568 q 858 297 882 383 q 794 140 835 210 q 692 30 753 71 q 542 -11 631 -11 m 833 0 q 851 270 846 144 q 855 516 856 396 q 849 765 854 636 q 833 1042 843 893 l 985 1065 q 990 810 989 936 q 989 557 992 685 q 979 297 986 429 q 960 21 972 164 l 833 0 z "},"Ú":{"ha":1122,"x_min":101,"x_max":992,"o":"m 542 -11 q 377 43 447 -11 q 257 188 307 97 q 175 392 207 279 q 126 622 143 504 q 106 847 110 739 q 107 1033 101 954 l 260 1058 q 253 966 256 1032 q 255 810 251 900 q 270 622 258 721 q 303 426 282 522 q 360 252 325 331 q 444 127 394 174 q 561 81 494 81 q 685 127 635 81 q 766 253 735 174 q 814 433 797 333 q 836 641 831 533 q 840 853 842 749 q 833 1042 839 957 l 913 808 q 908 654 911 740 q 893 476 904 568 q 858 297 882 383 q 794 140 835 210 q 692 30 753 71 q 542 -11 631 -11 m 833 0 q 851 270 846 144 q 855 516 856 396 q 849 765 854 636 q 833 1042 843 893 l 985 1065 q 990 810 989 936 q 989 557 992 685 q 979 297 986 429 q 960 21 972 164 l 833 0 m 536 1167 l 494 1200 l 733 1489 l 792 1432 l 536 1167 z "},"Ŭ":{"ha":1122,"x_min":101,"x_max":992,"o":"m 542 -11 q 377 43 447 -11 q 257 188 307 97 q 175 392 207 279 q 126 622 143 504 q 106 847 110 739 q 107 1033 101 954 l 260 1058 q 253 966 256 1032 q 255 810 251 900 q 270 622 258 721 q 303 426 282 522 q 360 252 325 331 q 444 127 394 174 q 561 81 494 81 q 685 127 635 81 q 766 253 735 174 q 814 433 797 333 q 836 641 831 533 q 840 853 842 749 q 833 1042 839 957 l 913 808 q 908 654 911 740 q 893 476 904 568 q 858 297 882 383 q 794 140 835 210 q 692 30 753 71 q 542 -11 631 -11 m 833 0 q 851 270 846 144 q 855 516 856 396 q 849 765 854 636 q 833 1042 843 893 l 985 1065 q 990 810 989 936 q 989 557 992 685 q 979 297 986 429 q 960 21 972 164 l 833 0 m 536 1171 q 453 1189 496 1171 q 383 1248 411 1207 q 356 1358 356 1289 l 431 1363 q 466 1253 435 1283 q 536 1224 497 1224 q 614 1259 590 1224 q 638 1375 638 1294 l 718 1383 q 673 1230 718 1289 q 536 1171 628 1171 z "},"Û":{"ha":1122,"x_min":101,"x_max":992,"o":"m 542 -11 q 377 43 447 -11 q 257 188 307 97 q 175 392 207 279 q 126 622 143 504 q 106 847 110 739 q 107 1033 101 954 l 260 1058 q 253 966 256 1032 q 255 810 251 900 q 270 622 258 721 q 303 426 282 522 q 360 252 325 331 q 444 127 394 174 q 561 81 494 81 q 685 127 635 81 q 766 253 735 174 q 814 433 797 333 q 836 641 831 533 q 840 853 842 749 q 833 1042 839 957 l 913 808 q 908 654 911 740 q 893 476 904 568 q 858 297 882 383 q 794 140 835 210 q 692 30 753 71 q 542 -11 631 -11 m 833 0 q 851 270 846 144 q 855 516 856 396 q 849 765 854 636 q 833 1042 843 893 l 985 1065 q 990 810 989 936 q 989 557 992 685 q 979 297 986 429 q 960 21 972 164 l 833 0 m 390 1147 l 311 1189 l 536 1433 l 553 1356 l 390 1147 m 682 1147 l 519 1356 l 536 1433 l 761 1189 l 682 1147 z "},"Ü":{"ha":1122,"x_min":101,"x_max":992,"o":"m 542 -11 q 377 43 447 -11 q 257 188 307 97 q 175 392 207 279 q 126 622 143 504 q 106 847 110 739 q 107 1033 101 954 l 260 1058 q 253 966 256 1032 q 255 810 251 900 q 270 622 258 721 q 303 426 282 522 q 360 252 325 331 q 444 127 394 174 q 561 81 494 81 q 685 127 635 81 q 766 253 735 174 q 814 433 797 333 q 836 641 831 533 q 840 853 842 749 q 833 1042 839 957 l 913 808 q 908 654 911 740 q 893 476 904 568 q 858 297 882 383 q 794 140 835 210 q 692 30 753 71 q 542 -11 631 -11 m 833 0 q 851 270 846 144 q 855 516 856 396 q 849 765 854 636 q 833 1042 843 893 l 985 1065 q 990 810 989 936 q 989 557 992 685 q 979 297 986 429 q 960 21 972 164 l 833 0 m 367 1168 q 363 1238 364 1200 q 364 1306 363 1275 l 492 1303 q 490 1238 492 1268 q 489 1171 488 1207 l 367 1168 m 589 1168 q 585 1238 586 1200 q 586 1306 585 1275 l 714 1303 q 712 1238 714 1268 q 711 1171 710 1207 l 589 1168 z "},"Ù":{"ha":1122,"x_min":101,"x_max":992,"o":"m 542 -11 q 377 43 447 -11 q 257 188 307 97 q 175 392 207 279 q 126 622 143 504 q 106 847 110 739 q 107 1033 101 954 l 260 1058 q 253 966 256 1032 q 255 810 251 900 q 270 622 258 721 q 303 426 282 522 q 360 252 325 331 q 444 127 394 174 q 561 81 494 81 q 685 127 635 81 q 766 253 735 174 q 814 433 797 333 q 836 641 831 533 q 840 853 842 749 q 833 1042 839 957 l 913 808 q 908 654 911 740 q 893 476 904 568 q 858 297 882 383 q 794 140 835 210 q 692 30 753 71 q 542 -11 631 -11 m 833 0 q 851 270 846 144 q 855 516 856 396 q 849 765 854 636 q 833 1042 843 893 l 985 1065 q 990 810 989 936 q 989 557 992 685 q 979 297 986 429 q 960 21 972 164 l 833 0 m 533 1167 l 279 1432 l 338 1489 l 575 1200 l 533 1167 z "},"Ű":{"ha":1122,"x_min":101,"x_max":992,"o":"m 542 -11 q 377 43 447 -11 q 257 188 307 97 q 175 392 207 279 q 126 622 143 504 q 106 847 110 739 q 107 1033 101 954 l 260 1058 q 253 966 256 1032 q 255 810 251 900 q 270 622 258 721 q 303 426 282 522 q 360 252 325 331 q 444 127 394 174 q 561 81 494 81 q 685 127 635 81 q 766 253 735 174 q 814 433 797 333 q 836 641 831 533 q 840 853 842 749 q 833 1042 839 957 l 913 808 q 908 654 911 740 q 893 476 904 568 q 858 297 882 383 q 794 140 835 210 q 692 30 753 71 q 542 -11 631 -11 m 833 0 q 851 270 846 144 q 855 516 856 396 q 849 765 854 636 q 833 1042 843 893 l 985 1065 q 990 810 989 936 q 989 557 992 685 q 979 297 986 429 q 960 21 972 164 l 833 0 m 342 1167 l 300 1200 l 539 1489 l 597 1432 l 342 1167 m 606 1168 l 564 1201 l 803 1490 l 861 1433 l 606 1168 z "},"Ū":{"ha":1122,"x_min":101,"x_max":992,"o":"m 542 -11 q 377 43 447 -11 q 257 188 307 97 q 175 392 207 279 q 126 622 143 504 q 106 847 110 739 q 107 1033 101 954 l 260 1058 q 253 966 256 1032 q 255 810 251 900 q 270 622 258 721 q 303 426 282 522 q 360 252 325 331 q 444 127 394 174 q 561 81 494 81 q 685 127 635 81 q 766 253 735 174 q 814 433 797 333 q 836 641 831 533 q 840 853 842 749 q 833 1042 839 957 l 913 808 q 908 654 911 740 q 893 476 904 568 q 858 297 882 383 q 794 140 835 210 q 692 30 753 71 q 542 -11 631 -11 m 833 0 q 851 270 846 144 q 855 516 856 396 q 849 765 854 636 q 833 1042 843 893 l 985 1065 q 990 810 989 936 q 989 557 992 685 q 979 297 986 429 q 960 21 972 164 l 833 0 m 697 1174 l 365 1176 l 379 1243 l 707 1224 l 697 1174 z "},"Ų":{"ha":1122,"x_min":101,"x_max":992,"o":"m 542 -11 q 377 43 447 -11 q 257 188 307 97 q 175 392 207 279 q 126 622 143 504 q 106 847 110 739 q 107 1033 101 954 l 260 1058 q 253 966 256 1032 q 255 810 251 900 q 270 622 258 721 q 303 426 282 522 q 360 252 325 331 q 444 127 394 174 q 561 81 494 81 q 685 127 635 81 q 766 253 735 174 q 814 433 797 333 q 836 641 831 533 q 840 853 842 749 q 833 1042 839 957 l 913 808 q 908 654 911 740 q 893 476 904 568 q 858 297 882 383 q 794 140 835 210 q 692 30 753 71 q 542 -11 631 -11 m 833 0 q 851 270 846 144 q 855 516 856 396 q 849 765 854 636 q 833 1042 843 893 l 985 1065 q 990 810 989 936 q 989 557 992 685 q 979 297 986 429 q 960 21 972 164 l 833 0 m 963 -271 q 854 -254 903 -271 q 778 -207 806 -237 q 750 -137 750 -176 q 793 -47 750 -93 q 914 35 836 -1 l 960 21 q 844 -54 881 -18 q 807 -126 807 -90 q 851 -192 807 -169 q 968 -206 896 -214 l 963 -271 z "},"Ů":{"ha":1122,"x_min":101,"x_max":992,"o":"m 542 -11 q 377 43 447 -11 q 257 188 307 97 q 175 392 207 279 q 126 622 143 504 q 106 847 110 739 q 107 1033 101 954 l 260 1058 q 253 966 256 1032 q 255 810 251 900 q 270 622 258 721 q 303 426 282 522 q 360 252 325 331 q 444 127 394 174 q 561 81 494 81 q 685 127 635 81 q 766 253 735 174 q 814 433 797 333 q 836 641 831 533 q 840 853 842 749 q 833 1042 839 957 l 913 808 q 908 654 911 740 q 893 476 904 568 q 858 297 882 383 q 794 140 835 210 q 692 30 753 71 q 542 -11 631 -11 m 833 0 q 851 270 846 144 q 855 516 856 396 q 849 765 854 636 q 833 1042 843 893 l 985 1065 q 990 810 989 936 q 989 557 992 685 q 979 297 986 429 q 960 21 972 164 l 833 0 m 535 1168 q 459 1190 490 1168 q 411 1247 428 1213 q 394 1318 394 1282 q 428 1415 394 1371 q 535 1458 463 1458 q 616 1436 583 1458 q 666 1379 649 1414 q 683 1306 683 1344 q 648 1211 683 1254 q 535 1168 613 1168 m 538 1221 q 612 1247 589 1221 q 635 1308 635 1274 q 610 1376 635 1346 q 538 1407 585 1407 q 466 1378 489 1407 q 443 1315 443 1350 q 467 1251 443 1282 q 538 1221 492 1221 z "},"Ũ":{"ha":1122,"x_min":101,"x_max":992,"o":"m 542 -11 q 377 43 447 -11 q 257 188 307 97 q 175 392 207 279 q 126 622 143 504 q 106 847 110 739 q 107 1033 101 954 l 260 1058 q 253 966 256 1032 q 255 810 251 900 q 270 622 258 721 q 303 426 282 522 q 360 252 325 331 q 444 127 394 174 q 561 81 494 81 q 685 127 635 81 q 766 253 735 174 q 814 433 797 333 q 836 641 831 533 q 840 853 842 749 q 833 1042 839 957 l 913 808 q 908 654 911 740 q 893 476 904 568 q 858 297 882 383 q 794 140 835 210 q 692 30 753 71 q 542 -11 631 -11 m 833 0 q 851 270 846 144 q 855 516 856 396 q 849 765 854 636 q 833 1042 843 893 l 985 1065 q 990 810 989 936 q 989 557 992 685 q 979 297 986 429 q 960 21 972 164 l 833 0 m 374 1160 l 311 1165 q 328 1266 311 1228 q 374 1322 346 1304 q 436 1339 403 1339 q 495 1319 469 1339 q 543 1275 521 1300 q 589 1231 565 1250 q 639 1211 613 1211 q 692 1247 676 1211 q 706 1338 708 1283 l 761 1333 q 742 1230 761 1269 q 698 1173 724 1190 q 650 1156 672 1156 q 592 1175 619 1156 q 540 1219 565 1194 q 489 1264 514 1244 q 439 1283 464 1283 q 389 1248 406 1283 q 374 1160 372 1213 z "},"V":{"ha":1038,"x_min":63,"x_max":975,"o":"m 471 -8 q 382 244 424 122 q 295 488 340 365 q 194 742 250 610 q 63 1028 138 875 l 190 1049 q 295 791 250 910 q 376 564 340 672 q 445 350 413 456 q 513 129 478 244 l 549 7 l 471 -8 m 549 7 l 468 92 q 522 273 492 176 q 588 472 553 369 q 663 676 624 574 q 741 875 701 778 q 821 1060 781 972 l 975 1039 q 848 769 911 911 q 728 488 785 628 q 624 224 671 349 q 549 7 578 100 z "},"W":{"ha":1542,"x_min":103,"x_max":1439,"o":"m 1051 -24 q 913 26 969 -24 q 823 162 857 76 q 769 354 789 247 q 742 576 750 461 q 728 802 733 692 q 718 1003 724 913 l 871 1011 q 860 831 865 931 q 853 625 854 731 q 859 421 851 519 q 886 244 867 322 q 942 119 906 165 q 1036 72 979 72 q 1134 110 1092 72 q 1208 215 1176 147 q 1259 372 1239 282 q 1288 569 1279 463 q 1297 790 1297 675 q 1286 1022 1296 906 l 1438 1049 q 1436 843 1439 957 q 1422 608 1433 729 q 1385 375 1410 488 q 1318 172 1361 263 q 1210 29 1275 82 q 1051 -24 1144 -24 m 476 -11 q 330 41 392 -11 q 226 181 268 93 q 158 378 183 268 q 119 604 132 488 q 105 831 107 721 q 108 1028 103 942 l 261 1035 q 255 944 257 1008 q 256 792 253 879 q 267 609 258 706 q 293 419 276 513 q 337 251 310 326 q 403 130 364 175 q 494 85 442 85 q 588 135 550 85 q 649 267 625 185 q 685 451 672 350 q 703 655 697 551 q 711 849 708 758 q 718 1003 714 940 l 779 793 q 774 640 778 725 q 761 464 771 554 q 732 289 751 374 q 679 137 713 204 q 597 29 646 69 q 476 -11 547 -11 z "},"Ẃ":{"ha":1542,"x_min":103,"x_max":1439,"o":"m 1051 -24 q 913 26 969 -24 q 823 162 857 76 q 769 354 789 247 q 742 576 750 461 q 728 802 733 692 q 718 1003 724 913 l 871 1011 q 860 831 865 931 q 853 625 854 731 q 859 421 851 519 q 886 244 867 322 q 942 119 906 165 q 1036 72 979 72 q 1134 110 1092 72 q 1208 215 1176 147 q 1259 372 1239 282 q 1288 569 1279 463 q 1297 790 1297 675 q 1286 1022 1296 906 l 1438 1049 q 1436 843 1439 957 q 1422 608 1433 729 q 1385 375 1410 488 q 1318 172 1361 263 q 1210 29 1275 82 q 1051 -24 1144 -24 m 476 -11 q 330 41 392 -11 q 226 181 268 93 q 158 378 183 268 q 119 604 132 488 q 105 831 107 721 q 108 1028 103 942 l 261 1035 q 255 944 257 1008 q 256 792 253 879 q 267 609 258 706 q 293 419 276 513 q 337 251 310 326 q 403 130 364 175 q 494 85 442 85 q 588 135 550 85 q 649 267 625 185 q 685 451 672 350 q 703 655 697 551 q 711 849 708 758 q 718 1003 714 940 l 779 793 q 774 640 778 725 q 761 464 771 554 q 732 289 751 374 q 679 137 713 204 q 597 29 646 69 q 476 -11 547 -11 m 801 1167 l 760 1200 l 999 1489 l 1057 1432 l 801 1167 z "},"Ŵ":{"ha":1542,"x_min":103,"x_max":1439,"o":"m 1051 -24 q 913 26 969 -24 q 823 162 857 76 q 769 354 789 247 q 742 576 750 461 q 728 802 733 692 q 718 1003 724 913 l 871 1011 q 860 831 865 931 q 853 625 854 731 q 859 421 851 519 q 886 244 867 322 q 942 119 906 165 q 1036 72 979 72 q 1134 110 1092 72 q 1208 215 1176 147 q 1259 372 1239 282 q 1288 569 1279 463 q 1297 790 1297 675 q 1286 1022 1296 906 l 1438 1049 q 1436 843 1439 957 q 1422 608 1433 729 q 1385 375 1410 488 q 1318 172 1361 263 q 1210 29 1275 82 q 1051 -24 1144 -24 m 476 -11 q 330 41 392 -11 q 226 181 268 93 q 158 378 183 268 q 119 604 132 488 q 105 831 107 721 q 108 1028 103 942 l 261 1035 q 255 944 257 1008 q 256 792 253 879 q 267 609 258 706 q 293 419 276 513 q 337 251 310 326 q 403 130 364 175 q 494 85 442 85 q 588 135 550 85 q 649 267 625 185 q 685 451 672 350 q 703 655 697 551 q 711 849 708 758 q 718 1003 714 940 l 779 793 q 774 640 778 725 q 761 464 771 554 q 732 289 751 374 q 679 137 713 204 q 597 29 646 69 q 476 -11 547 -11 m 656 1147 l 576 1189 l 801 1433 l 818 1356 l 656 1147 m 947 1147 l 785 1356 l 801 1433 l 1026 1189 l 947 1147 z "},"Ẅ":{"ha":1542,"x_min":103,"x_max":1439,"o":"m 1051 -24 q 913 26 969 -24 q 823 162 857 76 q 769 354 789 247 q 742 576 750 461 q 728 802 733 692 q 718 1003 724 913 l 871 1011 q 860 831 865 931 q 853 625 854 731 q 859 421 851 519 q 886 244 867 322 q 942 119 906 165 q 1036 72 979 72 q 1134 110 1092 72 q 1208 215 1176 147 q 1259 372 1239 282 q 1288 569 1279 463 q 1297 790 1297 675 q 1286 1022 1296 906 l 1438 1049 q 1436 843 1439 957 q 1422 608 1433 729 q 1385 375 1410 488 q 1318 172 1361 263 q 1210 29 1275 82 q 1051 -24 1144 -24 m 476 -11 q 330 41 392 -11 q 226 181 268 93 q 158 378 183 268 q 119 604 132 488 q 105 831 107 721 q 108 1028 103 942 l 261 1035 q 255 944 257 1008 q 256 792 253 879 q 267 609 258 706 q 293 419 276 513 q 337 251 310 326 q 403 130 364 175 q 494 85 442 85 q 588 135 550 85 q 649 267 625 185 q 685 451 672 350 q 703 655 697 551 q 711 849 708 758 q 718 1003 714 940 l 779 793 q 774 640 778 725 q 761 464 771 554 q 732 289 751 374 q 679 137 713 204 q 597 29 646 69 q 476 -11 547 -11 m 632 1168 q 628 1238 629 1200 q 629 1306 628 1275 l 757 1303 q 755 1238 757 1268 q 754 1171 753 1207 l 632 1168 m 854 1168 q 851 1238 851 1200 q 851 1306 850 1275 l 979 1303 q 977 1238 979 1268 q 976 1171 975 1207 l 854 1168 z "},"Ẁ":{"ha":1542,"x_min":103,"x_max":1439,"o":"m 1051 -24 q 913 26 969 -24 q 823 162 857 76 q 769 354 789 247 q 742 576 750 461 q 728 802 733 692 q 718 1003 724 913 l 871 1011 q 860 831 865 931 q 853 625 854 731 q 859 421 851 519 q 886 244 867 322 q 942 119 906 165 q 1036 72 979 72 q 1134 110 1092 72 q 1208 215 1176 147 q 1259 372 1239 282 q 1288 569 1279 463 q 1297 790 1297 675 q 1286 1022 1296 906 l 1438 1049 q 1436 843 1439 957 q 1422 608 1433 729 q 1385 375 1410 488 q 1318 172 1361 263 q 1210 29 1275 82 q 1051 -24 1144 -24 m 476 -11 q 330 41 392 -11 q 226 181 268 93 q 158 378 183 268 q 119 604 132 488 q 105 831 107 721 q 108 1028 103 942 l 261 1035 q 255 944 257 1008 q 256 792 253 879 q 267 609 258 706 q 293 419 276 513 q 337 251 310 326 q 403 130 364 175 q 494 85 442 85 q 588 135 550 85 q 649 267 625 185 q 685 451 672 350 q 703 655 697 551 q 711 849 708 758 q 718 1003 714 940 l 779 793 q 774 640 778 725 q 761 464 771 554 q 732 289 751 374 q 679 137 713 204 q 597 29 646 69 q 476 -11 547 -11 m 799 1167 l 544 1432 l 603 1489 l 840 1200 l 799 1167 z "},"X":{"ha":1032,"x_min":63,"x_max":969,"o":"m 154 -14 l 63 92 q 288 326 183 201 q 480 578 393 450 q 635 828 567 707 q 749 1054 703 950 l 818 1018 q 731 841 783 942 q 613 628 679 740 q 472 401 547 515 q 317 180 397 286 q 154 -14 236 74 m 806 -4 q 599 387 708 203 q 366 728 490 571 q 97 1014 242 886 l 217 1057 q 384 888 299 983 q 553 683 469 792 q 713 460 636 574 q 855 236 789 346 q 969 29 921 126 l 806 -4 z "},"Y":{"ha":1022,"x_min":104,"x_max":890,"o":"m 885 1067 q 889 785 888 922 q 879 524 890 647 q 835 299 868 401 q 735 121 801 196 q 560 4 669 46 q 288 -37 451 -37 l 281 92 q 452 90 376 82 q 585 122 528 97 q 680 185 642 146 q 739 277 718 225 q 764 393 760 329 q 767 567 771 488 q 757 721 764 646 q 742 876 750 796 q 732 1054 735 957 l 885 1067 m 472 336 q 324 371 386 336 q 221 464 263 406 q 154 596 179 522 q 118 749 129 669 q 106 903 107 828 q 108 1039 104 978 l 256 1050 q 246 856 244 949 q 263 683 247 763 q 310 546 279 604 q 386 456 340 488 q 494 424 432 424 q 597 455 554 424 q 667 544 639 486 q 710 681 694 601 q 730 854 725 760 q 732 1054 735 949 l 811 960 q 799 762 811 856 q 760 590 786 668 q 693 456 733 513 q 598 367 653 399 q 472 336 543 336 z "},"Ý":{"ha":1022,"x_min":104,"x_max":890,"o":"m 885 1067 q 889 785 888 922 q 879 524 890 647 q 835 299 868 401 q 735 121 801 196 q 560 4 669 46 q 288 -37 451 -37 l 281 92 q 452 90 376 82 q 585 122 528 97 q 680 185 642 146 q 739 277 718 225 q 764 393 760 329 q 767 567 771 488 q 757 721 764 646 q 742 876 750 796 q 732 1054 735 957 l 885 1067 m 472 336 q 324 371 386 336 q 221 464 263 406 q 154 596 179 522 q 118 749 129 669 q 106 903 107 828 q 108 1039 104 978 l 256 1050 q 246 856 244 949 q 263 683 247 763 q 310 546 279 604 q 386 456 340 488 q 494 424 432 424 q 597 455 554 424 q 667 544 639 486 q 710 681 694 601 q 730 854 725 760 q 732 1054 735 949 l 811 960 q 799 762 811 856 q 760 590 786 668 q 693 456 733 513 q 598 367 653 399 q 472 336 543 336 m 490 1167 l 449 1200 l 688 1489 l 746 1432 l 490 1167 z "},"Ŷ":{"ha":1022,"x_min":104,"x_max":890,"o":"m 885 1067 q 889 785 888 922 q 879 524 890 647 q 835 299 868 401 q 735 121 801 196 q 560 4 669 46 q 288 -37 451 -37 l 281 92 q 452 90 376 82 q 585 122 528 97 q 680 185 642 146 q 739 277 718 225 q 764 393 760 329 q 767 567 771 488 q 757 721 764 646 q 742 876 750 796 q 732 1054 735 957 l 885 1067 m 472 336 q 324 371 386 336 q 221 464 263 406 q 154 596 179 522 q 118 749 129 669 q 106 903 107 828 q 108 1039 104 978 l 256 1050 q 246 856 244 949 q 263 683 247 763 q 310 546 279 604 q 386 456 340 488 q 494 424 432 424 q 597 455 554 424 q 667 544 639 486 q 710 681 694 601 q 730 854 725 760 q 732 1054 735 949 l 811 960 q 799 762 811 856 q 760 590 786 668 q 693 456 733 513 q 598 367 653 399 q 472 336 543 336 m 344 1147 l 265 1189 l 490 1433 l 507 1356 l 344 1147 m 636 1147 l 474 1356 l 490 1433 l 715 1189 l 636 1147 z "},"Ÿ":{"ha":1022,"x_min":104,"x_max":890,"o":"m 885 1067 q 889 785 888 922 q 879 524 890 647 q 835 299 868 401 q 735 121 801 196 q 560 4 669 46 q 288 -37 451 -37 l 281 92 q 452 90 376 82 q 585 122 528 97 q 680 185 642 146 q 739 277 718 225 q 764 393 760 329 q 767 567 771 488 q 757 721 764 646 q 742 876 750 796 q 732 1054 735 957 l 885 1067 m 472 336 q 324 371 386 336 q 221 464 263 406 q 154 596 179 522 q 118 749 129 669 q 106 903 107 828 q 108 1039 104 978 l 256 1050 q 246 856 244 949 q 263 683 247 763 q 310 546 279 604 q 386 456 340 488 q 494 424 432 424 q 597 455 554 424 q 667 544 639 486 q 710 681 694 601 q 730 854 725 760 q 732 1054 735 949 l 811 960 q 799 762 811 856 q 760 590 786 668 q 693 456 733 513 q 598 367 653 399 q 472 336 543 336 m 321 1168 q 317 1238 318 1200 q 318 1306 317 1275 l 446 1303 q 444 1238 446 1268 q 443 1171 442 1207 l 321 1168 m 543 1168 q 540 1238 540 1200 q 540 1306 539 1275 l 668 1303 q 666 1238 668 1268 q 665 1171 664 1207 l 543 1168 z "},"Ỳ":{"ha":1022,"x_min":104,"x_max":890,"o":"m 885 1067 q 889 785 888 922 q 879 524 890 647 q 835 299 868 401 q 735 121 801 196 q 560 4 669 46 q 288 -37 451 -37 l 281 92 q 452 90 376 82 q 585 122 528 97 q 680 185 642 146 q 739 277 718 225 q 764 393 760 329 q 767 567 771 488 q 757 721 764 646 q 742 876 750 796 q 732 1054 735 957 l 885 1067 m 472 336 q 324 371 386 336 q 221 464 263 406 q 154 596 179 522 q 118 749 129 669 q 106 903 107 828 q 108 1039 104 978 l 256 1050 q 246 856 244 949 q 263 683 247 763 q 310 546 279 604 q 386 456 340 488 q 494 424 432 424 q 597 455 554 424 q 667 544 639 486 q 710 681 694 601 q 730 854 725 760 q 732 1054 735 949 l 811 960 q 799 762 811 856 q 760 590 786 668 q 693 456 733 513 q 598 367 653 399 q 472 336 543 336 m 488 1167 l 233 1432 l 292 1489 l 529 1200 l 488 1167 z "},"Ỹ":{"ha":1022,"x_min":104,"x_max":890,"o":"m 885 1067 q 889 785 888 922 q 879 524 890 647 q 835 299 868 401 q 735 121 801 196 q 560 4 669 46 q 288 -37 451 -37 l 281 92 q 452 90 376 82 q 585 122 528 97 q 680 185 642 146 q 739 277 718 225 q 764 393 760 329 q 767 567 771 488 q 757 721 764 646 q 742 876 750 796 q 732 1054 735 957 l 885 1067 m 472 336 q 324 371 386 336 q 221 464 263 406 q 154 596 179 522 q 118 749 129 669 q 106 903 107 828 q 108 1039 104 978 l 256 1050 q 246 856 244 949 q 263 683 247 763 q 310 546 279 604 q 386 456 340 488 q 494 424 432 424 q 597 455 554 424 q 667 544 639 486 q 710 681 694 601 q 730 854 725 760 q 732 1054 735 949 l 811 960 q 799 762 811 856 q 760 590 786 668 q 693 456 733 513 q 598 367 653 399 q 472 336 543 336 m 328 1160 l 265 1165 q 283 1266 265 1228 q 328 1322 300 1304 q 390 1339 357 1339 q 449 1319 424 1339 q 497 1275 475 1300 q 543 1231 519 1250 q 593 1211 567 1211 q 647 1247 631 1211 q 660 1338 663 1283 l 715 1333 q 697 1230 715 1269 q 652 1173 678 1190 q 604 1156 626 1156 q 547 1175 574 1156 q 494 1219 519 1194 q 443 1264 468 1244 q 393 1283 418 1283 q 343 1248 360 1283 q 328 1160 326 1213 z "},"Z":{"ha":960,"x_min":90,"x_max":869,"o":"m 150 21 l 90 96 q 260 263 171 164 q 438 481 350 363 q 599 726 525 599 q 719 979 672 854 l 869 963 q 767 772 825 872 q 640 569 710 672 q 492 369 571 467 q 328 182 414 271 q 150 21 242 93 m 800 -40 q 603 -3 703 -14 q 408 6 503 7 q 234 -1 314 6 q 97 -17 154 -8 l 90 96 l 169 61 q 368 90 260 79 q 593 102 476 101 q 822 85 710 103 l 800 -40 m 138 922 l 157 1042 q 371 1013 268 1022 q 565 1001 474 1003 q 733 1005 657 1000 q 864 1018 808 1010 l 869 963 q 628 933 746 946 q 391 917 511 921 q 138 922 271 914 z "},"Ź":{"ha":960,"x_min":90,"x_max":869,"o":"m 150 21 l 90 96 q 260 263 171 164 q 438 481 350 363 q 599 726 525 599 q 719 979 672 854 l 869 963 q 767 772 825 872 q 640 569 710 672 q 492 369 571 467 q 328 182 414 271 q 150 21 242 93 m 800 -40 q 603 -3 703 -14 q 408 6 503 7 q 234 -1 314 6 q 97 -17 154 -8 l 90 96 l 169 61 q 368 90 260 79 q 593 102 476 101 q 822 85 710 103 l 800 -40 m 138 922 l 157 1042 q 371 1013 268 1022 q 565 1001 474 1003 q 733 1005 657 1000 q 864 1018 808 1010 l 869 963 q 628 933 746 946 q 391 917 511 921 q 138 922 271 914 m 496 1167 l 454 1200 l 693 1489 l 751 1432 l 496 1167 z "},"Ž":{"ha":960,"x_min":90,"x_max":869,"o":"m 150 21 l 90 96 q 260 263 171 164 q 438 481 350 363 q 599 726 525 599 q 719 979 672 854 l 869 963 q 767 772 825 872 q 640 569 710 672 q 492 369 571 467 q 328 182 414 271 q 150 21 242 93 m 800 -40 q 603 -3 703 -14 q 408 6 503 7 q 234 -1 314 6 q 97 -17 154 -8 l 90 96 l 169 61 q 368 90 260 79 q 593 102 476 101 q 822 85 710 103 l 800 -40 m 138 922 l 157 1042 q 371 1013 268 1022 q 565 1001 474 1003 q 733 1005 657 1000 q 864 1018 808 1010 l 869 963 q 628 933 746 946 q 391 917 511 921 q 138 922 271 914 m 350 1429 l 513 1221 l 496 1143 l 271 1388 l 350 1429 m 642 1429 l 721 1388 l 496 1143 l 479 1221 l 642 1429 z "},"Ż":{"ha":960,"x_min":90,"x_max":869,"o":"m 150 21 l 90 96 q 260 263 171 164 q 438 481 350 363 q 599 726 525 599 q 719 979 672 854 l 869 963 q 767 772 825 872 q 640 569 710 672 q 492 369 571 467 q 328 182 414 271 q 150 21 242 93 m 800 -40 q 603 -3 703 -14 q 408 6 503 7 q 234 -1 314 6 q 97 -17 154 -8 l 90 96 l 169 61 q 368 90 260 79 q 593 102 476 101 q 822 85 710 103 l 800 -40 m 138 922 l 157 1042 q 371 1013 268 1022 q 565 1001 474 1003 q 733 1005 657 1000 q 864 1018 808 1010 l 869 963 q 628 933 746 946 q 391 917 511 921 q 138 922 271 914 m 431 1174 q 427 1251 428 1210 q 428 1326 426 1292 l 569 1324 q 567 1251 569 1285 q 567 1178 565 1217 l 431 1174 z "},"a":{"ha":807,"x_min":63,"x_max":703,"o":"m 289 -19 q 177 8 229 -19 q 94 87 125 36 q 63 208 63 138 q 109 360 63 288 q 263 497 156 433 q 547 613 369 561 l 581 532 q 390 468 463 506 q 278 390 317 431 q 227 309 240 349 q 214 239 214 269 q 244 134 214 179 q 333 89 274 89 q 438 124 388 89 q 520 224 488 160 q 551 375 553 288 l 632 443 q 591 232 624 319 q 509 89 558 144 q 403 7 460 33 q 289 -19 346 -19 m 579 -14 q 563 121 569 43 q 552 280 556 199 q 547 433 549 361 q 546 554 546 506 q 547 613 546 603 l 703 629 q 681 315 682 464 q 692 11 681 165 l 579 -14 z "},"á":{"ha":807,"x_min":63,"x_max":746,"o":"m 289 -19 q 177 8 229 -19 q 94 87 125 36 q 63 208 63 138 q 109 360 63 288 q 263 497 156 433 q 547 613 369 561 l 581 532 q 390 468 463 506 q 278 390 317 431 q 227 309 240 349 q 214 239 214 269 q 244 134 214 179 q 333 89 274 89 q 438 124 388 89 q 520 224 488 160 q 551 375 553 288 l 632 443 q 591 232 624 319 q 509 89 558 144 q 403 7 460 33 q 289 -19 346 -19 m 579 -14 q 563 121 569 43 q 552 280 556 199 q 547 433 549 361 q 546 554 546 506 q 547 613 546 603 l 703 629 q 681 315 682 464 q 692 11 681 165 l 579 -14 m 490 778 l 449 811 l 688 1100 l 746 1043 l 490 778 z "},"ă":{"ha":807,"x_min":63,"x_max":703,"o":"m 289 -19 q 177 8 229 -19 q 94 87 125 36 q 63 208 63 138 q 109 360 63 288 q 263 497 156 433 q 547 613 369 561 l 581 532 q 390 468 463 506 q 278 390 317 431 q 227 309 240 349 q 214 239 214 269 q 244 134 214 179 q 333 89 274 89 q 438 124 388 89 q 520 224 488 160 q 551 375 553 288 l 632 443 q 591 232 624 319 q 509 89 558 144 q 403 7 460 33 q 289 -19 346 -19 m 579 -14 q 563 121 569 43 q 552 280 556 199 q 547 433 549 361 q 546 554 546 506 q 547 613 546 603 l 703 629 q 681 315 682 464 q 692 11 681 165 l 579 -14 m 490 782 q 408 800 450 782 q 338 859 365 818 q 310 969 310 900 l 385 974 q 420 865 389 894 q 490 835 451 835 q 568 870 544 835 q 592 986 592 906 l 672 994 q 627 841 672 900 q 490 782 582 782 z "},"ǎ":{"ha":807,"x_min":63,"x_max":715,"o":"m 289 -19 q 177 8 229 -19 q 94 87 125 36 q 63 208 63 138 q 109 360 63 288 q 263 497 156 433 q 547 613 369 561 l 581 532 q 390 468 463 506 q 278 390 317 431 q 227 309 240 349 q 214 239 214 269 q 244 134 214 179 q 333 89 274 89 q 438 124 388 89 q 520 224 488 160 q 551 375 553 288 l 632 443 q 591 232 624 319 q 509 89 558 144 q 403 7 460 33 q 289 -19 346 -19 m 579 -14 q 563 121 569 43 q 552 280 556 199 q 547 433 549 361 q 546 554 546 506 q 547 613 546 603 l 703 629 q 681 315 682 464 q 692 11 681 165 l 579 -14 m 344 1040 l 507 832 l 490 754 l 265 999 l 344 1040 m 636 1040 l 715 999 l 490 754 l 474 832 l 636 1040 z "},"â":{"ha":807,"x_min":63,"x_max":715,"o":"m 289 -19 q 177 8 229 -19 q 94 87 125 36 q 63 208 63 138 q 109 360 63 288 q 263 497 156 433 q 547 613 369 561 l 581 532 q 390 468 463 506 q 278 390 317 431 q 227 309 240 349 q 214 239 214 269 q 244 134 214 179 q 333 89 274 89 q 438 124 388 89 q 520 224 488 160 q 551 375 553 288 l 632 443 q 591 232 624 319 q 509 89 558 144 q 403 7 460 33 q 289 -19 346 -19 m 579 -14 q 563 121 569 43 q 552 280 556 199 q 547 433 549 361 q 546 554 546 506 q 547 613 546 603 l 703 629 q 681 315 682 464 q 692 11 681 165 l 579 -14 m 344 758 l 265 800 l 490 1044 l 507 967 l 344 758 m 636 758 l 474 967 l 490 1044 l 715 800 l 636 758 z "},"ä":{"ha":807,"x_min":63,"x_max":703,"o":"m 289 -19 q 177 8 229 -19 q 94 87 125 36 q 63 208 63 138 q 109 360 63 288 q 263 497 156 433 q 547 613 369 561 l 581 532 q 390 468 463 506 q 278 390 317 431 q 227 309 240 349 q 214 239 214 269 q 244 134 214 179 q 333 89 274 89 q 438 124 388 89 q 520 224 488 160 q 551 375 553 288 l 632 443 q 591 232 624 319 q 509 89 558 144 q 403 7 460 33 q 289 -19 346 -19 m 579 -14 q 563 121 569 43 q 552 280 556 199 q 547 433 549 361 q 546 554 546 506 q 547 613 546 603 l 703 629 q 681 315 682 464 q 692 11 681 165 l 579 -14 m 321 779 q 317 849 318 811 q 318 917 317 886 l 446 914 q 444 849 446 879 q 443 782 442 818 l 321 779 m 543 779 q 540 849 540 811 q 540 917 539 886 l 668 914 q 666 849 668 879 q 665 782 664 818 l 543 779 z "},"à":{"ha":807,"x_min":63,"x_max":703,"o":"m 289 -19 q 177 8 229 -19 q 94 87 125 36 q 63 208 63 138 q 109 360 63 288 q 263 497 156 433 q 547 613 369 561 l 581 532 q 390 468 463 506 q 278 390 317 431 q 227 309 240 349 q 214 239 214 269 q 244 134 214 179 q 333 89 274 89 q 438 124 388 89 q 520 224 488 160 q 551 375 553 288 l 632 443 q 591 232 624 319 q 509 89 558 144 q 403 7 460 33 q 289 -19 346 -19 m 579 -14 q 563 121 569 43 q 552 280 556 199 q 547 433 549 361 q 546 554 546 506 q 547 613 546 603 l 703 629 q 681 315 682 464 q 692 11 681 165 l 579 -14 m 488 778 l 233 1043 l 292 1100 l 529 811 l 488 778 z "},"ā":{"ha":807,"x_min":63,"x_max":703,"o":"m 289 -19 q 177 8 229 -19 q 94 87 125 36 q 63 208 63 138 q 109 360 63 288 q 263 497 156 433 q 547 613 369 561 l 581 532 q 390 468 463 506 q 278 390 317 431 q 227 309 240 349 q 214 239 214 269 q 244 134 214 179 q 333 89 274 89 q 438 124 388 89 q 520 224 488 160 q 551 375 553 288 l 632 443 q 591 232 624 319 q 509 89 558 144 q 403 7 460 33 q 289 -19 346 -19 m 579 -14 q 563 121 569 43 q 552 280 556 199 q 547 433 549 361 q 546 554 546 506 q 547 613 546 603 l 703 629 q 681 315 682 464 q 692 11 681 165 l 579 -14 m 651 785 l 319 788 l 333 854 l 661 835 l 651 785 z "},"ą":{"ha":807,"x_min":63,"x_max":703,"o":"m 289 -19 q 177 8 229 -19 q 94 87 125 36 q 63 208 63 138 q 109 360 63 288 q 263 497 156 433 q 547 613 369 561 l 581 532 q 390 468 463 506 q 278 390 317 431 q 227 309 240 349 q 214 239 214 269 q 244 134 214 179 q 333 89 274 89 q 438 124 388 89 q 520 224 488 160 q 551 375 553 288 l 632 443 q 591 232 624 319 q 509 89 558 144 q 403 7 460 33 q 289 -19 346 -19 m 579 -14 q 563 121 569 43 q 552 280 556 199 q 547 433 549 361 q 546 554 546 506 q 547 613 546 603 l 703 629 q 681 315 682 464 q 692 11 681 165 l 579 -14 m 654 -285 q 546 -268 594 -285 q 469 -221 497 -251 q 442 -151 442 -190 q 485 -61 442 -107 q 606 21 528 -15 l 651 7 q 535 -68 572 -32 q 499 -140 499 -104 q 543 -206 499 -183 q 660 -219 588 -228 l 654 -285 z "},"å":{"ha":807,"x_min":63,"x_max":703,"o":"m 289 -19 q 177 8 229 -19 q 94 87 125 36 q 63 208 63 138 q 109 360 63 288 q 263 497 156 433 q 547 613 369 561 l 581 532 q 390 468 463 506 q 278 390 317 431 q 227 309 240 349 q 214 239 214 269 q 244 134 214 179 q 333 89 274 89 q 438 124 388 89 q 520 224 488 160 q 551 375 553 288 l 632 443 q 591 232 624 319 q 509 89 558 144 q 403 7 460 33 q 289 -19 346 -19 m 579 -14 q 563 121 569 43 q 552 280 556 199 q 547 433 549 361 q 546 554 546 506 q 547 613 546 603 l 703 629 q 681 315 682 464 q 692 11 681 165 l 579 -14 m 489 779 q 413 801 444 779 q 365 858 382 824 q 349 929 349 893 q 383 1026 349 982 q 489 1069 417 1069 q 570 1047 538 1069 q 620 990 603 1025 q 638 917 638 956 q 602 822 638 865 q 489 779 567 779 m 492 832 q 566 858 543 832 q 589 919 589 885 q 564 988 589 957 q 492 1018 539 1018 q 420 990 443 1018 q 397 926 397 961 q 422 863 397 893 q 492 832 446 832 z "},"ã":{"ha":807,"x_min":63,"x_max":715,"o":"m 289 -19 q 177 8 229 -19 q 94 87 125 36 q 63 208 63 138 q 109 360 63 288 q 263 497 156 433 q 547 613 369 561 l 581 532 q 390 468 463 506 q 278 390 317 431 q 227 309 240 349 q 214 239 214 269 q 244 134 214 179 q 333 89 274 89 q 438 124 388 89 q 520 224 488 160 q 551 375 553 288 l 632 443 q 591 232 624 319 q 509 89 558 144 q 403 7 460 33 q 289 -19 346 -19 m 579 -14 q 563 121 569 43 q 552 280 556 199 q 547 433 549 361 q 546 554 546 506 q 547 613 546 603 l 703 629 q 681 315 682 464 q 692 11 681 165 l 579 -14 m 328 771 l 265 776 q 283 877 265 839 q 328 933 300 915 q 390 950 357 950 q 449 931 424 950 q 497 886 475 911 q 543 842 519 861 q 593 822 567 822 q 647 858 631 822 q 660 949 663 894 l 715 944 q 697 841 715 881 q 652 784 678 801 q 604 767 626 767 q 547 786 574 767 q 494 831 519 806 q 443 875 468 856 q 393 894 418 894 q 343 859 360 894 q 328 771 326 824 z "},"æ":{"ha":1233,"x_min":63,"x_max":1172,"o":"m 289 -19 q 177 8 229 -19 q 94 87 125 36 q 63 208 63 138 q 88 323 63 267 q 171 431 114 379 q 321 528 228 482 q 547 613 414 574 l 581 532 q 390 468 463 506 q 278 390 317 431 q 227 309 240 349 q 214 239 214 269 q 244 134 214 179 q 333 89 274 89 q 438 124 388 89 q 520 224 488 160 q 551 375 553 288 l 632 443 q 591 232 624 319 q 509 89 558 144 q 403 7 460 33 q 289 -19 346 -19 m 564 192 q 556 215 560 189 q 551 287 553 242 q 547 385 549 332 q 546 486 546 438 q 547 569 546 535 q 547 613 547 604 l 703 629 q 683 425 689 519 q 677 274 678 331 q 676 217 676 217 l 564 192 m 1069 -3 q 919 -8 994 -11 q 778 14 844 -4 q 660 69 711 32 q 579 163 608 106 q 550 304 550 221 q 580 449 550 388 q 659 551 610 510 q 769 612 708 592 q 890 632 829 632 q 1047 597 983 632 q 1141 508 1110 561 q 1171 400 1172 456 q 1151 310 1171 354 q 1084 237 1132 265 q 953 208 1036 208 q 881 214 924 208 q 794 230 839 219 q 709 255 749 240 q 646 288 669 269 l 679 342 q 752 310 706 325 q 868 296 799 296 q 949 308 911 296 q 1010 349 986 321 q 1033 425 1033 378 q 1022 480 1033 451 q 981 528 1010 508 q 897 549 951 549 q 803 515 849 549 q 728 431 757 482 q 699 322 699 379 q 731 182 699 238 q 817 99 763 126 q 941 67 872 71 q 1085 79 1010 63 l 1069 -3 z "},"b":{"ha":879,"x_min":104,"x_max":817,"o":"m 460 -15 q 386 -9 432 -15 q 295 6 340 -3 q 224 21 250 14 l 156 124 q 232 97 185 111 q 326 74 279 83 q 397 65 372 65 q 561 103 503 65 q 642 200 619 142 q 665 317 665 258 q 658 378 665 343 q 633 445 651 413 q 585 499 615 478 q 510 521 556 521 q 426 497 474 521 q 332 424 378 474 q 254 294 286 374 q 217 104 222 215 l 169 157 q 197 356 169 274 q 269 494 224 439 q 367 580 314 549 q 471 624 419 611 q 563 638 522 638 q 687 606 629 638 q 781 508 744 574 q 817 342 817 443 q 790 194 817 260 q 713 81 763 128 q 599 10 664 35 q 460 -15 535 -15 m 224 21 l 113 39 q 126 572 128 308 q 104 1086 124 836 l 249 1111 q 256 580 260 850 q 224 21 253 310 z "},"c":{"ha":699,"x_min":63,"x_max":657,"o":"m 374 -8 q 223 20 294 -8 q 107 108 151 49 q 63 260 63 168 q 96 410 63 344 q 185 523 129 476 q 311 598 242 569 q 454 636 381 626 q 593 638 528 646 l 601 540 q 474 540 542 551 q 349 495 407 529 q 253 405 290 461 q 217 269 217 349 q 269 133 217 189 q 415 76 321 76 q 539 101 482 76 q 644 167 596 125 l 657 81 q 523 15 594 38 q 374 -8 451 -8 z "},"ć":{"ha":699,"x_min":63,"x_max":704,"o":"m 374 -8 q 223 20 294 -8 q 107 108 151 49 q 63 260 63 168 q 96 410 63 344 q 185 523 129 476 q 311 598 242 569 q 454 636 381 626 q 593 638 528 646 l 601 540 q 474 540 542 551 q 349 495 407 529 q 253 405 290 461 q 217 269 217 349 q 269 133 217 189 q 415 76 321 76 q 539 101 482 76 q 644 167 596 125 l 657 81 q 523 15 594 38 q 374 -8 451 -8 m 449 778 l 407 811 l 646 1100 l 704 1043 l 449 778 z "},"č":{"ha":699,"x_min":63,"x_max":674,"o":"m 374 -8 q 223 20 294 -8 q 107 108 151 49 q 63 260 63 168 q 96 410 63 344 q 185 523 129 476 q 311 598 242 569 q 454 636 381 626 q 593 638 528 646 l 601 540 q 474 540 542 551 q 349 495 407 529 q 253 405 290 461 q 217 269 217 349 q 269 133 217 189 q 415 76 321 76 q 539 101 482 76 q 644 167 596 125 l 657 81 q 523 15 594 38 q 374 -8 451 -8 m 303 1040 l 465 832 l 449 754 l 224 999 l 303 1040 m 594 1040 l 674 999 l 449 754 l 432 832 l 594 1040 z "},"ç":{"ha":699,"x_min":63,"x_max":657,"o":"m 374 -8 q 223 20 294 -8 q 107 108 151 49 q 63 260 63 168 q 96 410 63 344 q 185 523 129 476 q 311 598 242 569 q 454 636 381 626 q 593 638 528 646 l 601 540 q 474 540 542 551 q 349 495 407 529 q 253 405 290 461 q 217 269 217 349 q 269 133 217 189 q 415 76 321 76 q 539 101 482 76 q 644 167 596 125 l 657 81 q 523 15 594 38 q 374 -8 451 -8 m 372 -289 l 374 -229 q 427 -237 399 -235 q 482 -235 456 -240 q 525 -216 508 -231 q 542 -175 542 -201 q 527 -130 542 -146 q 489 -106 513 -114 q 438 -97 465 -99 q 383 -96 410 -96 l 414 -37 q 508 -56 468 -37 q 569 -103 547 -74 q 592 -168 592 -132 q 569 -240 592 -212 q 513 -279 547 -267 q 440 -293 478 -292 q 372 -289 403 -294 m 368 -96 l 418 26 l 486 29 l 401 -96 l 368 -96 z "},"ċ":{"ha":699,"x_min":63,"x_max":657,"o":"m 374 -8 q 223 20 294 -8 q 107 108 151 49 q 63 260 63 168 q 96 410 63 344 q 185 523 129 476 q 311 598 242 569 q 454 636 381 626 q 593 638 528 646 l 601 540 q 474 540 542 551 q 349 495 407 529 q 253 405 290 461 q 217 269 217 349 q 269 133 217 189 q 415 76 321 76 q 539 101 482 76 q 644 167 596 125 l 657 81 q 523 15 594 38 q 374 -8 451 -8 m 383 785 q 380 862 381 821 q 381 938 379 903 l 522 935 q 520 862 522 896 q 519 789 518 828 l 383 785 z "},"d":{"ha":800,"x_min":63,"x_max":696,"o":"m 688 6 l 576 -7 q 549 373 557 186 q 543 742 542 560 q 551 1097 544 924 l 696 1122 q 681 858 686 997 q 675 573 676 718 q 677 284 674 428 q 688 6 681 140 m 289 -19 q 177 8 229 -19 q 94 87 125 36 q 63 208 63 138 q 109 374 63 288 q 263 539 156 461 q 547 668 369 617 l 581 588 q 390 515 463 561 q 278 417 317 469 q 227 317 240 365 q 214 239 214 269 q 244 141 214 179 q 333 103 274 103 q 438 134 388 103 q 520 226 488 165 q 551 375 553 288 l 632 443 q 591 232 624 319 q 509 89 558 144 q 403 7 460 33 q 289 -19 346 -19 z "},"ð":{"ha":825,"x_min":63,"x_max":763,"o":"m 367 -14 q 204 24 272 -14 q 99 119 136 61 q 63 242 63 178 q 90 343 63 294 q 173 424 117 392 q 317 456 229 456 q 521 426 422 456 q 679 340 619 397 l 681 193 q 532 313 610 283 q 385 343 454 343 q 271 322 317 343 q 203 270 225 301 q 181 207 181 239 q 205 154 181 179 q 269 114 229 129 q 357 99 310 99 q 494 126 439 99 q 583 200 550 154 q 629 300 615 246 q 643 406 643 354 q 612 538 643 469 q 521 669 581 606 q 376 785 461 733 q 185 868 292 838 l 213 986 q 433 896 332 958 q 607 746 533 833 q 722 555 681 658 q 763 343 763 451 q 722 165 763 246 q 593 35 681 83 q 367 -14 506 -14 m 210 531 l 151 647 l 642 942 l 685 856 l 210 531 z "},"ď":{"ha":861,"x_min":63,"x_max":882,"o":"m 688 6 l 576 -7 q 549 373 557 186 q 543 742 542 560 q 551 1097 544 924 l 696 1122 q 681 858 686 997 q 675 573 676 718 q 677 284 674 428 q 688 6 681 140 m 289 -19 q 177 8 229 -19 q 94 87 125 36 q 63 208 63 138 q 109 374 63 288 q 263 539 156 461 q 547 668 369 617 l 581 588 q 390 515 463 561 q 278 417 317 469 q 227 317 240 365 q 214 239 214 269 q 244 141 214 179 q 333 103 274 103 q 438 134 388 103 q 520 226 488 165 q 551 375 553 288 l 632 443 q 591 232 624 319 q 509 89 558 144 q 403 7 460 33 q 289 -19 346 -19 m 804 838 l 796 1115 l 882 1122 l 864 851 l 804 838 z "},"đ":{"ha":800,"x_min":63,"x_max":815,"o":"m 256 801 l 258 935 l 815 918 l 815 819 l 256 801 m 688 6 l 576 -7 q 549 373 557 186 q 543 742 542 560 q 551 1097 544 924 l 696 1122 q 681 858 686 997 q 675 573 676 718 q 677 284 674 428 q 688 6 681 140 m 289 -19 q 177 8 229 -19 q 94 87 125 36 q 63 208 63 138 q 109 374 63 288 q 263 539 156 461 q 547 668 369 617 l 581 588 q 390 515 463 561 q 278 417 317 469 q 227 317 240 365 q 214 239 214 269 q 244 141 214 179 q 333 103 274 103 q 438 134 388 103 q 520 226 488 165 q 551 375 553 288 l 632 443 q 591 232 624 319 q 509 89 558 144 q 403 7 460 33 q 289 -19 346 -19 z "},"e":{"ha":746,"x_min":63,"x_max":685,"o":"m 582 -3 q 432 -8 507 -11 q 290 14 357 -4 q 172 69 224 32 q 92 163 121 106 q 63 304 63 221 q 92 449 63 388 q 172 551 122 510 q 281 612 221 592 q 403 632 342 632 q 559 597 496 632 q 653 508 622 561 q 683 400 685 456 q 663 310 683 354 q 596 237 643 265 q 465 208 549 208 q 394 214 436 208 q 306 230 351 219 q 222 255 261 240 q 158 288 182 269 l 192 342 q 265 310 218 325 q 381 296 311 296 q 461 308 424 296 q 522 349 499 321 q 546 425 546 378 q 534 480 546 451 q 493 528 522 508 q 410 549 464 549 q 315 515 361 549 q 240 431 269 482 q 211 322 211 379 q 243 182 211 238 q 330 99 275 126 q 453 67 385 71 q 597 79 522 63 l 582 -3 z "},"é":{"ha":746,"x_min":63,"x_max":704,"o":"m 582 -3 q 432 -8 507 -11 q 290 14 357 -4 q 172 69 224 32 q 92 163 121 106 q 63 304 63 221 q 92 449 63 388 q 172 551 122 510 q 281 612 221 592 q 403 632 342 632 q 559 597 496 632 q 653 508 622 561 q 683 400 685 456 q 663 310 683 354 q 596 237 643 265 q 465 208 549 208 q 394 214 436 208 q 306 230 351 219 q 222 255 261 240 q 158 288 182 269 l 192 342 q 265 310 218 325 q 381 296 311 296 q 461 308 424 296 q 522 349 499 321 q 546 425 546 378 q 534 480 546 451 q 493 528 522 508 q 410 549 464 549 q 315 515 361 549 q 240 431 269 482 q 211 322 211 379 q 243 182 211 238 q 330 99 275 126 q 453 67 385 71 q 597 79 522 63 l 582 -3 m 449 778 l 407 811 l 646 1100 l 704 1043 l 449 778 z "},"ě":{"ha":746,"x_min":63,"x_max":685,"o":"m 582 -3 q 432 -8 507 -11 q 290 14 357 -4 q 172 69 224 32 q 92 163 121 106 q 63 304 63 221 q 92 449 63 388 q 172 551 122 510 q 281 612 221 592 q 403 632 342 632 q 559 597 496 632 q 653 508 622 561 q 683 400 685 456 q 663 310 683 354 q 596 237 643 265 q 465 208 549 208 q 394 214 436 208 q 306 230 351 219 q 222 255 261 240 q 158 288 182 269 l 192 342 q 265 310 218 325 q 381 296 311 296 q 461 308 424 296 q 522 349 499 321 q 546 425 546 378 q 534 480 546 451 q 493 528 522 508 q 410 549 464 549 q 315 515 361 549 q 240 431 269 482 q 211 322 211 379 q 243 182 211 238 q 330 99 275 126 q 453 67 385 71 q 597 79 522 63 l 582 -3 m 303 1040 l 465 832 l 449 754 l 224 999 l 303 1040 m 594 1040 l 674 999 l 449 754 l 432 832 l 594 1040 z "},"ê":{"ha":746,"x_min":63,"x_max":685,"o":"m 582 -3 q 432 -8 507 -11 q 290 14 357 -4 q 172 69 224 32 q 92 163 121 106 q 63 304 63 221 q 92 449 63 388 q 172 551 122 510 q 281 612 221 592 q 403 632 342 632 q 559 597 496 632 q 653 508 622 561 q 683 400 685 456 q 663 310 683 354 q 596 237 643 265 q 465 208 549 208 q 394 214 436 208 q 306 230 351 219 q 222 255 261 240 q 158 288 182 269 l 192 342 q 265 310 218 325 q 381 296 311 296 q 461 308 424 296 q 522 349 499 321 q 546 425 546 378 q 534 480 546 451 q 493 528 522 508 q 410 549 464 549 q 315 515 361 549 q 240 431 269 482 q 211 322 211 379 q 243 182 211 238 q 330 99 275 126 q 453 67 385 71 q 597 79 522 63 l 582 -3 m 303 758 l 224 800 l 449 1044 l 465 967 l 303 758 m 594 758 l 432 967 l 449 1044 l 674 800 l 594 758 z "},"ë":{"ha":746,"x_min":63,"x_max":685,"o":"m 582 -3 q 432 -8 507 -11 q 290 14 357 -4 q 172 69 224 32 q 92 163 121 106 q 63 304 63 221 q 92 449 63 388 q 172 551 122 510 q 281 612 221 592 q 403 632 342 632 q 559 597 496 632 q 653 508 622 561 q 683 400 685 456 q 663 310 683 354 q 596 237 643 265 q 465 208 549 208 q 394 214 436 208 q 306 230 351 219 q 222 255 261 240 q 158 288 182 269 l 192 342 q 265 310 218 325 q 381 296 311 296 q 461 308 424 296 q 522 349 499 321 q 546 425 546 378 q 534 480 546 451 q 493 528 522 508 q 410 549 464 549 q 315 515 361 549 q 240 431 269 482 q 211 322 211 379 q 243 182 211 238 q 330 99 275 126 q 453 67 385 71 q 597 79 522 63 l 582 -3 m 279 779 q 276 849 276 811 q 276 917 275 886 l 404 914 q 402 849 404 879 q 401 782 400 818 l 279 779 m 501 779 q 498 849 499 811 q 499 917 497 886 l 626 914 q 624 849 626 879 q 624 782 622 818 l 501 779 z "},"ė":{"ha":746,"x_min":63,"x_max":685,"o":"m 582 -3 q 432 -8 507 -11 q 290 14 357 -4 q 172 69 224 32 q 92 163 121 106 q 63 304 63 221 q 92 449 63 388 q 172 551 122 510 q 281 612 221 592 q 403 632 342 632 q 559 597 496 632 q 653 508 622 561 q 683 400 685 456 q 663 310 683 354 q 596 237 643 265 q 465 208 549 208 q 394 214 436 208 q 306 230 351 219 q 222 255 261 240 q 158 288 182 269 l 192 342 q 265 310 218 325 q 381 296 311 296 q 461 308 424 296 q 522 349 499 321 q 546 425 546 378 q 534 480 546 451 q 493 528 522 508 q 410 549 464 549 q 315 515 361 549 q 240 431 269 482 q 211 322 211 379 q 243 182 211 238 q 330 99 275 126 q 453 67 385 71 q 597 79 522 63 l 582 -3 m 383 785 q 380 862 381 821 q 381 938 379 903 l 522 935 q 520 862 522 896 q 519 789 518 828 l 383 785 z "},"è":{"ha":746,"x_min":63,"x_max":685,"o":"m 582 -3 q 432 -8 507 -11 q 290 14 357 -4 q 172 69 224 32 q 92 163 121 106 q 63 304 63 221 q 92 449 63 388 q 172 551 122 510 q 281 612 221 592 q 403 632 342 632 q 559 597 496 632 q 653 508 622 561 q 683 400 685 456 q 663 310 683 354 q 596 237 643 265 q 465 208 549 208 q 394 214 436 208 q 306 230 351 219 q 222 255 261 240 q 158 288 182 269 l 192 342 q 265 310 218 325 q 381 296 311 296 q 461 308 424 296 q 522 349 499 321 q 546 425 546 378 q 534 480 546 451 q 493 528 522 508 q 410 549 464 549 q 315 515 361 549 q 240 431 269 482 q 211 322 211 379 q 243 182 211 238 q 330 99 275 126 q 453 67 385 71 q 597 79 522 63 l 582 -3 m 446 778 l 192 1043 l 250 1100 l 488 811 l 446 778 z "},"ē":{"ha":746,"x_min":63,"x_max":685,"o":"m 582 -3 q 432 -8 507 -11 q 290 14 357 -4 q 172 69 224 32 q 92 163 121 106 q 63 304 63 221 q 92 449 63 388 q 172 551 122 510 q 281 612 221 592 q 403 632 342 632 q 559 597 496 632 q 653 508 622 561 q 683 400 685 456 q 663 310 683 354 q 596 237 643 265 q 465 208 549 208 q 394 214 436 208 q 306 230 351 219 q 222 255 261 240 q 158 288 182 269 l 192 342 q 265 310 218 325 q 381 296 311 296 q 461 308 424 296 q 522 349 499 321 q 546 425 546 378 q 534 480 546 451 q 493 528 522 508 q 410 549 464 549 q 315 515 361 549 q 240 431 269 482 q 211 322 211 379 q 243 182 211 238 q 330 99 275 126 q 453 67 385 71 q 597 79 522 63 l 582 -3 m 610 785 l 278 788 l 292 854 l 619 835 l 610 785 z "},"ę":{"ha":746,"x_min":63,"x_max":685,"o":"m 582 -3 q 432 -8 507 -11 q 290 14 357 -4 q 172 69 224 32 q 92 163 121 106 q 63 304 63 221 q 92 449 63 388 q 172 551 122 510 q 281 612 221 592 q 403 632 342 632 q 559 597 496 632 q 653 508 622 561 q 683 400 685 456 q 663 310 683 354 q 596 237 643 265 q 465 208 549 208 q 394 214 436 208 q 306 230 351 219 q 222 255 261 240 q 158 288 182 269 l 192 342 q 265 310 218 325 q 381 296 311 296 q 461 308 424 296 q 522 349 499 321 q 546 425 546 378 q 534 480 546 451 q 493 528 522 508 q 410 549 464 549 q 315 515 361 549 q 240 431 269 482 q 211 322 211 379 q 243 182 211 238 q 330 99 275 126 q 453 67 385 71 q 597 79 522 63 l 582 -3 m 585 -294 q 476 -278 525 -294 q 400 -231 428 -261 q 372 -161 372 -200 q 415 -71 372 -117 q 536 11 458 -25 l 582 -3 q 466 -78 503 -42 q 429 -150 429 -114 q 474 -215 429 -193 q 590 -229 518 -237 l 585 -294 z "},"ẽ":{"ha":746,"x_min":63,"x_max":685,"o":"m 582 -3 q 432 -8 507 -11 q 290 14 357 -4 q 172 69 224 32 q 92 163 121 106 q 63 304 63 221 q 92 449 63 388 q 172 551 122 510 q 281 612 221 592 q 403 632 342 632 q 559 597 496 632 q 653 508 622 561 q 683 400 685 456 q 663 310 683 354 q 596 237 643 265 q 465 208 549 208 q 394 214 436 208 q 306 230 351 219 q 222 255 261 240 q 158 288 182 269 l 192 342 q 265 310 218 325 q 381 296 311 296 q 461 308 424 296 q 522 349 499 321 q 546 425 546 378 q 534 480 546 451 q 493 528 522 508 q 410 549 464 549 q 315 515 361 549 q 240 431 269 482 q 211 322 211 379 q 243 182 211 238 q 330 99 275 126 q 453 67 385 71 q 597 79 522 63 l 582 -3 m 286 771 l 224 776 q 241 877 224 839 q 287 933 258 915 q 349 950 315 950 q 408 931 382 950 q 456 886 433 911 q 501 842 478 861 q 551 822 525 822 q 605 858 589 822 q 618 949 621 894 l 674 944 q 655 841 674 881 q 610 784 636 801 q 563 767 585 767 q 505 786 532 767 q 452 831 478 806 q 401 875 426 856 q 351 894 376 894 q 301 859 318 894 q 286 771 285 824 z "},"f":{"ha":593,"x_min":39,"x_max":528,"o":"m 256 -3 l 113 0 q 108 268 111 139 q 104 496 104 397 q 154 817 104 700 q 297 982 204 933 q 518 1031 390 1031 l 528 903 q 351 893 425 915 q 240 802 276 871 q 215 604 204 733 q 223 490 219 560 q 231 338 226 421 q 242 167 236 256 q 256 -3 249 79 m 417 536 q 239 560 324 556 q 49 557 154 564 l 39 628 q 242 638 151 636 q 433 626 333 639 l 417 536 z "},"g":{"ha":801,"x_min":63,"x_max":697,"o":"m 100 -361 l 138 -236 q 357 -276 268 -278 q 499 -239 446 -274 q 574 -147 551 -204 q 593 -19 596 -90 q 588 107 590 42 q 579 249 585 172 q 565 422 574 326 q 544 640 557 518 l 689 646 q 693 533 692 597 q 696 394 694 468 q 697 245 697 321 q 697 99 697 169 q 656 -156 696 -56 q 538 -311 615 -257 q 351 -376 461 -365 q 100 -361 242 -387 m 289 -19 q 177 8 229 -19 q 94 87 125 36 q 63 208 63 138 q 88 327 63 267 q 170 444 114 388 q 319 551 226 501 q 544 640 411 601 l 578 560 q 388 492 460 533 q 278 403 315 450 q 227 313 240 357 q 214 239 214 269 q 244 141 214 179 q 333 103 274 103 q 443 134 388 103 q 536 226 499 165 q 572 375 574 288 l 653 443 q 608 232 644 319 q 519 89 572 144 q 406 7 465 33 q 289 -19 346 -19 z "},"ğ":{"ha":801,"x_min":63,"x_max":697,"o":"m 100 -361 l 138 -236 q 357 -276 268 -278 q 499 -239 446 -274 q 574 -147 551 -204 q 593 -19 596 -90 q 588 107 590 42 q 579 249 585 172 q 565 422 574 326 q 544 640 557 518 l 689 646 q 693 533 692 597 q 696 394 694 468 q 697 245 697 321 q 697 99 697 169 q 656 -156 696 -56 q 538 -311 615 -257 q 351 -376 461 -365 q 100 -361 242 -387 m 289 -19 q 177 8 229 -19 q 94 87 125 36 q 63 208 63 138 q 88 327 63 267 q 170 444 114 388 q 319 551 226 501 q 544 640 411 601 l 578 560 q 388 492 460 533 q 278 403 315 450 q 227 313 240 357 q 214 239 214 269 q 244 141 214 179 q 333 103 274 103 q 443 134 388 103 q 536 226 499 165 q 572 375 574 288 l 653 443 q 608 232 644 319 q 519 89 572 144 q 406 7 465 33 q 289 -19 346 -19 m 449 782 q 366 800 408 782 q 296 859 324 818 q 268 969 268 900 l 343 974 q 378 865 347 894 q 449 835 410 835 q 526 870 503 835 q 550 986 550 906 l 631 994 q 585 841 631 900 q 449 782 540 782 z "},"ģ":{"ha":801,"x_min":63,"x_max":697,"o":"m 100 -361 l 138 -236 q 357 -276 268 -278 q 499 -239 446 -274 q 574 -147 551 -204 q 593 -19 596 -90 q 588 107 590 42 q 579 249 585 172 q 565 422 574 326 q 544 640 557 518 l 689 646 q 693 533 692 597 q 696 394 694 468 q 697 245 697 321 q 697 99 697 169 q 656 -156 696 -56 q 538 -311 615 -257 q 351 -376 461 -365 q 100 -361 242 -387 m 289 -19 q 177 8 229 -19 q 94 87 125 36 q 63 208 63 138 q 88 327 63 267 q 170 444 114 388 q 319 551 226 501 q 544 640 411 601 l 578 560 q 388 492 460 533 q 278 403 315 450 q 227 313 240 357 q 214 239 214 269 q 244 141 214 179 q 333 103 274 103 q 443 134 388 103 q 536 226 499 165 q 572 375 574 288 l 653 443 q 608 232 644 319 q 519 89 572 144 q 406 7 465 33 q 289 -19 346 -19 m 460 1035 l 503 969 q 458 922 478 953 q 432 879 439 890 l 417 892 l 497 894 q 501 839 500 868 q 500 785 501 810 l 399 788 q 399 840 399 815 q 401 892 400 864 q 416 972 403 939 q 460 1035 429 1004 z "},"ġ":{"ha":801,"x_min":63,"x_max":697,"o":"m 100 -361 l 138 -236 q 357 -276 268 -278 q 499 -239 446 -274 q 574 -147 551 -204 q 593 -19 596 -90 q 588 107 590 42 q 579 249 585 172 q 565 422 574 326 q 544 640 557 518 l 689 646 q 693 533 692 597 q 696 394 694 468 q 697 245 697 321 q 697 99 697 169 q 656 -156 696 -56 q 538 -311 615 -257 q 351 -376 461 -365 q 100 -361 242 -387 m 289 -19 q 177 8 229 -19 q 94 87 125 36 q 63 208 63 138 q 88 327 63 267 q 170 444 114 388 q 319 551 226 501 q 544 640 411 601 l 578 560 q 388 492 460 533 q 278 403 315 450 q 227 313 240 357 q 214 239 214 269 q 244 141 214 179 q 333 103 274 103 q 443 134 388 103 q 536 226 499 165 q 572 375 574 288 l 653 443 q 608 232 644 319 q 519 89 572 144 q 406 7 465 33 q 289 -19 346 -19 m 383 785 q 380 862 381 821 q 381 938 379 903 l 522 935 q 520 862 522 896 q 519 789 518 828 l 383 785 z "},"h":{"ha":838,"x_min":104,"x_max":749,"o":"m 224 7 l 113 -3 q 123 272 119 132 q 125 553 126 413 q 119 828 124 693 q 104 1089 114 964 l 249 1111 q 256 573 260 850 q 224 7 253 296 m 731 -11 l 585 4 q 613 183 606 99 q 613 339 619 268 q 587 462 606 410 q 538 542 568 514 q 465 571 507 571 q 375 526 417 571 q 302 402 333 481 q 251 222 271 324 q 224 7 231 119 l 138 174 q 159 288 142 225 q 206 415 176 351 q 276 531 235 478 q 373 615 318 583 q 496 647 428 647 q 624 606 574 647 q 701 497 674 565 q 739 342 729 428 q 745 165 749 257 q 731 -11 742 74 z "},"ħ":{"ha":838,"x_min":19,"x_max":749,"o":"m 19 801 l 22 935 l 579 918 l 579 819 l 19 801 m 224 7 l 113 -3 q 123 272 119 132 q 125 553 126 413 q 119 828 124 693 q 104 1089 114 964 l 249 1111 q 256 573 260 850 q 224 7 253 296 m 731 -11 l 585 4 q 613 183 606 99 q 613 339 619 268 q 587 462 606 410 q 538 542 568 514 q 465 571 507 571 q 375 526 417 571 q 302 402 333 481 q 251 222 271 324 q 224 7 231 119 l 138 174 q 159 288 142 225 q 206 415 176 351 q 276 531 235 478 q 373 615 318 583 q 496 647 428 647 q 624 606 574 647 q 701 497 674 565 q 739 342 729 428 q 745 165 749 257 q 731 -11 742 74 z "},"i":{"ha":360,"x_min":75,"x_max":256,"o":"m 94 729 q 86 810 93 774 q 75 888 79 847 l 228 907 q 238 825 235 869 q 240 740 242 781 l 94 729 m 221 7 l 113 -3 q 124 309 124 143 q 104 629 124 475 l 249 647 q 255 438 256 538 q 246 235 254 339 q 221 7 238 132 z "},"ı":{"ha":360,"x_min":104,"x_max":256,"o":"m 221 7 l 113 -3 q 124 309 124 143 q 104 629 124 475 l 249 647 q 255 438 256 538 q 246 235 254 339 q 221 7 238 132 z "},"í":{"ha":360,"x_min":104,"x_max":426,"o":"m 221 7 l 113 -3 q 124 309 124 143 q 104 629 124 475 l 249 647 q 255 438 256 538 q 246 235 254 339 q 221 7 238 132 m 171 778 l 129 811 l 368 1100 l 426 1043 l 171 778 z "},"î":{"ha":360,"x_min":-54,"x_max":396,"o":"m 221 7 l 113 -3 q 124 309 124 143 q 104 629 124 475 l 249 647 q 255 438 256 538 q 246 235 254 339 q 221 7 238 132 m 25 758 l -54 800 l 171 1044 l 188 967 l 25 758 m 317 758 l 154 967 l 171 1044 l 396 800 l 317 758 z "},"ï":{"ha":360,"x_min":-3,"x_max":349,"o":"m 221 7 l 113 -3 q 124 309 124 143 q 104 629 124 475 l 249 647 q 255 438 256 538 q 246 235 254 339 q 221 7 238 132 m 1 779 q -2 849 -1 811 q -1 917 -3 886 l 126 914 q 124 849 126 879 q 124 782 122 818 l 1 779 m 224 779 q 220 849 221 811 q 221 917 219 886 l 349 914 q 347 849 349 879 q 346 782 344 818 l 224 779 z "},"ì":{"ha":360,"x_min":-86,"x_max":256,"o":"m 221 7 l 113 -3 q 124 309 124 143 q 104 629 124 475 l 249 647 q 255 438 256 538 q 246 235 254 339 q 221 7 238 132 m 168 778 l -86 1043 l -28 1100 l 210 811 l 168 778 z "},"ĳ":{"ha":754,"x_min":75,"x_max":626,"o":"m 94 729 q 86 810 93 774 q 75 888 79 847 l 228 907 q 238 825 235 869 q 240 740 242 781 l 94 729 m 221 7 l 113 -3 q 124 309 124 143 q 104 629 124 475 l 249 647 q 255 438 256 538 q 246 235 254 339 q 221 7 238 132 m 454 729 q 446 810 453 774 q 435 888 439 847 l 588 907 q 598 825 594 869 q 600 740 601 781 l 454 729 m 615 83 q 499 -255 596 -154 q 211 -339 401 -356 l 199 -258 q 345 -247 289 -265 q 433 -187 401 -228 q 477 -92 464 -147 q 493 31 490 -36 q 495 184 496 104 q 488 370 494 264 q 464 626 481 476 l 617 650 q 624 429 622 526 q 624 249 626 332 q 615 83 622 167 z "},"ī":{"ha":360,"x_min":0,"x_max":342,"o":"m 221 7 l 113 -3 q 124 309 124 143 q 104 629 124 475 l 249 647 q 255 438 256 538 q 246 235 254 339 q 221 7 238 132 m 332 785 l 0 788 l 14 854 l 342 835 l 332 785 z "},"į":{"ha":360,"x_min":11,"x_max":256,"o":"m 221 7 l 113 -3 q 124 309 124 143 q 104 629 124 475 l 249 647 q 255 438 256 538 q 246 235 254 339 q 221 7 238 132 m 106 785 q 102 862 103 821 q 103 938 101 903 l 244 935 q 242 862 244 896 q 242 789 240 828 l 106 785 m 224 -285 q 115 -268 164 -285 q 39 -221 67 -251 q 11 -151 11 -190 q 54 -61 11 -107 q 175 21 97 -15 l 221 7 q 105 -68 142 -32 q 68 -140 68 -104 q 113 -206 68 -183 q 229 -219 157 -228 l 224 -285 z "},"ĩ":{"ha":360,"x_min":-54,"x_max":396,"o":"m 221 7 l 113 -3 q 124 309 124 143 q 104 629 124 475 l 249 647 q 255 438 256 538 q 246 235 254 339 q 221 7 238 132 m 8 771 l -54 776 q -37 877 -54 839 q 9 933 -19 915 q 71 950 38 950 q 130 931 104 950 q 178 886 156 911 q 224 842 200 861 q 274 822 247 822 q 327 858 311 822 q 340 949 343 894 l 396 944 q 377 841 396 881 q 333 784 358 801 q 285 767 307 767 q 227 786 254 767 q 174 831 200 806 q 124 875 149 856 q 74 894 99 894 q 24 859 40 894 q 8 771 7 824 z "},"j":{"ha":394,"x_min":-161,"x_max":267,"o":"m 94 729 q 86 810 93 774 q 75 888 79 847 l 228 907 q 238 825 235 869 q 240 740 242 781 l 94 729 m 256 83 q 139 -255 236 -154 q -149 -339 42 -356 l -161 -258 q -15 -247 -71 -265 q 73 -187 42 -228 q 117 -92 104 -147 q 133 31 131 -36 q 135 184 136 104 q 128 370 135 264 q 104 626 121 476 l 257 650 q 265 429 263 526 q 265 249 267 332 q 256 83 263 167 z "},"ȷ":{"ha":356,"x_min":-161,"x_max":267,"o":"m 256 83 q 139 -255 236 -154 q -149 -339 42 -356 l -161 -258 q -15 -247 -71 -265 q 73 -187 42 -228 q 117 -92 104 -147 q 133 31 131 -36 q 135 184 136 104 q 128 370 135 264 q 104 626 121 476 l 257 650 q 265 429 263 526 q 265 249 267 332 q 256 83 263 167 z "},"k":{"ha":768,"x_min":104,"x_max":726,"o":"m 571 -8 q 524 111 553 58 q 456 204 494 164 q 372 274 418 244 q 272 324 326 303 l 333 406 q 569 272 467 372 q 726 35 671 172 l 571 -8 m 224 7 l 214 218 q 295 421 235 326 q 448 583 356 515 q 653 682 540 651 l 653 556 q 431 449 522 531 q 289 253 340 368 q 224 7 238 138 m 224 7 l 113 -3 q 123 272 119 132 q 125 553 126 413 q 119 828 124 693 q 104 1089 114 964 l 249 1111 q 256 573 260 850 q 224 7 253 296 z "},"ķ":{"ha":768,"x_min":104,"x_max":726,"o":"m 571 -8 q 524 111 553 58 q 456 204 494 164 q 372 274 418 244 q 272 324 326 303 l 333 406 q 569 272 467 372 q 726 35 671 172 l 571 -8 m 224 7 l 214 218 q 295 421 235 326 q 448 583 356 515 q 653 682 540 651 l 653 556 q 431 449 522 531 q 289 253 340 368 q 224 7 238 138 m 224 7 l 113 -3 q 123 272 119 132 q 125 553 126 413 q 119 828 124 693 q 104 1089 114 964 l 249 1111 q 256 573 260 850 q 224 7 253 296 m 425 -328 l 382 -262 q 424 -222 407 -246 q 449 -172 442 -199 l 468 -185 l 388 -187 q 384 -132 385 -161 q 385 -78 383 -103 l 486 -81 q 485 -132 486 -107 q 483 -185 485 -157 q 469 -264 482 -232 q 425 -328 456 -296 z "},"l":{"ha":361,"x_min":104,"x_max":260,"o":"m 224 7 l 113 -3 q 123 272 119 132 q 125 553 126 413 q 119 828 124 693 q 104 1089 114 964 l 249 1111 q 256 573 260 850 q 224 7 253 296 z "},"ĺ":{"ha":361,"x_min":104,"x_max":440,"o":"m 224 7 l 113 -3 q 123 272 119 132 q 125 553 126 413 q 119 828 124 693 q 104 1089 114 964 l 249 1111 q 256 573 260 850 q 224 7 253 296 m 185 1208 l 143 1242 l 382 1531 l 440 1474 l 185 1208 z "},"ľ":{"ha":400,"x_min":104,"x_max":421,"o":"m 224 7 l 113 -3 q 123 272 119 132 q 125 553 126 413 q 119 828 124 693 q 104 1089 114 964 l 249 1111 q 256 573 260 850 q 224 7 253 296 m 343 851 l 335 1129 l 421 1136 l 403 865 l 343 851 z "},"ļ":{"ha":361,"x_min":104,"x_max":260,"o":"m 224 7 l 113 -3 q 123 272 119 132 q 125 553 126 413 q 119 828 124 693 q 104 1089 114 964 l 249 1111 q 256 573 260 850 q 224 7 253 296 m 156 -383 l 113 -318 q 155 -278 138 -301 q 179 -228 172 -254 l 199 -240 l 118 -243 q 115 -187 115 -217 q 115 -133 114 -158 l 217 -136 q 216 -187 217 -162 q 214 -240 215 -212 q 199 -319 213 -287 q 156 -383 186 -351 z "},"ł":{"ha":361,"x_min":-54,"x_max":472,"o":"m 3 294 l -54 403 l 426 713 l 472 625 l 3 294 m 224 7 l 113 -3 q 123 272 119 132 q 125 553 126 413 q 119 828 124 693 q 104 1089 114 964 l 249 1111 q 256 573 260 850 q 224 7 253 296 z "},"m":{"ha":1243,"x_min":104,"x_max":1156,"o":"m 710 -6 l 560 0 q 584 180 579 94 q 581 337 589 265 q 556 460 574 408 q 513 542 539 513 q 457 571 488 571 q 370 524 406 571 q 310 398 335 478 q 272 215 286 318 q 250 0 258 113 l 163 188 q 181 301 167 239 q 221 424 196 363 q 283 535 246 485 q 370 617 321 586 q 483 647 419 647 q 598 607 551 647 q 672 499 644 567 q 710 346 699 431 q 722 170 722 261 q 710 -6 721 79 m 250 0 l 104 -14 q 126 304 124 143 q 114 619 128 465 l 231 642 q 253 415 247 519 q 258 212 260 311 q 250 0 257 113 m 1133 -8 l 988 1 q 1015 211 1008 110 q 1012 393 1022 313 q 972 522 1001 474 q 890 569 942 569 q 819 531 850 569 q 767 426 789 492 q 733 280 746 361 q 718 114 721 199 l 646 353 q 697 494 658 428 q 797 603 736 561 q 939 646 858 646 q 1049 610 1006 646 q 1116 510 1092 574 q 1148 365 1140 447 q 1151 186 1156 282 q 1133 -8 1147 90 z "},"n":{"ha":867,"x_min":104,"x_max":778,"o":"m 760 -11 l 614 4 q 642 183 635 99 q 642 339 649 268 q 616 462 635 410 q 567 542 597 514 q 494 571 536 571 q 404 524 446 571 q 330 398 363 478 q 277 215 297 318 q 250 0 257 113 l 167 174 q 188 288 171 225 q 235 415 206 351 q 306 531 264 478 q 402 615 347 583 q 525 647 457 647 q 653 606 603 647 q 731 497 703 565 q 768 342 758 428 q 774 165 778 257 q 760 -11 771 74 m 250 0 l 104 -14 q 126 304 125 143 q 113 619 128 465 l 226 642 q 247 469 240 550 q 256 313 254 388 q 256 160 258 238 q 250 0 254 83 z "},"ń":{"ha":867,"x_min":104,"x_max":778,"o":"m 760 -11 l 614 4 q 642 183 635 99 q 642 339 649 268 q 616 462 635 410 q 567 542 597 514 q 494 571 536 571 q 404 524 446 571 q 330 398 363 478 q 277 215 297 318 q 250 0 257 113 l 167 174 q 188 288 171 225 q 235 415 206 351 q 306 531 264 478 q 402 615 347 583 q 525 647 457 647 q 653 606 603 647 q 731 497 703 565 q 768 342 758 428 q 774 165 778 257 q 760 -11 771 74 m 250 0 l 104 -14 q 126 304 125 143 q 113 619 128 465 l 226 642 q 247 469 240 550 q 256 313 254 388 q 256 160 258 238 q 250 0 254 83 m 517 778 l 475 811 l 714 1100 l 772 1043 l 517 778 z "},"ň":{"ha":867,"x_min":104,"x_max":778,"o":"m 760 -11 l 614 4 q 642 183 635 99 q 642 339 649 268 q 616 462 635 410 q 567 542 597 514 q 494 571 536 571 q 404 524 446 571 q 330 398 363 478 q 277 215 297 318 q 250 0 257 113 l 167 174 q 188 288 171 225 q 235 415 206 351 q 306 531 264 478 q 402 615 347 583 q 525 647 457 647 q 653 606 603 647 q 731 497 703 565 q 768 342 758 428 q 774 165 778 257 q 760 -11 771 74 m 250 0 l 104 -14 q 126 304 125 143 q 113 619 128 465 l 226 642 q 247 469 240 550 q 256 313 254 388 q 256 160 258 238 q 250 0 254 83 m 371 1040 l 533 832 l 517 754 l 292 999 l 371 1040 m 663 1040 l 742 999 l 517 754 l 500 832 l 663 1040 z "},"ņ":{"ha":867,"x_min":104,"x_max":778,"o":"m 760 -11 l 614 4 q 642 183 635 99 q 642 339 649 268 q 616 462 635 410 q 567 542 597 514 q 494 571 536 571 q 404 524 446 571 q 330 398 363 478 q 277 215 297 318 q 250 0 257 113 l 167 174 q 188 288 171 225 q 235 415 206 351 q 306 531 264 478 q 402 615 347 583 q 525 647 457 647 q 653 606 603 647 q 731 497 703 565 q 768 342 758 428 q 774 165 778 257 q 760 -11 771 74 m 250 0 l 104 -14 q 126 304 125 143 q 113 619 128 465 l 226 642 q 247 469 240 550 q 256 313 254 388 q 256 160 258 238 q 250 0 254 83 m 438 -328 l 394 -262 q 437 -222 419 -246 q 461 -172 454 -199 l 481 -185 l 400 -187 q 397 -132 397 -161 q 397 -78 396 -103 l 499 -81 q 498 -132 499 -107 q 496 -185 497 -157 q 481 -264 494 -232 q 438 -328 468 -296 z "},"ñ":{"ha":867,"x_min":104,"x_max":778,"o":"m 760 -11 l 614 4 q 642 183 635 99 q 642 339 649 268 q 616 462 635 410 q 567 542 597 514 q 494 571 536 571 q 404 524 446 571 q 330 398 363 478 q 277 215 297 318 q 250 0 257 113 l 167 174 q 188 288 171 225 q 235 415 206 351 q 306 531 264 478 q 402 615 347 583 q 525 647 457 647 q 653 606 603 647 q 731 497 703 565 q 768 342 758 428 q 774 165 778 257 q 760 -11 771 74 m 250 0 l 104 -14 q 126 304 125 143 q 113 619 128 465 l 226 642 q 247 469 240 550 q 256 313 254 388 q 256 160 258 238 q 250 0 254 83 m 354 771 l 292 776 q 309 877 292 839 q 355 933 326 915 q 417 950 383 950 q 476 931 450 950 q 524 886 501 911 q 569 842 546 861 q 619 822 593 822 q 673 858 657 822 q 686 949 689 894 l 742 944 q 723 841 742 881 q 678 784 704 801 q 631 767 653 767 q 573 786 600 767 q 520 831 546 806 q 469 875 494 856 q 419 894 444 894 q 369 859 386 894 q 354 771 353 824 z "},"ŋ":{"ha":867,"x_min":104,"x_max":779,"o":"m 365 -339 l 353 -258 q 497 -221 438 -258 q 594 -120 557 -183 q 650 22 632 -57 q 669 181 668 100 q 659 325 671 256 q 626 450 647 394 q 574 538 604 506 q 508 571 544 571 q 410 524 454 571 q 332 398 365 478 q 278 215 299 318 q 250 0 257 113 l 167 174 q 188 288 171 225 q 235 415 206 351 q 306 531 264 478 q 402 615 347 583 q 525 647 457 647 q 645 608 596 647 q 724 503 694 568 q 767 358 754 438 q 776 200 779 279 q 753 -12 774 88 q 686 -185 732 -111 q 563 -301 640 -260 q 365 -339 485 -342 m 104 -14 q 126 304 125 143 q 113 619 128 465 l 226 642 q 247 469 240 550 q 256 313 254 388 q 256 160 258 238 q 250 0 254 83 l 104 -14 z "},"o":{"ha":760,"x_min":63,"x_max":697,"o":"m 375 -17 q 201 31 271 -17 q 97 153 132 78 q 63 310 63 228 q 97 469 63 393 q 201 594 132 546 q 372 643 271 643 q 553 595 481 643 q 661 472 625 547 q 697 314 697 397 q 661 156 697 232 q 553 31 625 79 q 375 -17 482 -17 m 388 60 q 494 96 454 60 q 553 188 535 132 q 571 306 571 244 q 549 410 571 361 q 485 491 526 460 q 382 522 443 522 q 281 490 324 522 q 217 408 239 458 q 194 303 194 358 q 219 181 194 236 q 288 92 244 125 q 388 60 332 60 z "},"ó":{"ha":760,"x_min":63,"x_max":697,"o":"m 375 -17 q 201 31 271 -17 q 97 153 132 78 q 63 310 63 228 q 97 469 63 393 q 201 594 132 546 q 372 643 271 643 q 553 595 481 643 q 661 472 625 547 q 697 314 697 397 q 661 156 697 232 q 553 31 625 79 q 375 -17 482 -17 m 388 60 q 494 96 454 60 q 553 188 535 132 q 571 306 571 244 q 549 410 571 361 q 485 491 526 460 q 382 522 443 522 q 281 490 324 522 q 217 408 239 458 q 194 303 194 358 q 219 181 194 236 q 288 92 244 125 q 388 60 332 60 m 371 778 l 329 811 l 568 1100 l 626 1043 l 371 778 z "},"ô":{"ha":760,"x_min":63,"x_max":697,"o":"m 375 -17 q 201 31 271 -17 q 97 153 132 78 q 63 310 63 228 q 97 469 63 393 q 201 594 132 546 q 372 643 271 643 q 553 595 481 643 q 661 472 625 547 q 697 314 697 397 q 661 156 697 232 q 553 31 625 79 q 375 -17 482 -17 m 388 60 q 494 96 454 60 q 553 188 535 132 q 571 306 571 244 q 549 410 571 361 q 485 491 526 460 q 382 522 443 522 q 281 490 324 522 q 217 408 239 458 q 194 303 194 358 q 219 181 194 236 q 288 92 244 125 q 388 60 332 60 m 225 758 l 146 800 l 371 1044 l 388 967 l 225 758 m 517 758 l 354 967 l 371 1044 l 596 800 l 517 758 z "},"ö":{"ha":760,"x_min":63,"x_max":697,"o":"m 375 -17 q 201 31 271 -17 q 97 153 132 78 q 63 310 63 228 q 97 469 63 393 q 201 594 132 546 q 372 643 271 643 q 553 595 481 643 q 661 472 625 547 q 697 314 697 397 q 661 156 697 232 q 553 31 625 79 q 375 -17 482 -17 m 388 60 q 494 96 454 60 q 553 188 535 132 q 571 306 571 244 q 549 410 571 361 q 485 491 526 460 q 382 522 443 522 q 281 490 324 522 q 217 408 239 458 q 194 303 194 358 q 219 181 194 236 q 288 92 244 125 q 388 60 332 60 m 201 779 q 198 849 199 811 q 199 917 197 886 l 326 914 q 324 849 326 879 q 324 782 322 818 l 201 779 m 424 779 q 420 849 421 811 q 421 917 419 886 l 549 914 q 547 849 549 879 q 546 782 544 818 l 424 779 z "},"ò":{"ha":760,"x_min":63,"x_max":697,"o":"m 375 -17 q 201 31 271 -17 q 97 153 132 78 q 63 310 63 228 q 97 469 63 393 q 201 594 132 546 q 372 643 271 643 q 553 595 481 643 q 661 472 625 547 q 697 314 697 397 q 661 156 697 232 q 553 31 625 79 q 375 -17 482 -17 m 388 60 q 494 96 454 60 q 553 188 535 132 q 571 306 571 244 q 549 410 571 361 q 485 491 526 460 q 382 522 443 522 q 281 490 324 522 q 217 408 239 458 q 194 303 194 358 q 219 181 194 236 q 288 92 244 125 q 388 60 332 60 m 368 778 l 114 1043 l 172 1100 l 410 811 l 368 778 z "},"ő":{"ha":760,"x_min":63,"x_max":697,"o":"m 375 -17 q 201 31 271 -17 q 97 153 132 78 q 63 310 63 228 q 97 469 63 393 q 201 594 132 546 q 372 643 271 643 q 553 595 481 643 q 661 472 625 547 q 697 314 697 397 q 661 156 697 232 q 553 31 625 79 q 375 -17 482 -17 m 388 60 q 494 96 454 60 q 553 188 535 132 q 571 306 571 244 q 549 410 571 361 q 485 491 526 460 q 382 522 443 522 q 281 490 324 522 q 217 408 239 458 q 194 303 194 358 q 219 181 194 236 q 288 92 244 125 q 388 60 332 60 m 176 778 l 135 811 l 374 1100 l 432 1043 l 176 778 m 440 779 l 399 813 l 638 1101 l 696 1044 l 440 779 z "},"ō":{"ha":760,"x_min":63,"x_max":697,"o":"m 375 -17 q 201 31 271 -17 q 97 153 132 78 q 63 310 63 228 q 97 469 63 393 q 201 594 132 546 q 372 643 271 643 q 553 595 481 643 q 661 472 625 547 q 697 314 697 397 q 661 156 697 232 q 553 31 625 79 q 375 -17 482 -17 m 388 60 q 494 96 454 60 q 553 188 535 132 q 571 306 571 244 q 549 410 571 361 q 485 491 526 460 q 382 522 443 522 q 281 490 324 522 q 217 408 239 458 q 194 303 194 358 q 219 181 194 236 q 288 92 244 125 q 388 60 332 60 m 532 785 l 200 788 l 214 854 l 542 835 l 532 785 z "},"ø":{"ha":821,"x_min":63,"x_max":697,"o":"m 243 -86 l 150 -56 l 535 711 l 660 678 l 243 -86 m 375 -17 q 201 31 271 -17 q 97 153 132 78 q 63 310 63 228 q 97 469 63 393 q 201 594 132 546 q 372 643 271 643 q 553 595 481 643 q 661 472 625 547 q 697 314 697 397 q 661 156 697 232 q 553 31 625 79 q 375 -17 482 -17 m 388 60 q 494 96 454 60 q 553 188 535 132 q 571 306 571 244 q 549 410 571 361 q 485 491 526 460 q 382 522 443 522 q 281 490 324 522 q 217 408 239 458 q 194 303 194 358 q 219 181 194 236 q 288 92 244 125 q 388 60 332 60 z "},"õ":{"ha":760,"x_min":63,"x_max":697,"o":"m 375 -17 q 201 31 271 -17 q 97 153 132 78 q 63 310 63 228 q 97 469 63 393 q 201 594 132 546 q 372 643 271 643 q 553 595 481 643 q 661 472 625 547 q 697 314 697 397 q 661 156 697 232 q 553 31 625 79 q 375 -17 482 -17 m 388 60 q 494 96 454 60 q 553 188 535 132 q 571 306 571 244 q 549 410 571 361 q 485 491 526 460 q 382 522 443 522 q 281 490 324 522 q 217 408 239 458 q 194 303 194 358 q 219 181 194 236 q 288 92 244 125 q 388 60 332 60 m 208 771 l 146 776 q 163 877 146 839 q 209 933 181 915 q 271 950 238 950 q 330 931 304 950 q 378 886 356 911 q 424 842 400 861 q 474 822 447 822 q 527 858 511 822 q 540 949 543 894 l 596 944 q 577 841 596 881 q 533 784 558 801 q 485 767 507 767 q 427 786 454 767 q 374 831 400 806 q 324 875 349 856 q 274 894 299 894 q 224 859 240 894 q 208 771 207 824 z "},"œ":{"ha":1258,"x_min":63,"x_max":1197,"o":"m 375 -17 q 201 31 271 -17 q 97 153 132 78 q 63 310 63 228 q 97 469 63 393 q 201 594 132 546 q 372 643 271 643 q 553 595 481 643 q 661 472 625 547 q 697 314 697 397 q 661 156 697 232 q 553 31 625 79 q 375 -17 482 -17 m 388 60 q 494 96 454 60 q 553 188 535 132 q 571 306 571 244 q 549 410 571 361 q 485 491 526 460 q 382 522 443 522 q 281 490 324 522 q 217 408 239 458 q 194 303 194 358 q 219 181 194 236 q 288 92 244 125 q 388 60 332 60 m 1094 -3 q 944 -8 1019 -11 q 803 14 869 -4 q 685 69 736 32 q 604 163 633 106 q 575 304 575 221 q 605 449 575 388 q 684 551 635 510 q 794 612 733 592 q 915 632 854 632 q 1072 597 1008 632 q 1166 508 1135 561 q 1196 400 1197 456 q 1176 310 1196 354 q 1108 237 1156 265 q 978 208 1061 208 q 906 214 949 208 q 819 230 864 219 q 734 255 774 240 q 671 288 694 269 l 704 342 q 777 310 731 325 q 893 296 824 296 q 974 308 936 296 q 1035 349 1011 321 q 1058 425 1058 378 q 1047 480 1058 451 q 1006 528 1035 508 q 922 549 976 549 q 828 515 874 549 q 753 431 782 482 q 724 322 724 379 q 756 182 724 238 q 842 99 788 126 q 966 67 897 71 q 1110 79 1035 63 l 1094 -3 z "},"p":{"ha":825,"x_min":104,"x_max":763,"o":"m 104 -419 q 116 -218 111 -319 q 123 -14 121 -117 q 125 193 125 89 q 122 403 125 297 q 113 617 118 510 l 224 635 q 247 359 239 490 q 256 103 254 228 q 256 -145 258 -21 q 249 -400 254 -269 l 104 -419 m 222 -47 l 197 26 q 386 96 307 54 q 517 188 465 138 q 592 292 568 238 q 617 400 617 347 q 583 488 617 454 q 493 522 549 522 q 375 483 431 522 q 285 376 319 444 q 251 218 251 308 l 165 175 q 208 386 174 299 q 294 529 243 474 q 406 611 346 585 q 525 638 465 638 q 642 610 589 638 q 729 531 696 582 q 763 410 763 481 q 738 287 763 351 q 653 160 713 222 q 488 44 593 97 q 222 -47 383 -10 z "},"þ":{"ha":825,"x_min":104,"x_max":763,"o":"m 104 -253 q 116 -49 111 -153 q 123 163 121 56 q 125 378 125 269 q 122 595 125 486 q 113 811 118 704 l 224 829 q 247 549 239 685 q 256 284 254 414 q 256 26 258 154 q 249 -233 254 -103 l 104 -253 m 222 -47 l 197 26 q 386 96 307 54 q 517 188 465 138 q 592 292 568 238 q 617 400 617 347 q 583 488 617 454 q 493 522 549 522 q 375 483 431 522 q 285 376 319 444 q 251 218 251 308 l 165 175 q 208 386 174 299 q 294 529 243 474 q 406 611 346 585 q 525 638 465 638 q 642 610 589 638 q 729 531 696 582 q 763 410 763 481 q 738 287 763 351 q 653 160 713 222 q 488 44 593 97 q 222 -47 383 -10 z "},"q":{"ha":776,"x_min":63,"x_max":672,"o":"m 289 -12 q 177 13 229 -12 q 94 88 125 39 q 63 208 63 138 q 110 363 63 288 q 267 503 158 438 q 553 621 375 569 l 586 540 q 394 476 468 514 q 282 394 321 438 q 228 310 243 350 q 214 239 214 269 q 244 138 214 179 q 333 96 274 96 q 471 170 414 96 q 533 375 528 244 l 614 443 q 576 233 606 319 q 500 92 546 146 q 400 13 454 38 q 289 -12 346 -12 m 528 -424 q 514 -83 515 -249 q 523 256 513 83 q 553 621 533 429 l 664 631 q 647 109 650 363 q 672 -394 644 -144 l 528 -424 z "},"r":{"ha":660,"x_min":104,"x_max":618,"o":"m 250 -4 l 192 153 q 233 373 196 272 q 330 542 269 474 q 465 635 390 611 q 618 624 539 660 l 589 483 q 441 508 501 522 q 342 431 381 494 q 283 258 304 367 q 250 -4 261 149 m 250 -4 l 104 -18 q 124 194 118 88 q 126 406 129 300 q 113 615 124 513 l 226 638 q 247 465 240 546 q 256 308 254 383 q 256 156 258 233 q 250 -4 254 79 z "},"ŕ":{"ha":660,"x_min":104,"x_max":729,"o":"m 250 -4 l 192 153 q 233 373 196 272 q 330 542 269 474 q 465 635 390 611 q 618 624 539 660 l 589 483 q 441 508 501 522 q 342 431 381 494 q 283 258 304 367 q 250 -4 261 149 m 250 -4 l 104 -18 q 124 194 118 88 q 126 406 129 300 q 113 615 124 513 l 226 638 q 247 465 240 546 q 256 308 254 383 q 256 156 258 233 q 250 -4 254 79 m 474 778 l 432 811 l 671 1100 l 729 1043 l 474 778 z "},"ř":{"ha":660,"x_min":104,"x_max":699,"o":"m 250 -4 l 192 153 q 233 373 196 272 q 330 542 269 474 q 465 635 390 611 q 618 624 539 660 l 589 483 q 441 508 501 522 q 342 431 381 494 q 283 258 304 367 q 250 -4 261 149 m 250 -4 l 104 -18 q 124 194 118 88 q 126 406 129 300 q 113 615 124 513 l 226 638 q 247 465 240 546 q 256 308 254 383 q 256 156 258 233 q 250 -4 254 79 m 328 1040 l 490 832 l 474 754 l 249 999 l 328 1040 m 619 1040 l 699 999 l 474 754 l 457 832 l 619 1040 z "},"ŗ":{"ha":660,"x_min":104,"x_max":618,"o":"m 250 -4 l 192 153 q 233 373 196 272 q 330 542 269 474 q 465 635 390 611 q 618 624 539 660 l 589 483 q 441 508 501 522 q 342 431 381 494 q 283 258 304 367 q 250 -4 261 149 m 250 -4 l 104 -18 q 124 194 118 88 q 126 406 129 300 q 113 615 124 513 l 226 638 q 247 465 240 546 q 256 308 254 383 q 256 156 258 233 q 250 -4 254 79 m 192 -369 l 149 -304 q 191 -264 174 -287 q 215 -214 208 -240 l 235 -226 l 154 -229 q 151 -174 151 -203 q 151 -119 150 -144 l 253 -122 q 252 -174 253 -149 q 250 -226 251 -199 q 235 -306 249 -274 q 192 -369 222 -337 z "},"s":{"ha":636,"x_min":63,"x_max":574,"o":"m 314 -29 q 183 -18 250 -29 q 63 10 117 -7 l 71 99 q 139 76 104 86 q 214 60 174 67 q 300 54 254 54 q 375 70 347 54 q 415 109 403 86 q 426 150 426 132 q 403 205 426 182 q 342 248 379 228 q 263 290 304 268 q 183 340 221 313 q 122 406 146 368 q 99 499 99 444 q 126 587 99 551 q 199 640 154 622 q 299 658 244 658 q 433 631 364 658 q 554 556 503 604 l 508 482 q 418 541 469 524 q 325 558 367 558 q 263 535 285 558 q 242 479 242 513 q 266 414 242 440 q 328 369 290 388 q 408 333 365 351 q 488 293 450 315 q 549 237 525 271 q 574 150 574 203 q 538 43 574 82 q 442 -12 501 4 q 314 -29 383 -29 z "},"ś":{"ha":636,"x_min":63,"x_max":574,"o":"m 314 -29 q 183 -18 250 -29 q 63 10 117 -7 l 71 99 q 139 76 104 86 q 214 60 174 67 q 300 54 254 54 q 375 70 347 54 q 415 109 403 86 q 426 150 426 132 q 403 205 426 182 q 342 248 379 228 q 263 290 304 268 q 183 340 221 313 q 122 406 146 368 q 99 499 99 444 q 126 587 99 551 q 199 640 154 622 q 299 658 244 658 q 433 631 364 658 q 554 556 503 604 l 508 482 q 418 541 469 524 q 325 558 367 558 q 263 535 285 558 q 242 479 242 513 q 266 414 242 440 q 328 369 290 388 q 408 333 365 351 q 488 293 450 315 q 549 237 525 271 q 574 150 574 203 q 538 43 574 82 q 442 -12 501 4 q 314 -29 383 -29 m 315 778 l 274 811 l 513 1100 l 571 1043 l 315 778 z "},"š":{"ha":636,"x_min":63,"x_max":574,"o":"m 314 -29 q 183 -18 250 -29 q 63 10 117 -7 l 71 99 q 139 76 104 86 q 214 60 174 67 q 300 54 254 54 q 375 70 347 54 q 415 109 403 86 q 426 150 426 132 q 403 205 426 182 q 342 248 379 228 q 263 290 304 268 q 183 340 221 313 q 122 406 146 368 q 99 499 99 444 q 126 587 99 551 q 199 640 154 622 q 299 658 244 658 q 433 631 364 658 q 554 556 503 604 l 508 482 q 418 541 469 524 q 325 558 367 558 q 263 535 285 558 q 242 479 242 513 q 266 414 242 440 q 328 369 290 388 q 408 333 365 351 q 488 293 450 315 q 549 237 525 271 q 574 150 574 203 q 538 43 574 82 q 442 -12 501 4 q 314 -29 383 -29 m 169 1040 l 332 832 l 315 754 l 90 999 l 169 1040 m 461 1040 l 540 999 l 315 754 l 299 832 l 461 1040 z "},"ş":{"ha":636,"x_min":63,"x_max":574,"o":"m 314 -29 q 183 -18 250 -29 q 63 10 117 -7 l 71 99 q 139 76 104 86 q 214 60 174 67 q 300 54 254 54 q 375 70 347 54 q 415 109 403 86 q 426 150 426 132 q 403 205 426 182 q 342 248 379 228 q 263 290 304 268 q 183 340 221 313 q 122 406 146 368 q 99 499 99 444 q 126 587 99 551 q 199 640 154 622 q 299 658 244 658 q 433 631 364 658 q 554 556 503 604 l 508 482 q 418 541 469 524 q 325 558 367 558 q 263 535 285 558 q 242 479 242 513 q 266 414 242 440 q 328 369 290 388 q 408 333 365 351 q 488 293 450 315 q 549 237 525 271 q 574 150 574 203 q 538 43 574 82 q 442 -12 501 4 q 314 -29 383 -29 m 208 -293 l 210 -233 q 263 -242 235 -239 q 318 -240 292 -244 q 361 -220 344 -235 q 378 -179 378 -206 q 363 -134 378 -150 q 325 -110 349 -118 q 274 -101 301 -103 q 219 -100 246 -100 l 250 -42 q 344 -60 304 -42 q 406 -107 383 -78 q 428 -172 428 -136 q 406 -244 428 -217 q 349 -283 383 -271 q 276 -297 314 -296 q 208 -293 239 -299 m 204 -100 l 254 22 l 322 25 l 238 -100 l 204 -100 z "},"ș":{"ha":636,"x_min":63,"x_max":574,"o":"m 314 -29 q 183 -18 250 -29 q 63 10 117 -7 l 71 99 q 139 76 104 86 q 214 60 174 67 q 300 54 254 54 q 375 70 347 54 q 415 109 403 86 q 426 150 426 132 q 403 205 426 182 q 342 248 379 228 q 263 290 304 268 q 183 340 221 313 q 122 406 146 368 q 99 499 99 444 q 126 587 99 551 q 199 640 154 622 q 299 658 244 658 q 433 631 364 658 q 554 556 503 604 l 508 482 q 418 541 469 524 q 325 558 367 558 q 263 535 285 558 q 242 479 242 513 q 266 414 242 440 q 328 369 290 388 q 408 333 365 351 q 488 293 450 315 q 549 237 525 271 q 574 150 574 203 q 538 43 574 82 q 442 -12 501 4 q 314 -29 383 -29 m 290 -354 l 247 -289 q 290 -249 272 -272 q 314 -199 307 -225 l 333 -211 l 253 -214 q 249 -158 250 -187 q 250 -104 249 -129 l 351 -107 q 351 -158 351 -133 q 349 -211 350 -183 q 334 -290 347 -258 q 290 -354 321 -322 z "},"ß":{"ha":946,"x_min":157,"x_max":844,"o":"m 182 -18 q 165 369 172 206 q 157 646 157 532 q 186 851 157 764 q 265 994 215 938 q 380 1078 315 1050 q 515 1106 444 1106 q 666 1078 596 1106 q 779 994 736 1051 q 822 842 822 936 q 792 724 822 778 q 710 627 763 669 q 586 559 657 585 q 433 526 515 533 l 424 606 q 560 649 504 618 q 647 728 617 679 q 676 842 676 776 q 635 983 676 932 q 524 1035 594 1035 q 424 999 474 1035 q 341 889 375 964 q 301 694 307 814 q 294 466 297 586 q 292 227 292 346 q 294 3 293 108 l 182 -18 m 461 13 l 450 86 q 586 131 529 93 q 674 222 643 168 q 706 333 706 276 q 684 429 706 392 q 629 488 663 467 q 558 517 596 508 q 486 527 519 526 q 433 526 453 528 l 442 579 q 540 592 486 589 q 647 588 593 596 q 745 554 700 579 q 817 482 790 529 q 844 360 844 435 q 813 222 844 285 q 728 112 782 158 q 606 39 675 65 q 461 13 538 13 z "},"t":{"ha":563,"x_min":14,"x_max":521,"o":"m 513 -1 q 322 17 397 -10 q 202 101 246 44 q 138 242 158 158 q 113 429 117 325 q 105 642 107 547 q 103 822 103 738 q 106 996 104 907 l 265 1018 q 241 781 251 890 q 224 570 231 671 q 217 367 218 469 q 256 215 217 265 q 365 151 296 165 q 521 146 435 138 l 513 -1 m 476 524 q 258 544 374 547 q 31 522 142 542 l 14 606 q 260 640 133 633 q 494 635 388 647 l 476 524 z "},"ť":{"ha":563,"x_min":14,"x_max":521,"o":"m 513 -1 q 322 17 397 -10 q 202 101 246 44 q 138 242 158 158 q 113 429 117 325 q 105 642 107 547 q 103 822 103 738 q 106 996 104 907 l 265 1018 q 241 781 251 890 q 224 570 231 671 q 217 367 218 469 q 256 215 217 265 q 365 151 296 165 q 521 146 435 138 l 513 -1 m 476 524 q 258 544 374 547 q 31 522 142 542 l 14 606 q 260 640 133 633 q 494 635 388 647 l 476 524 m 407 778 l 399 1056 l 485 1063 l 467 792 l 407 778 z "},"ţ":{"ha":563,"x_min":14,"x_max":521,"o":"m 513 -1 q 322 17 397 -10 q 202 101 246 44 q 138 242 158 158 q 113 429 117 325 q 105 642 107 547 q 103 822 103 738 q 106 996 104 907 l 265 1018 q 241 781 251 890 q 224 570 231 671 q 217 367 218 469 q 256 215 217 265 q 365 151 296 165 q 521 146 435 138 l 513 -1 m 476 524 q 258 544 374 547 q 31 522 142 542 l 14 606 q 260 640 133 633 q 494 635 388 647 l 476 524 m 300 -289 l 301 -229 q 355 -237 326 -235 q 410 -235 383 -240 q 453 -216 436 -231 q 469 -175 469 -201 q 455 -130 469 -146 q 417 -106 440 -114 q 365 -97 393 -99 q 311 -96 338 -96 l 342 -37 q 435 -56 396 -37 q 497 -103 475 -74 q 519 -168 519 -132 q 497 -240 519 -212 q 440 -279 475 -267 q 368 -293 406 -292 q 300 -289 331 -294 m 296 -96 l 346 26 l 414 29 l 329 -96 l 296 -96 z "},"ț":{"ha":563,"x_min":14,"x_max":521,"o":"m 513 -1 q 322 17 397 -10 q 202 101 246 44 q 138 242 158 158 q 113 429 117 325 q 105 642 107 547 q 103 822 103 738 q 106 996 104 907 l 265 1018 q 241 781 251 890 q 224 570 231 671 q 217 367 218 469 q 256 215 217 265 q 365 151 296 165 q 521 146 435 138 l 513 -1 m 476 524 q 258 544 374 547 q 31 522 142 542 l 14 606 q 260 640 133 633 q 494 635 388 647 l 476 524 m 378 -340 l 335 -275 q 377 -235 360 -258 q 401 -185 394 -211 l 421 -197 l 340 -200 q 337 -144 338 -174 q 338 -90 336 -115 l 439 -93 q 438 -144 439 -119 q 436 -197 438 -169 q 422 -276 435 -244 q 378 -340 408 -308 z "},"u":{"ha":867,"x_min":89,"x_max":763,"o":"m 342 -14 q 214 26 264 -14 q 136 132 164 65 q 99 282 108 199 q 92 456 89 365 q 107 631 96 546 l 253 643 q 225 463 232 549 q 225 303 218 376 q 251 176 232 231 q 300 92 269 122 q 372 63 331 63 q 463 109 421 63 q 537 235 504 156 q 590 418 569 315 q 617 633 610 521 l 700 460 q 678 345 696 408 q 632 219 661 282 q 561 103 603 156 q 465 18 519 50 q 342 -14 410 -14 m 640 -8 q 619 165 626 83 q 610 321 613 246 q 610 473 608 396 q 617 633 613 550 l 763 647 q 740 329 742 490 q 754 14 739 168 l 640 -8 z "},"ú":{"ha":867,"x_min":89,"x_max":763,"o":"m 342 -14 q 214 26 264 -14 q 136 132 164 65 q 99 282 108 199 q 92 456 89 365 q 107 631 96 546 l 253 643 q 225 463 232 549 q 225 303 218 376 q 251 176 232 231 q 300 92 269 122 q 372 63 331 63 q 463 109 421 63 q 537 235 504 156 q 590 418 569 315 q 617 633 610 521 l 700 460 q 678 345 696 408 q 632 219 661 282 q 561 103 603 156 q 465 18 519 50 q 342 -14 410 -14 m 640 -8 q 619 165 626 83 q 610 321 613 246 q 610 473 608 396 q 617 633 613 550 l 763 647 q 740 329 742 490 q 754 14 739 168 l 640 -8 m 446 778 l 404 811 l 643 1100 l 701 1043 l 446 778 z "},"ŭ":{"ha":867,"x_min":89,"x_max":763,"o":"m 342 -14 q 214 26 264 -14 q 136 132 164 65 q 99 282 108 199 q 92 456 89 365 q 107 631 96 546 l 253 643 q 225 463 232 549 q 225 303 218 376 q 251 176 232 231 q 300 92 269 122 q 372 63 331 63 q 463 109 421 63 q 537 235 504 156 q 590 418 569 315 q 617 633 610 521 l 700 460 q 678 345 696 408 q 632 219 661 282 q 561 103 603 156 q 465 18 519 50 q 342 -14 410 -14 m 640 -8 q 619 165 626 83 q 610 321 613 246 q 610 473 608 396 q 617 633 613 550 l 763 647 q 740 329 742 490 q 754 14 739 168 l 640 -8 m 446 782 q 363 800 406 782 q 293 859 321 818 q 265 969 265 900 l 340 974 q 376 865 344 894 q 446 835 407 835 q 524 870 500 835 q 547 986 547 906 l 628 994 q 583 841 628 900 q 446 782 538 782 z "},"û":{"ha":867,"x_min":89,"x_max":763,"o":"m 342 -14 q 214 26 264 -14 q 136 132 164 65 q 99 282 108 199 q 92 456 89 365 q 107 631 96 546 l 253 643 q 225 463 232 549 q 225 303 218 376 q 251 176 232 231 q 300 92 269 122 q 372 63 331 63 q 463 109 421 63 q 537 235 504 156 q 590 418 569 315 q 617 633 610 521 l 700 460 q 678 345 696 408 q 632 219 661 282 q 561 103 603 156 q 465 18 519 50 q 342 -14 410 -14 m 640 -8 q 619 165 626 83 q 610 321 613 246 q 610 473 608 396 q 617 633 613 550 l 763 647 q 740 329 742 490 q 754 14 739 168 l 640 -8 m 300 758 l 221 800 l 446 1044 l 463 967 l 300 758 m 592 758 l 429 967 l 446 1044 l 671 800 l 592 758 z "},"ü":{"ha":867,"x_min":89,"x_max":763,"o":"m 342 -14 q 214 26 264 -14 q 136 132 164 65 q 99 282 108 199 q 92 456 89 365 q 107 631 96 546 l 253 643 q 225 463 232 549 q 225 303 218 376 q 251 176 232 231 q 300 92 269 122 q 372 63 331 63 q 463 109 421 63 q 537 235 504 156 q 590 418 569 315 q 617 633 610 521 l 700 460 q 678 345 696 408 q 632 219 661 282 q 561 103 603 156 q 465 18 519 50 q 342 -14 410 -14 m 640 -8 q 619 165 626 83 q 610 321 613 246 q 610 473 608 396 q 617 633 613 550 l 763 647 q 740 329 742 490 q 754 14 739 168 l 640 -8 m 276 779 q 273 849 274 811 q 274 917 272 886 l 401 914 q 399 849 401 879 q 399 782 397 818 l 276 779 m 499 779 q 495 849 496 811 q 496 917 494 886 l 624 914 q 622 849 624 879 q 621 782 619 818 l 499 779 z "},"ù":{"ha":867,"x_min":89,"x_max":763,"o":"m 342 -14 q 214 26 264 -14 q 136 132 164 65 q 99 282 108 199 q 92 456 89 365 q 107 631 96 546 l 253 643 q 225 463 232 549 q 225 303 218 376 q 251 176 232 231 q 300 92 269 122 q 372 63 331 63 q 463 109 421 63 q 537 235 504 156 q 590 418 569 315 q 617 633 610 521 l 700 460 q 678 345 696 408 q 632 219 661 282 q 561 103 603 156 q 465 18 519 50 q 342 -14 410 -14 m 640 -8 q 619 165 626 83 q 610 321 613 246 q 610 473 608 396 q 617 633 613 550 l 763 647 q 740 329 742 490 q 754 14 739 168 l 640 -8 m 443 778 l 189 1043 l 247 1100 l 485 811 l 443 778 z "},"ű":{"ha":867,"x_min":89,"x_max":771,"o":"m 342 -14 q 214 26 264 -14 q 136 132 164 65 q 99 282 108 199 q 92 456 89 365 q 107 631 96 546 l 253 643 q 225 463 232 549 q 225 303 218 376 q 251 176 232 231 q 300 92 269 122 q 372 63 331 63 q 463 109 421 63 q 537 235 504 156 q 590 418 569 315 q 617 633 610 521 l 700 460 q 678 345 696 408 q 632 219 661 282 q 561 103 603 156 q 465 18 519 50 q 342 -14 410 -14 m 640 -8 q 619 165 626 83 q 610 321 613 246 q 610 473 608 396 q 617 633 613 550 l 763 647 q 740 329 742 490 q 754 14 739 168 l 640 -8 m 251 778 l 210 811 l 449 1100 l 507 1043 l 251 778 m 515 779 l 474 813 l 713 1101 l 771 1044 l 515 779 z "},"ū":{"ha":867,"x_min":89,"x_max":763,"o":"m 342 -14 q 214 26 264 -14 q 136 132 164 65 q 99 282 108 199 q 92 456 89 365 q 107 631 96 546 l 253 643 q 225 463 232 549 q 225 303 218 376 q 251 176 232 231 q 300 92 269 122 q 372 63 331 63 q 463 109 421 63 q 537 235 504 156 q 590 418 569 315 q 617 633 610 521 l 700 460 q 678 345 696 408 q 632 219 661 282 q 561 103 603 156 q 465 18 519 50 q 342 -14 410 -14 m 640 -8 q 619 165 626 83 q 610 321 613 246 q 610 473 608 396 q 617 633 613 550 l 763 647 q 740 329 742 490 q 754 14 739 168 l 640 -8 m 607 785 l 275 788 l 289 854 l 617 835 l 607 785 z "},"ų":{"ha":867,"x_min":89,"x_max":763,"o":"m 342 -14 q 214 26 264 -14 q 136 132 164 65 q 99 282 108 199 q 92 456 89 365 q 107 631 96 546 l 253 643 q 225 463 232 549 q 225 303 218 376 q 251 176 232 231 q 300 92 269 122 q 372 63 331 63 q 463 109 421 63 q 537 235 504 156 q 590 418 569 315 q 617 633 610 521 l 700 460 q 678 345 696 408 q 632 219 661 282 q 561 103 603 156 q 465 18 519 50 q 342 -14 410 -14 m 640 -8 q 619 165 626 83 q 610 321 613 246 q 610 473 608 396 q 617 633 613 550 l 763 647 q 740 329 742 490 q 754 14 739 168 l 640 -8 m 757 -278 q 649 -261 697 -278 q 572 -214 600 -244 q 544 -144 544 -183 q 588 -54 544 -100 q 708 28 631 -8 l 754 14 q 638 -61 675 -25 q 601 -133 601 -97 q 646 -199 601 -176 q 763 -212 690 -221 l 757 -278 z "},"ů":{"ha":867,"x_min":89,"x_max":763,"o":"m 342 -14 q 214 26 264 -14 q 136 132 164 65 q 99 282 108 199 q 92 456 89 365 q 107 631 96 546 l 253 643 q 225 463 232 549 q 225 303 218 376 q 251 176 232 231 q 300 92 269 122 q 372 63 331 63 q 463 109 421 63 q 537 235 504 156 q 590 418 569 315 q 617 633 610 521 l 700 460 q 678 345 696 408 q 632 219 661 282 q 561 103 603 156 q 465 18 519 50 q 342 -14 410 -14 m 640 -8 q 619 165 626 83 q 610 321 613 246 q 610 473 608 396 q 617 633 613 550 l 763 647 q 740 329 742 490 q 754 14 739 168 l 640 -8 m 444 779 q 369 801 400 779 q 321 858 338 824 q 304 929 304 893 q 338 1026 304 982 q 444 1069 372 1069 q 526 1047 493 1069 q 576 990 558 1025 q 593 917 593 956 q 558 822 593 865 q 444 779 522 779 m 447 832 q 522 858 499 832 q 544 919 544 885 q 519 988 544 957 q 447 1018 494 1018 q 376 990 399 1018 q 353 926 353 961 q 377 863 353 893 q 447 832 401 832 z "},"ũ":{"ha":867,"x_min":89,"x_max":763,"o":"m 342 -14 q 214 26 264 -14 q 136 132 164 65 q 99 282 108 199 q 92 456 89 365 q 107 631 96 546 l 253 643 q 225 463 232 549 q 225 303 218 376 q 251 176 232 231 q 300 92 269 122 q 372 63 331 63 q 463 109 421 63 q 537 235 504 156 q 590 418 569 315 q 617 633 610 521 l 700 460 q 678 345 696 408 q 632 219 661 282 q 561 103 603 156 q 465 18 519 50 q 342 -14 410 -14 m 640 -8 q 619 165 626 83 q 610 321 613 246 q 610 473 608 396 q 617 633 613 550 l 763 647 q 740 329 742 490 q 754 14 739 168 l 640 -8 m 283 771 l 221 776 q 238 877 221 839 q 284 933 256 915 q 346 950 313 950 q 405 931 379 950 q 453 886 431 911 q 499 842 475 861 q 549 822 522 822 q 602 858 586 822 q 615 949 618 894 l 671 944 q 652 841 671 881 q 608 784 633 801 q 560 767 582 767 q 502 786 529 767 q 449 831 475 806 q 399 875 424 856 q 349 894 374 894 q 299 859 315 894 q 283 771 282 824 z "},"v":{"ha":828,"x_min":42,"x_max":786,"o":"m 403 -12 q 306 197 358 96 q 188 402 253 297 q 42 626 122 507 l 168 646 q 246 503 204 579 q 328 347 288 426 q 401 192 368 268 q 453 50 433 117 l 479 0 l 403 -12 m 479 0 l 400 51 q 467 258 428 150 q 551 469 507 367 q 632 654 594 572 l 786 633 q 676 429 733 539 q 567 209 618 319 q 479 0 515 99 z "},"w":{"ha":1256,"x_min":88,"x_max":1164,"o":"m 818 -25 q 703 4 750 -25 q 627 89 656 33 q 588 226 599 144 q 580 413 576 307 q 599 646 583 518 l 735 624 q 697 436 708 524 q 691 278 686 349 q 716 158 696 208 q 773 80 736 107 q 861 53 810 53 q 942 85 908 53 q 998 172 976 117 q 1028 302 1019 228 q 1033 461 1038 376 q 1010 635 1028 546 l 1151 657 q 1164 435 1164 539 q 1147 247 1164 332 q 1090 101 1129 163 q 983 8 1050 40 q 818 -25 917 -25 m 335 -26 q 210 13 258 -26 q 134 122 161 53 q 97 279 107 192 q 91 464 88 367 q 106 657 94 561 l 250 631 q 233 491 240 568 q 224 336 225 414 q 235 194 224 258 q 274 90 247 129 q 346 50 300 50 q 423 81 389 50 q 483 169 457 113 q 531 301 510 225 q 568 464 551 376 q 599 646 585 551 l 631 313 q 614 242 625 285 q 582 153 603 200 q 528 66 561 107 q 447 -1 494 25 q 335 -26 400 -26 z "},"ẃ":{"ha":1256,"x_min":88,"x_max":1164,"o":"m 818 -25 q 703 4 750 -25 q 627 89 656 33 q 588 226 599 144 q 580 413 576 307 q 599 646 583 518 l 735 624 q 697 436 708 524 q 691 278 686 349 q 716 158 696 208 q 773 80 736 107 q 861 53 810 53 q 942 85 908 53 q 998 172 976 117 q 1028 302 1019 228 q 1033 461 1038 376 q 1010 635 1028 546 l 1151 657 q 1164 435 1164 539 q 1147 247 1164 332 q 1090 101 1129 163 q 983 8 1050 40 q 818 -25 917 -25 m 335 -26 q 210 13 258 -26 q 134 122 161 53 q 97 279 107 192 q 91 464 88 367 q 106 657 94 561 l 250 631 q 233 491 240 568 q 224 336 225 414 q 235 194 224 258 q 274 90 247 129 q 346 50 300 50 q 423 81 389 50 q 483 169 457 113 q 531 301 510 225 q 568 464 551 376 q 599 646 585 551 l 631 313 q 614 242 625 285 q 582 153 603 200 q 528 66 561 107 q 447 -1 494 25 q 335 -26 400 -26 m 649 778 l 607 811 l 846 1100 l 904 1043 l 649 778 z "},"ŵ":{"ha":1256,"x_min":88,"x_max":1164,"o":"m 818 -25 q 703 4 750 -25 q 627 89 656 33 q 588 226 599 144 q 580 413 576 307 q 599 646 583 518 l 735 624 q 697 436 708 524 q 691 278 686 349 q 716 158 696 208 q 773 80 736 107 q 861 53 810 53 q 942 85 908 53 q 998 172 976 117 q 1028 302 1019 228 q 1033 461 1038 376 q 1010 635 1028 546 l 1151 657 q 1164 435 1164 539 q 1147 247 1164 332 q 1090 101 1129 163 q 983 8 1050 40 q 818 -25 917 -25 m 335 -26 q 210 13 258 -26 q 134 122 161 53 q 97 279 107 192 q 91 464 88 367 q 106 657 94 561 l 250 631 q 233 491 240 568 q 224 336 225 414 q 235 194 224 258 q 274 90 247 129 q 346 50 300 50 q 423 81 389 50 q 483 169 457 113 q 531 301 510 225 q 568 464 551 376 q 599 646 585 551 l 631 313 q 614 242 625 285 q 582 153 603 200 q 528 66 561 107 q 447 -1 494 25 q 335 -26 400 -26 m 503 758 l 424 800 l 649 1044 l 665 967 l 503 758 m 794 758 l 632 967 l 649 1044 l 874 800 l 794 758 z "},"ẅ":{"ha":1256,"x_min":88,"x_max":1164,"o":"m 818 -25 q 703 4 750 -25 q 627 89 656 33 q 588 226 599 144 q 580 413 576 307 q 599 646 583 518 l 735 624 q 697 436 708 524 q 691 278 686 349 q 716 158 696 208 q 773 80 736 107 q 861 53 810 53 q 942 85 908 53 q 998 172 976 117 q 1028 302 1019 228 q 1033 461 1038 376 q 1010 635 1028 546 l 1151 657 q 1164 435 1164 539 q 1147 247 1164 332 q 1090 101 1129 163 q 983 8 1050 40 q 818 -25 917 -25 m 335 -26 q 210 13 258 -26 q 134 122 161 53 q 97 279 107 192 q 91 464 88 367 q 106 657 94 561 l 250 631 q 233 491 240 568 q 224 336 225 414 q 235 194 224 258 q 274 90 247 129 q 346 50 300 50 q 423 81 389 50 q 483 169 457 113 q 531 301 510 225 q 568 464 551 376 q 599 646 585 551 l 631 313 q 614 242 625 285 q 582 153 603 200 q 528 66 561 107 q 447 -1 494 25 q 335 -26 400 -26 m 479 779 q 476 849 476 811 q 476 917 475 886 l 604 914 q 602 849 604 879 q 601 782 600 818 l 479 779 m 701 779 q 698 849 699 811 q 699 917 697 886 l 826 914 q 824 849 826 879 q 824 782 822 818 l 701 779 z "},"ẁ":{"ha":1256,"x_min":88,"x_max":1164,"o":"m 818 -25 q 703 4 750 -25 q 627 89 656 33 q 588 226 599 144 q 580 413 576 307 q 599 646 583 518 l 735 624 q 697 436 708 524 q 691 278 686 349 q 716 158 696 208 q 773 80 736 107 q 861 53 810 53 q 942 85 908 53 q 998 172 976 117 q 1028 302 1019 228 q 1033 461 1038 376 q 1010 635 1028 546 l 1151 657 q 1164 435 1164 539 q 1147 247 1164 332 q 1090 101 1129 163 q 983 8 1050 40 q 818 -25 917 -25 m 335 -26 q 210 13 258 -26 q 134 122 161 53 q 97 279 107 192 q 91 464 88 367 q 106 657 94 561 l 250 631 q 233 491 240 568 q 224 336 225 414 q 235 194 224 258 q 274 90 247 129 q 346 50 300 50 q 423 81 389 50 q 483 169 457 113 q 531 301 510 225 q 568 464 551 376 q 599 646 585 551 l 631 313 q 614 242 625 285 q 582 153 603 200 q 528 66 561 107 q 447 -1 494 25 q 335 -26 400 -26 m 646 778 l 392 1043 l 450 1100 l 688 811 l 646 778 z "},"x":{"ha":765,"x_min":42,"x_max":724,"o":"m 578 0 q 461 185 526 97 q 324 350 396 274 q 179 486 251 426 q 42 588 107 546 l 106 650 q 248 568 178 617 q 384 459 318 519 q 510 329 450 399 q 624 185 571 260 q 724 33 678 111 l 578 0 m 103 -17 l 43 75 q 212 217 133 143 q 355 365 290 290 q 468 509 419 439 q 549 639 517 579 l 618 604 q 519 438 576 519 q 394 277 463 356 q 252 125 326 199 q 103 -17 178 51 z "},"y":{"ha":858,"x_min":56,"x_max":754,"o":"m 56 -304 l 107 -169 q 277 -264 194 -233 q 428 -283 360 -294 q 544 -210 497 -271 q 606 -32 590 -150 q 618 85 614 33 q 623 189 622 138 q 622 300 624 240 q 619 438 621 360 q 618 625 618 517 l 751 669 q 754 418 754 543 q 747 176 754 293 q 722 -49 740 58 q 644 -255 700 -179 q 501 -358 588 -331 q 301 -369 414 -385 q 56 -304 189 -354 m 339 -14 q 211 26 261 -14 q 133 132 161 65 q 96 282 106 199 q 90 456 86 365 q 104 631 93 546 l 250 643 q 222 463 229 549 q 222 303 215 376 q 248 176 229 231 q 297 92 267 122 q 369 63 328 63 q 460 108 418 63 q 536 231 503 153 q 590 411 569 310 q 618 625 611 513 l 683 460 q 663 345 679 408 q 620 219 647 282 q 553 103 593 156 q 460 18 514 50 q 339 -14 407 -14 z "},"ý":{"ha":858,"x_min":56,"x_max":754,"o":"m 56 -304 l 107 -169 q 277 -264 194 -233 q 428 -283 360 -294 q 544 -210 497 -271 q 606 -32 590 -150 q 618 85 614 33 q 623 189 622 138 q 622 300 624 240 q 619 438 621 360 q 618 625 618 517 l 751 669 q 754 418 754 543 q 747 176 754 293 q 722 -49 740 58 q 644 -255 700 -179 q 501 -358 588 -331 q 301 -369 414 -385 q 56 -304 189 -354 m 339 -14 q 211 26 261 -14 q 133 132 161 65 q 96 282 106 199 q 90 456 86 365 q 104 631 93 546 l 250 643 q 222 463 229 549 q 222 303 215 376 q 248 176 229 231 q 297 92 267 122 q 369 63 328 63 q 460 108 418 63 q 536 231 503 153 q 590 411 569 310 q 618 625 611 513 l 683 460 q 663 345 679 408 q 620 219 647 282 q 553 103 593 156 q 460 18 514 50 q 339 -14 407 -14 m 476 778 l 435 811 l 674 1100 l 732 1043 l 476 778 z "},"ŷ":{"ha":858,"x_min":56,"x_max":754,"o":"m 56 -304 l 107 -169 q 277 -264 194 -233 q 428 -283 360 -294 q 544 -210 497 -271 q 606 -32 590 -150 q 618 85 614 33 q 623 189 622 138 q 622 300 624 240 q 619 438 621 360 q 618 625 618 517 l 751 669 q 754 418 754 543 q 747 176 754 293 q 722 -49 740 58 q 644 -255 700 -179 q 501 -358 588 -331 q 301 -369 414 -385 q 56 -304 189 -354 m 339 -14 q 211 26 261 -14 q 133 132 161 65 q 96 282 106 199 q 90 456 86 365 q 104 631 93 546 l 250 643 q 222 463 229 549 q 222 303 215 376 q 248 176 229 231 q 297 92 267 122 q 369 63 328 63 q 460 108 418 63 q 536 231 503 153 q 590 411 569 310 q 618 625 611 513 l 683 460 q 663 345 679 408 q 620 219 647 282 q 553 103 593 156 q 460 18 514 50 q 339 -14 407 -14 m 331 758 l 251 800 l 476 1044 l 493 967 l 331 758 m 622 758 l 460 967 l 476 1044 l 701 800 l 622 758 z "},"ÿ":{"ha":858,"x_min":56,"x_max":754,"o":"m 56 -304 l 107 -169 q 277 -264 194 -233 q 428 -283 360 -294 q 544 -210 497 -271 q 606 -32 590 -150 q 618 85 614 33 q 623 189 622 138 q 622 300 624 240 q 619 438 621 360 q 618 625 618 517 l 751 669 q 754 418 754 543 q 747 176 754 293 q 722 -49 740 58 q 644 -255 700 -179 q 501 -358 588 -331 q 301 -369 414 -385 q 56 -304 189 -354 m 339 -14 q 211 26 261 -14 q 133 132 161 65 q 96 282 106 199 q 90 456 86 365 q 104 631 93 546 l 250 643 q 222 463 229 549 q 222 303 215 376 q 248 176 229 231 q 297 92 267 122 q 369 63 328 63 q 460 108 418 63 q 536 231 503 153 q 590 411 569 310 q 618 625 611 513 l 683 460 q 663 345 679 408 q 620 219 647 282 q 553 103 593 156 q 460 18 514 50 q 339 -14 407 -14 m 307 779 q 303 849 304 811 q 304 917 303 886 l 432 914 q 430 849 432 879 q 429 782 428 818 l 307 779 m 529 779 q 526 849 526 811 q 526 917 525 886 l 654 914 q 652 849 654 879 q 651 782 650 818 l 529 779 z "},"ỳ":{"ha":858,"x_min":56,"x_max":754,"o":"m 56 -304 l 107 -169 q 277 -264 194 -233 q 428 -283 360 -294 q 544 -210 497 -271 q 606 -32 590 -150 q 618 85 614 33 q 623 189 622 138 q 622 300 624 240 q 619 438 621 360 q 618 625 618 517 l 751 669 q 754 418 754 543 q 747 176 754 293 q 722 -49 740 58 q 644 -255 700 -179 q 501 -358 588 -331 q 301 -369 414 -385 q 56 -304 189 -354 m 339 -14 q 211 26 261 -14 q 133 132 161 65 q 96 282 106 199 q 90 456 86 365 q 104 631 93 546 l 250 643 q 222 463 229 549 q 222 303 215 376 q 248 176 229 231 q 297 92 267 122 q 369 63 328 63 q 460 108 418 63 q 536 231 503 153 q 590 411 569 310 q 618 625 611 513 l 683 460 q 663 345 679 408 q 620 219 647 282 q 553 103 593 156 q 460 18 514 50 q 339 -14 407 -14 m 474 778 l 219 1043 l 278 1100 l 515 811 l 474 778 z "},"ỹ":{"ha":858,"x_min":56,"x_max":754,"o":"m 56 -304 l 107 -169 q 277 -264 194 -233 q 428 -283 360 -294 q 544 -210 497 -271 q 606 -32 590 -150 q 618 85 614 33 q 623 189 622 138 q 622 300 624 240 q 619 438 621 360 q 618 625 618 517 l 751 669 q 754 418 754 543 q 747 176 754 293 q 722 -49 740 58 q 644 -255 700 -179 q 501 -358 588 -331 q 301 -369 414 -385 q 56 -304 189 -354 m 339 -14 q 211 26 261 -14 q 133 132 161 65 q 96 282 106 199 q 90 456 86 365 q 104 631 93 546 l 250 643 q 222 463 229 549 q 222 303 215 376 q 248 176 229 231 q 297 92 267 122 q 369 63 328 63 q 460 108 418 63 q 536 231 503 153 q 590 411 569 310 q 618 625 611 513 l 683 460 q 663 345 679 408 q 620 219 647 282 q 553 103 593 156 q 460 18 514 50 q 339 -14 407 -14 m 314 771 l 251 776 q 269 877 251 839 q 315 933 286 915 q 376 950 343 950 q 435 931 410 950 q 483 886 461 911 q 529 842 506 861 q 579 822 553 822 q 633 858 617 822 q 646 949 649 894 l 701 944 q 683 841 701 881 q 638 784 664 801 q 590 767 613 767 q 533 786 560 767 q 480 831 506 806 q 429 875 454 856 q 379 894 404 894 q 329 859 346 894 q 314 771 313 824 z "},"z":{"ha":775,"x_min":76,"x_max":699,"o":"m 179 54 l 76 88 q 342 314 221 188 q 550 583 464 440 l 699 556 q 564 371 640 461 q 392 201 488 281 q 179 54 296 121 m 640 -12 q 428 8 526 4 q 247 9 331 13 q 92 -3 164 6 l 76 88 l 154 74 q 319 94 231 85 q 500 105 408 103 q 674 97 592 107 l 640 -12 m 85 533 l 110 638 q 330 602 224 611 q 526 598 436 593 q 683 614 617 603 l 699 556 q 558 532 628 540 q 415 522 488 524 q 260 522 342 519 q 85 533 179 525 z "},"ź":{"ha":775,"x_min":76,"x_max":699,"o":"m 179 54 l 76 88 q 342 314 221 188 q 550 583 464 440 l 699 556 q 564 371 640 461 q 392 201 488 281 q 179 54 296 121 m 640 -12 q 428 8 526 4 q 247 9 331 13 q 92 -3 164 6 l 76 88 l 154 74 q 319 94 231 85 q 500 105 408 103 q 674 97 592 107 l 640 -12 m 85 533 l 110 638 q 330 602 224 611 q 526 598 436 593 q 683 614 617 603 l 699 556 q 558 532 628 540 q 415 522 488 524 q 260 522 342 519 q 85 533 179 525 m 443 778 l 401 811 l 640 1100 l 699 1043 l 443 778 z "},"ž":{"ha":775,"x_min":76,"x_max":699,"o":"m 179 54 l 76 88 q 342 314 221 188 q 550 583 464 440 l 699 556 q 564 371 640 461 q 392 201 488 281 q 179 54 296 121 m 640 -12 q 428 8 526 4 q 247 9 331 13 q 92 -3 164 6 l 76 88 l 154 74 q 319 94 231 85 q 500 105 408 103 q 674 97 592 107 l 640 -12 m 85 533 l 110 638 q 330 602 224 611 q 526 598 436 593 q 683 614 617 603 l 699 556 q 558 532 628 540 q 415 522 488 524 q 260 522 342 519 q 85 533 179 525 m 297 1040 l 460 832 l 443 754 l 218 999 l 297 1040 m 589 1040 l 668 999 l 443 754 l 426 832 l 589 1040 z "},"ż":{"ha":775,"x_min":76,"x_max":699,"o":"m 179 54 l 76 88 q 342 314 221 188 q 550 583 464 440 l 699 556 q 564 371 640 461 q 392 201 488 281 q 179 54 296 121 m 640 -12 q 428 8 526 4 q 247 9 331 13 q 92 -3 164 6 l 76 88 l 154 74 q 319 94 231 85 q 500 105 408 103 q 674 97 592 107 l 640 -12 m 85 533 l 110 638 q 330 602 224 611 q 526 598 436 593 q 683 614 617 603 l 699 556 q 558 532 628 540 q 415 522 488 524 q 260 522 342 519 q 85 533 179 525 m 378 785 q 374 862 375 821 q 375 938 374 903 l 517 935 q 515 862 517 896 q 514 789 513 828 l 378 785 z "},"ª":{"ha":606,"x_min":47,"x_max":528,"o":"m 217 582 q 133 602 171 582 q 71 660 94 622 q 47 753 47 699 q 82 866 47 811 q 197 969 117 921 q 411 1056 276 1017 l 436 994 q 292 947 347 975 q 209 888 238 919 q 171 827 181 857 q 161 775 161 797 q 183 697 161 731 q 250 663 206 663 q 328 689 290 663 q 391 763 367 715 q 414 878 415 811 l 474 928 q 443 770 468 836 q 381 663 418 704 q 301 601 344 621 q 217 582 258 582 m 435 586 q 422 687 426 629 q 414 806 417 744 q 410 921 411 867 q 410 1011 410 975 q 411 1056 410 1047 l 528 1068 q 510 831 511 943 q 519 604 510 719 l 435 586 z "},"º":{"ha":569,"x_min":47,"x_max":524,"o":"m 282 558 q 151 594 203 558 q 73 685 99 629 q 47 803 47 742 q 73 923 47 865 q 151 1017 99 981 q 279 1053 203 1053 q 415 1017 361 1053 q 497 925 469 982 q 524 807 524 868 q 497 688 524 744 q 415 594 469 631 q 282 558 361 558 m 290 615 q 371 642 340 615 q 415 712 401 669 q 428 800 428 754 q 411 878 428 842 q 363 939 394 915 q 286 963 332 963 q 210 939 242 963 q 163 878 179 915 q 146 799 146 840 q 165 706 146 747 q 216 640 183 665 q 290 615 249 615 z "},"ء":{"ha":667,"x_min":56,"x_max":611,"o":"m 390 58 l 328 50 q 178 81 239 50 q 86 165 117 113 q 56 281 56 218 q 92 407 56 356 q 188 485 128 458 q 317 511 247 511 q 444 486 381 511 q 556 404 507 461 l 461 297 q 378 364 421 344 q 299 383 336 383 q 203 350 243 383 q 163 260 163 317 q 208 163 163 192 q 319 133 254 133 q 438 151 375 133 q 558 196 501 169 l 611 85 l 390 58 m 194 -153 l 99 -44 q 201 27 139 -7 q 340 89 264 61 q 499 132 417 117 l 611 85 q 438 30 511 63 q 308 -48 365 -3 q 194 -153 250 -93 z "},"ا":{"ha":379,"x_min":111,"x_max":272,"o":"m 147 -19 q 153 236 153 113 q 151 483 154 360 q 138 733 147 606 q 111 996 128 860 l 264 1019 q 265 483 272 738 q 231 1 257 228 l 147 -19 z "},"أ":{"ha":379,"x_min":36,"x_max":335,"o":"m 147 -21 q 154 292 154 140 q 144 597 154 443 q 111 918 133 750 l 264 939 q 268 685 268 808 q 264 443 268 561 q 251 214 260 325 q 231 -1 243 103 l 147 -21 m 206 1057 l 181 1065 q 81 1094 114 1065 q 47 1161 47 1122 q 88 1232 47 1207 q 179 1257 128 1257 q 245 1249 211 1257 q 306 1213 279 1240 l 244 1154 q 211 1176 229 1168 q 169 1183 193 1183 q 128 1172 147 1183 q 110 1140 110 1161 q 139 1099 110 1114 q 222 1093 168 1083 q 279 1108 258 1100 q 335 1131 300 1115 l 335 1060 l 206 1057 m 36 956 l 36 1054 q 143 1076 96 1067 q 236 1094 190 1086 q 335 1111 282 1103 l 335 1060 q 236 1029 279 1043 q 147 999 193 1015 q 36 956 101 982 z "},"إ":{"ha":379,"x_min":53,"x_max":351,"o":"m 147 -19 q 153 236 153 113 q 151 483 154 360 q 138 733 147 606 q 111 996 128 860 l 264 1019 q 265 483 272 738 q 231 1 257 228 l 147 -19 m 222 -294 l 197 -300 q 97 -267 131 -300 q 64 -197 64 -235 q 104 -119 64 -144 q 196 -94 144 -94 q 262 -103 228 -94 q 322 -139 296 -111 l 261 -197 q 228 -176 246 -183 q 186 -168 210 -168 q 145 -179 164 -168 q 126 -211 126 -190 q 156 -253 126 -237 q 239 -258 185 -268 q 296 -244 275 -251 q 351 -221 317 -236 l 351 -292 l 222 -294 m 53 -396 l 53 -297 q 160 -275 113 -285 q 253 -257 207 -265 q 351 -240 299 -249 l 351 -292 q 253 -322 296 -308 q 164 -353 210 -336 q 53 -396 118 -369 z "},"آ":{"ha":379,"x_min":-69,"x_max":425,"o":"m 147 -21 q 154 292 154 140 q 144 597 154 443 q 111 918 133 750 l 264 939 q 268 685 268 808 q 264 443 268 561 q 251 214 260 325 q 231 -1 243 103 l 147 -21 m -47 983 l -69 1097 q -13 1129 -42 1118 q 42 1140 15 1140 q 110 1122 79 1140 q 172 1085 140 1104 q 243 1067 204 1067 q 325 1087 285 1067 q 403 1133 365 1107 l 425 1022 q 355 996 390 1008 q 276 983 319 983 q 201 994 231 983 q 150 1017 171 1004 q 110 1041 129 1031 q 67 1051 90 1051 q 15 1034 46 1051 q -47 983 -17 1017 z "},"ٱ":{"ha":379,"x_min":-24,"x_max":393,"o":"m 147 -21 q 154 292 154 140 q 144 597 154 443 q 111 918 133 750 l 264 939 q 268 685 268 808 q 264 443 268 561 q 251 214 260 325 q 231 -1 243 103 l 147 -21 m 251 986 q 145 1019 188 986 q 93 1113 103 1053 l 142 1131 q 149 1081 142 1104 q 178 1044 156 1058 q 246 1031 200 1031 q 299 1047 282 1031 q 317 1085 317 1064 q 306 1112 317 1103 q 279 1121 294 1121 q 235 1098 258 1121 q 200 1025 213 1075 l 160 1032 q 217 1147 179 1106 q 303 1189 256 1189 q 368 1167 343 1189 q 393 1101 393 1144 q 352 1017 393 1049 q 251 986 311 986 m -24 976 l -24 1043 q 31 1046 8 1042 q 65 1062 53 1050 q 76 1094 76 1074 q 74 1127 76 1107 q 64 1174 71 1147 l 144 1188 q 142 1157 143 1169 q 142 1131 142 1144 q 126 1060 142 1096 q 74 1000 110 1024 q -24 976 38 976 z "},"ٮ":{"ha":1167,"x_min":56,"x_max":1083,"o":"m 676 -10 q 518 4 601 -10 q 351 53 435 18 q 192 149 268 88 q 56 306 117 210 l 188 389 q 286 231 226 293 q 415 133 346 168 q 554 83 485 97 q 681 69 624 69 q 881 133 810 69 q 951 299 951 197 q 939 400 951 343 q 904 508 926 457 l 1046 556 q 1074 446 1065 500 q 1083 332 1083 392 q 1039 156 1083 233 q 904 34 994 78 q 676 -10 814 -10 z "},"ب":{"ha":1167,"x_min":56,"x_max":1083,"o":"m 676 -10 q 518 4 601 -10 q 351 53 435 18 q 192 149 268 88 q 56 306 117 210 l 188 389 q 286 231 226 293 q 415 133 346 168 q 554 83 485 97 q 681 69 624 69 q 881 133 810 69 q 951 299 951 197 q 939 400 951 343 q 904 508 926 457 l 1046 556 q 1074 446 1065 500 q 1083 332 1083 392 q 1039 156 1083 233 q 904 34 994 78 q 676 -10 814 -10 m 658 -264 q 607 -226 632 -247 q 564 -183 582 -206 l 644 -97 q 689 -141 667 -121 q 739 -181 711 -161 l 658 -264 z "},"پ":{"ha":1167,"x_min":56,"x_max":1083,"o":"m 676 -10 q 518 4 601 -10 q 351 53 435 18 q 192 149 268 88 q 56 306 117 210 l 188 389 q 286 231 226 293 q 415 133 346 168 q 554 83 485 97 q 681 69 624 69 q 881 133 810 69 q 951 299 951 197 q 939 400 951 343 q 904 508 926 457 l 1046 556 q 1074 446 1065 500 q 1083 332 1083 392 q 1039 156 1083 233 q 904 34 994 78 q 676 -10 814 -10 m 665 -397 q 622 -365 643 -382 q 585 -328 600 -347 l 653 -254 q 692 -292 672 -275 q 735 -325 711 -310 l 665 -397 m 583 -265 q 535 -231 558 -250 q 494 -189 511 -211 l 571 -107 q 613 -149 592 -129 q 660 -186 633 -168 l 583 -265 m 729 -265 q 681 -231 704 -250 q 640 -189 657 -211 l 717 -107 q 758 -149 738 -129 q 806 -186 779 -168 l 729 -265 z "},"ت":{"ha":1167,"x_min":56,"x_max":1083,"o":"m 676 -10 q 518 4 601 -10 q 351 53 435 18 q 192 149 268 88 q 56 306 117 210 l 188 389 q 286 231 226 293 q 415 133 346 168 q 554 83 485 97 q 681 69 624 69 q 881 133 810 69 q 951 299 951 197 q 939 400 951 343 q 904 508 926 457 l 1046 556 q 1074 446 1065 500 q 1083 332 1083 392 q 1039 156 1083 233 q 904 34 994 78 q 676 -10 814 -10 m 551 553 q 503 588 526 568 q 463 629 479 607 l 539 711 q 581 669 560 689 q 628 632 601 650 l 551 553 m 697 553 q 649 588 672 568 q 608 629 625 607 l 685 711 q 726 669 706 689 q 774 632 747 650 l 697 553 z "},"ث":{"ha":1167,"x_min":56,"x_max":1083,"o":"m 676 -10 q 518 4 601 -10 q 351 53 435 18 q 192 149 268 88 q 56 306 117 210 l 188 389 q 286 231 226 293 q 415 133 346 168 q 554 83 485 97 q 681 69 624 69 q 881 133 810 69 q 951 299 951 197 q 939 400 951 343 q 904 508 926 457 l 1046 556 q 1074 446 1065 500 q 1083 332 1083 392 q 1039 156 1083 233 q 904 34 994 78 q 676 -10 814 -10 m 585 694 q 542 730 561 711 q 503 771 522 749 l 585 853 q 621 810 604 829 q 663 771 638 790 l 585 694 m 524 546 q 475 581 499 561 q 435 622 451 600 l 511 704 q 553 663 532 682 q 600 625 574 643 l 524 546 m 669 546 q 621 581 644 561 q 581 622 597 600 l 657 704 q 699 663 678 682 q 746 625 719 643 l 669 546 z "},"ٹ":{"ha":1167,"x_min":56,"x_max":1083,"o":"m 676 -10 q 518 4 601 -10 q 351 53 435 18 q 192 149 268 88 q 56 306 117 210 l 188 389 q 286 231 226 293 q 415 133 346 168 q 554 83 485 97 q 681 69 624 69 q 881 133 810 69 q 951 299 951 197 q 939 400 951 343 q 904 508 926 457 l 1046 556 q 1074 446 1065 500 q 1083 332 1083 392 q 1039 156 1083 233 q 904 34 994 78 q 676 -10 814 -10 m 565 511 q 499 517 543 511 q 425 535 454 524 l 436 588 q 481 576 453 582 q 551 568 508 569 q 651 587 625 568 q 678 628 678 606 q 667 665 678 650 q 632 679 656 679 q 572 647 603 679 q 521 549 542 615 l 497 556 q 556 698 511 640 q 660 756 601 756 q 732 728 704 756 q 760 656 760 700 q 710 551 760 592 q 565 511 661 511 m 485 560 q 481 716 492 646 q 453 860 469 786 l 549 872 q 552 763 553 821 q 543 649 551 704 q 515 550 535 593 l 485 560 z "},"ج":{"ha":889,"x_min":83,"x_max":833,"o":"m 513 -585 q 297 -544 394 -585 q 141 -417 199 -504 q 83 -194 83 -331 q 135 22 83 -76 q 276 192 188 121 q 476 303 365 264 q 706 343 588 343 l 822 346 l 806 225 q 551 196 668 225 q 346 111 433 167 q 209 -22 258 56 q 160 -194 160 -99 q 206 -346 160 -286 q 327 -435 251 -406 q 489 -464 403 -464 q 631 -447 558 -464 q 768 -394 704 -429 l 833 -525 q 671 -569 753 -554 q 513 -585 589 -585 m 797 294 q 624 347 706 321 q 463 390 543 372 q 299 412 383 408 q 117 396 214 415 l 86 542 q 267 538 175 553 q 454 493 360 524 q 641 423 549 463 q 822 346 733 383 l 797 294 m 515 -194 q 464 -157 489 -178 q 421 -114 439 -136 l 501 -28 q 546 -72 524 -51 q 596 -111 568 -92 l 515 -194 z "},"چ":{"ha":889,"x_min":83,"x_max":833,"o":"m 494 -285 q 451 -252 472 -269 q 414 -215 429 -235 l 482 -142 q 521 -180 501 -162 q 564 -212 540 -197 l 494 -285 m 413 -153 q 364 -118 388 -137 q 324 -76 340 -99 l 400 6 q 442 -36 421 -17 q 489 -74 463 -56 l 413 -153 m 558 -153 q 510 -118 533 -137 q 469 -76 486 -99 l 546 6 q 588 -36 567 -17 q 635 -74 608 -56 l 558 -153 m 513 -585 q 297 -544 394 -585 q 141 -417 199 -504 q 83 -194 83 -331 q 135 22 83 -76 q 276 192 188 121 q 476 303 365 264 q 706 343 588 343 l 822 346 l 806 225 q 551 196 668 225 q 346 111 433 167 q 209 -22 258 56 q 160 -194 160 -99 q 206 -346 160 -286 q 327 -435 251 -406 q 489 -464 403 -464 q 631 -447 558 -464 q 768 -394 704 -429 l 833 -525 q 671 -569 753 -554 q 513 -585 589 -585 m 797 294 q 624 347 706 321 q 463 390 543 372 q 299 412 383 408 q 117 396 214 415 l 86 542 q 267 538 175 553 q 454 493 360 524 q 641 423 549 463 q 822 346 733 383 l 797 294 z "},"ح":{"ha":889,"x_min":83,"x_max":833,"o":"m 513 -585 q 297 -544 394 -585 q 141 -417 199 -504 q 83 -194 83 -331 q 135 22 83 -76 q 276 192 188 121 q 476 303 365 264 q 706 343 588 343 l 822 346 l 806 225 q 551 196 668 225 q 346 111 433 167 q 209 -22 258 56 q 160 -194 160 -99 q 206 -346 160 -286 q 327 -435 251 -406 q 489 -464 403 -464 q 631 -447 558 -464 q 768 -394 704 -429 l 833 -525 q 671 -569 753 -554 q 513 -585 589 -585 m 797 294 q 624 347 706 321 q 463 390 543 372 q 299 412 383 408 q 117 396 214 415 l 86 542 q 267 538 175 553 q 454 493 360 524 q 641 423 549 463 q 822 346 733 383 l 797 294 z "},"خ":{"ha":889,"x_min":83,"x_max":833,"o":"m 513 -585 q 297 -544 394 -585 q 141 -417 199 -504 q 83 -194 83 -331 q 135 22 83 -76 q 276 192 188 121 q 476 303 365 264 q 706 343 588 343 l 822 346 l 806 225 q 551 196 668 225 q 346 111 433 167 q 209 -22 258 56 q 160 -194 160 -99 q 206 -346 160 -286 q 327 -435 251 -406 q 489 -464 403 -464 q 631 -447 558 -464 q 768 -394 704 -429 l 833 -525 q 671 -569 753 -554 q 513 -585 589 -585 m 797 294 q 624 347 706 321 q 463 390 543 372 q 299 412 383 408 q 117 396 214 415 l 86 542 q 267 538 175 553 q 454 493 360 524 q 641 423 549 463 q 822 346 733 383 l 797 294 m 497 631 q 446 668 471 647 q 403 711 421 689 l 483 797 q 528 753 506 774 q 578 714 550 733 l 497 631 z "},"د":{"ha":528,"x_min":42,"x_max":444,"o":"m 54 0 l 42 97 q 109 93 69 94 q 192 97 149 92 q 272 115 235 101 q 333 156 310 129 q 357 228 357 183 q 344 301 357 256 q 312 397 332 346 q 267 496 292 447 q 219 579 243 544 l 367 611 q 409 487 392 554 q 435 358 426 419 q 444 254 444 297 q 417 135 444 183 q 337 56 389 86 q 213 13 285 26 q 54 0 142 0 z "},"ذ":{"ha":528,"x_min":42,"x_max":444,"o":"m 54 0 l 42 97 q 109 93 69 94 q 192 97 149 92 q 272 115 235 101 q 333 156 310 129 q 357 228 357 183 q 344 301 357 256 q 312 397 332 346 q 267 496 292 447 q 219 579 243 544 l 367 611 q 409 487 392 554 q 435 358 426 419 q 444 254 444 297 q 417 135 444 183 q 337 56 389 86 q 213 13 285 26 q 54 0 142 0 m 278 714 q 226 751 251 731 q 183 794 201 772 l 264 881 q 308 837 286 857 q 358 797 331 817 l 278 714 z "},"ڈ":{"ha":528,"x_min":42,"x_max":444,"o":"m 54 0 l 42 97 q 109 93 69 94 q 192 97 149 92 q 272 115 235 101 q 333 156 310 129 q 357 228 357 183 q 344 301 357 256 q 312 397 332 346 q 267 496 292 447 q 219 579 243 544 l 367 611 q 409 487 392 554 q 435 358 426 419 q 444 254 444 297 q 417 135 444 183 q 337 56 389 86 q 213 13 285 26 q 54 0 142 0 m 240 718 q 174 724 218 718 q 100 742 129 731 l 111 794 q 156 783 128 789 q 226 775 183 776 q 326 794 300 775 q 353 835 353 813 q 342 872 353 857 q 307 886 331 886 q 247 854 278 886 q 196 756 217 822 l 172 763 q 231 905 186 847 q 335 963 276 963 q 407 935 379 963 q 435 863 435 907 q 385 758 435 799 q 240 718 336 718 m 160 767 q 156 923 167 853 q 128 1067 144 993 l 224 1079 q 227 969 228 1028 q 218 856 226 911 q 190 757 210 800 l 160 767 z "},"ڊ":{"ha":528,"x_min":42,"x_max":444,"o":"m 54 0 l 42 97 q 109 93 69 94 q 192 97 149 92 q 272 115 235 101 q 333 156 310 129 q 357 228 357 183 q 344 301 357 256 q 312 397 332 346 q 267 496 292 447 q 219 579 243 544 l 367 611 q 409 487 392 554 q 435 358 426 419 q 444 254 444 297 q 417 135 444 183 q 337 56 389 86 q 213 13 285 26 q 54 0 142 0 m 290 -251 q 239 -214 264 -235 q 196 -171 214 -193 l 276 -85 q 321 -128 299 -108 q 371 -168 343 -149 l 290 -251 z "},"ڎ":{"ha":528,"x_min":42,"x_max":444,"o":"m 54 0 l 42 97 q 109 93 69 94 q 192 97 149 92 q 272 115 235 101 q 333 156 310 129 q 357 228 357 183 q 344 301 357 256 q 312 397 332 346 q 267 496 292 447 q 219 579 243 544 l 367 611 q 409 487 392 554 q 435 358 426 419 q 444 254 444 297 q 417 135 444 183 q 337 56 389 86 q 213 13 285 26 q 54 0 142 0 m 260 864 q 217 899 236 881 q 178 940 197 918 l 260 1022 q 296 979 279 999 q 338 940 313 960 l 260 864 m 199 715 q 150 750 174 731 q 110 792 126 769 l 186 874 q 228 832 207 851 q 275 794 249 813 l 199 715 m 344 715 q 296 750 319 731 q 256 792 272 769 l 332 874 q 374 832 353 851 q 421 794 394 813 l 344 715 z "},"ڐ":{"ha":528,"x_min":42,"x_max":444,"o":"m 54 0 l 42 97 q 109 93 69 94 q 192 97 149 92 q 272 115 235 101 q 333 156 310 129 q 357 228 357 183 q 344 301 357 256 q 312 397 332 346 q 267 496 292 447 q 219 579 243 544 l 367 611 q 409 487 392 554 q 435 358 426 419 q 444 254 444 297 q 417 135 444 183 q 337 56 389 86 q 213 13 285 26 q 54 0 142 0 m 188 856 q 139 890 163 871 q 99 932 115 910 l 175 1014 q 217 972 196 992 q 264 935 238 953 l 188 856 m 333 856 q 285 890 308 871 q 244 932 261 910 l 321 1014 q 363 972 342 992 q 410 935 383 953 l 333 856 m 199 707 q 150 742 174 722 q 110 783 126 761 l 186 865 q 228 824 207 843 q 275 786 249 804 l 199 707 m 344 707 q 296 742 319 722 q 256 783 272 761 l 332 865 q 374 824 353 843 q 421 786 394 804 l 344 707 z "},"ر":{"ha":417,"x_min":-111,"x_max":333,"o":"m -4 -472 l -111 -362 q 92 -149 14 -260 q 206 72 169 -39 q 242 288 242 183 q 230 411 242 351 q 194 525 218 471 l 278 556 q 319 404 306 486 q 333 208 333 322 q 299 -5 333 111 q 191 -241 265 -121 q -4 -472 117 -361 z "},"ز":{"ha":417,"x_min":-111,"x_max":333,"o":"m -4 -472 l -111 -362 q 92 -149 14 -260 q 206 72 169 -39 q 242 288 242 183 q 230 411 242 351 q 194 525 218 471 l 278 556 q 319 404 306 486 q 333 208 333 322 q 299 -5 333 111 q 191 -241 265 -121 q -4 -472 117 -361 m 213 628 q 161 665 186 644 q 118 708 136 686 l 199 794 q 243 751 221 771 q 293 711 265 731 l 213 628 z "},"ڑ":{"ha":417,"x_min":-111,"x_max":411,"o":"m -4 -472 l -111 -362 q 92 -149 14 -260 q 206 72 169 -39 q 242 288 242 183 q 230 411 242 351 q 194 525 218 471 l 278 556 q 319 404 306 486 q 333 208 333 322 q 299 -5 333 111 q 191 -241 265 -121 q -4 -472 117 -361 m 217 607 q 150 613 194 607 q 76 631 106 619 l 88 683 q 132 672 104 678 q 203 664 160 665 q 303 683 276 664 q 329 724 329 701 q 318 760 329 746 q 283 775 307 775 q 224 743 254 775 q 172 644 193 711 l 149 651 q 208 794 163 736 q 311 851 253 851 q 383 824 356 851 q 411 751 411 796 q 362 647 411 688 q 217 607 313 607 m 136 656 q 132 812 143 742 q 104 956 121 882 l 200 968 q 203 858 204 917 q 194 744 203 800 q 167 646 186 689 l 136 656 z "},"ڕ":{"ha":417,"x_min":-111,"x_max":333,"o":"m -4 -472 l -111 -362 q 92 -149 14 -260 q 206 72 169 -39 q 242 288 242 183 q 230 411 242 351 q 194 525 218 471 l 278 556 q 319 404 306 486 q 333 208 333 322 q 299 -5 333 111 q 191 -241 265 -121 q -4 -472 117 -361 m 8 -511 q 65 -618 39 -567 q 114 -722 92 -669 l 86 -747 q 6 -647 42 -690 q -79 -554 -29 -604 l 8 -511 m 199 -511 l 286 -554 q 201 -646 239 -600 q 121 -747 163 -692 l 86 -747 l 93 -722 q 142 -616 115 -669 q 199 -511 168 -562 z "},"ژ":{"ha":417,"x_min":-111,"x_max":369,"o":"m -4 -472 l -111 -362 q 92 -149 14 -260 q 206 72 169 -39 q 242 288 242 183 q 230 411 242 351 q 194 525 218 471 l 278 556 q 319 404 306 486 q 333 208 333 322 q 299 -5 333 111 q 191 -241 265 -121 q -4 -472 117 -361 m 208 781 q 165 816 185 797 q 126 857 146 835 l 208 939 q 244 896 228 915 q 286 857 261 876 l 208 781 m 147 632 q 99 667 122 647 q 58 708 75 686 l 135 790 q 176 749 156 768 q 224 711 197 729 l 147 632 m 293 632 q 244 667 268 647 q 204 708 221 686 l 281 790 q 322 749 301 768 q 369 711 343 729 l 293 632 z "},"س":{"ha":1694,"x_min":83,"x_max":1611,"o":"m 424 -343 q 245 -297 322 -343 q 126 -175 168 -251 q 83 -8 83 -99 q 110 139 83 71 q 184 263 136 207 q 296 364 232 319 l 367 256 q 238 128 286 204 q 189 -36 189 53 q 224 -165 189 -114 q 315 -242 258 -217 q 438 -267 372 -267 q 589 -210 533 -267 q 668 -60 644 -153 q 692 142 692 33 q 683 286 692 219 q 654 425 674 353 l 813 450 q 820 378 818 411 q 824 321 822 344 q 825 290 825 306 q 825 260 825 275 q 806 40 825 147 q 741 -153 786 -67 q 618 -292 696 -240 q 424 -343 540 -343 m 960 -12 q 852 18 899 -12 q 781 107 806 49 q 756 249 756 165 l 825 260 q 853 123 826 176 q 961 69 881 69 q 1059 119 1033 69 q 1085 242 1085 168 q 1081 313 1085 285 q 1072 369 1078 342 q 1058 433 1067 396 l 1215 456 q 1215 406 1215 429 q 1215 344 1215 383 q 1181 133 1215 211 q 1090 21 1147 54 q 960 -12 1032 -12 m 1365 -15 q 1260 15 1306 -15 q 1190 92 1215 46 q 1165 183 1165 138 l 1215 344 q 1228 212 1215 275 q 1273 109 1240 149 q 1365 69 1306 69 q 1456 119 1431 69 q 1481 240 1481 168 q 1465 389 1481 307 q 1425 553 1449 471 l 1578 582 q 1598 472 1590 518 q 1608 385 1606 426 q 1611 293 1611 344 q 1590 138 1611 208 q 1515 26 1568 68 q 1365 -15 1463 -15 z "},"ش":{"ha":1694,"x_min":83,"x_max":1611,"o":"m 424 -343 q 245 -297 322 -343 q 126 -175 168 -251 q 83 -8 83 -99 q 110 139 83 71 q 184 263 136 207 q 296 364 232 319 l 367 256 q 238 128 286 204 q 189 -36 189 53 q 224 -165 189 -114 q 315 -242 258 -217 q 438 -267 372 -267 q 589 -210 533 -267 q 668 -60 644 -153 q 692 142 692 33 q 683 286 692 219 q 654 425 674 353 l 813 450 q 820 378 818 411 q 824 321 822 344 q 825 290 825 306 q 825 260 825 275 q 806 40 825 147 q 741 -153 786 -67 q 618 -292 696 -240 q 424 -343 540 -343 m 960 -12 q 852 18 899 -12 q 781 107 806 49 q 756 249 756 165 l 825 260 q 853 123 826 176 q 961 69 881 69 q 1059 119 1033 69 q 1085 242 1085 168 q 1081 313 1085 285 q 1072 369 1078 342 q 1058 433 1067 396 l 1215 456 q 1215 406 1215 429 q 1215 344 1215 383 q 1181 133 1215 211 q 1090 21 1147 54 q 960 -12 1032 -12 m 1365 -15 q 1260 15 1306 -15 q 1190 92 1215 46 q 1165 183 1165 138 l 1215 344 q 1228 212 1215 275 q 1273 109 1240 149 q 1365 69 1306 69 q 1456 119 1431 69 q 1481 240 1481 168 q 1465 389 1481 307 q 1425 553 1449 471 l 1578 582 q 1598 472 1590 518 q 1608 385 1606 426 q 1611 293 1611 344 q 1590 138 1611 208 q 1515 26 1568 68 q 1365 -15 1463 -15 m 1121 697 q 1078 733 1097 714 q 1039 774 1058 751 l 1121 856 q 1157 813 1140 832 q 1199 774 1174 793 l 1121 697 m 1060 549 q 1011 583 1035 564 q 971 625 988 603 l 1047 707 q 1089 665 1068 685 q 1136 628 1110 646 l 1060 549 m 1206 549 q 1157 583 1181 564 q 1117 625 1133 603 l 1193 707 q 1235 665 1214 685 q 1282 628 1256 646 l 1206 549 z "},"ڜ":{"ha":1694,"x_min":83,"x_max":1611,"o":"m 424 -343 q 245 -297 322 -343 q 126 -175 168 -251 q 83 -8 83 -99 q 110 139 83 71 q 184 263 136 207 q 296 364 232 319 l 367 256 q 238 128 286 204 q 189 -36 189 53 q 224 -165 189 -114 q 315 -242 258 -217 q 438 -267 372 -267 q 589 -210 533 -267 q 668 -60 644 -153 q 692 142 692 33 q 683 286 692 219 q 654 425 674 353 l 813 450 q 820 378 818 411 q 824 321 822 344 q 825 290 825 306 q 825 260 825 275 q 806 40 825 147 q 741 -153 786 -67 q 618 -292 696 -240 q 424 -343 540 -343 m 960 -12 q 852 18 899 -12 q 781 107 806 49 q 756 249 756 165 l 825 260 q 853 123 826 176 q 961 69 881 69 q 1059 119 1033 69 q 1085 242 1085 168 q 1081 313 1085 285 q 1072 369 1078 342 q 1058 433 1067 396 l 1215 456 q 1215 406 1215 429 q 1215 344 1215 383 q 1181 133 1215 211 q 1090 21 1147 54 q 960 -12 1032 -12 m 1365 -15 q 1260 15 1306 -15 q 1190 92 1215 46 q 1165 183 1165 138 l 1215 344 q 1228 212 1215 275 q 1273 109 1240 149 q 1365 69 1306 69 q 1456 119 1431 69 q 1481 240 1481 168 q 1465 389 1481 307 q 1425 553 1449 471 l 1578 582 q 1598 472 1590 518 q 1608 385 1606 426 q 1611 293 1611 344 q 1590 138 1611 208 q 1515 26 1568 68 q 1365 -15 1463 -15 m 1121 697 q 1078 733 1097 714 q 1039 774 1058 751 l 1121 856 q 1157 813 1140 832 q 1199 774 1174 793 l 1121 697 m 1060 549 q 1011 583 1035 564 q 971 625 988 603 l 1047 707 q 1089 665 1068 685 q 1136 628 1110 646 l 1060 549 m 1206 549 q 1157 583 1181 564 q 1117 625 1133 603 l 1193 707 q 1235 665 1214 685 q 1282 628 1256 646 l 1206 549 m 1176 -411 q 1133 -378 1154 -396 q 1096 -342 1111 -361 l 1164 -268 q 1203 -306 1183 -289 q 1246 -339 1222 -324 l 1176 -411 m 1094 -279 q 1046 -244 1069 -264 q 1006 -203 1022 -225 l 1082 -121 q 1124 -162 1103 -143 q 1171 -200 1144 -182 l 1094 -279 m 1240 -279 q 1192 -244 1215 -264 q 1151 -203 1168 -225 l 1228 -121 q 1269 -162 1249 -143 q 1317 -200 1290 -182 l 1240 -279 z "},"ص":{"ha":1597,"x_min":83,"x_max":1514,"o":"m 424 -343 q 245 -297 322 -343 q 126 -175 168 -251 q 83 -8 83 -99 q 110 139 83 71 q 184 263 136 207 q 296 364 232 319 l 367 256 q 238 128 286 204 q 189 -36 189 53 q 224 -165 189 -114 q 315 -242 258 -217 q 438 -267 372 -267 q 581 -219 526 -267 q 660 -92 635 -171 q 690 83 686 -12 q 683 274 694 178 q 649 451 671 371 l 801 474 q 820 308 815 397 q 817 126 825 218 q 783 -49 808 35 q 713 -200 758 -133 q 596 -305 667 -267 q 424 -343 525 -343 m 1119 -14 q 952 22 1022 -14 q 835 119 882 57 q 760 264 788 182 q 718 440 732 346 l 801 474 q 862 248 825 338 q 959 114 899 158 q 1113 69 1019 69 q 1235 102 1176 69 q 1330 188 1293 135 q 1367 306 1367 242 q 1325 413 1367 374 q 1217 451 1283 451 q 1093 413 1157 451 q 976 300 1029 374 q 890 122 922 226 l 832 147 q 894 330 849 251 q 1001 462 939 408 q 1131 542 1064 515 q 1261 569 1199 569 q 1442 507 1371 569 q 1514 331 1514 444 q 1480 188 1514 251 q 1389 78 1446 124 q 1262 10 1332 33 q 1119 -14 1192 -14 z "},"ض":{"ha":1597,"x_min":83,"x_max":1514,"o":"m 424 -343 q 245 -297 322 -343 q 126 -175 168 -251 q 83 -8 83 -99 q 110 139 83 71 q 184 263 136 207 q 296 364 232 319 l 367 256 q 238 128 286 204 q 189 -36 189 53 q 224 -165 189 -114 q 315 -242 258 -217 q 438 -267 372 -267 q 581 -219 526 -267 q 660 -92 635 -171 q 690 83 686 -12 q 683 274 694 178 q 649 451 671 371 l 801 474 q 820 308 815 397 q 817 126 825 218 q 783 -49 808 35 q 713 -200 758 -133 q 596 -305 667 -267 q 424 -343 525 -343 m 1119 -14 q 952 22 1022 -14 q 835 119 882 57 q 760 264 788 182 q 718 440 732 346 l 801 474 q 862 248 825 338 q 959 114 899 158 q 1113 69 1019 69 q 1235 102 1176 69 q 1330 188 1293 135 q 1367 306 1367 242 q 1325 413 1367 374 q 1217 451 1283 451 q 1093 413 1157 451 q 976 300 1029 374 q 890 122 922 226 l 832 147 q 894 330 849 251 q 1001 462 939 408 q 1131 542 1064 515 q 1261 569 1199 569 q 1442 507 1371 569 q 1514 331 1514 444 q 1480 188 1514 251 q 1389 78 1446 124 q 1262 10 1332 33 q 1119 -14 1192 -14 m 1235 672 q 1183 710 1208 689 q 1140 753 1158 731 l 1221 839 q 1265 795 1243 815 q 1315 756 1288 775 l 1235 672 z "},"ط":{"ha":944,"x_min":56,"x_max":861,"o":"m 360 -14 q 244 -5 304 -14 q 133 17 183 4 q 56 42 83 31 l 78 122 q 185 92 125 107 q 353 76 246 76 q 551 107 471 76 q 672 190 631 138 q 714 306 714 242 q 672 413 714 374 q 564 451 631 451 q 445 410 504 451 q 335 285 386 369 q 250 72 285 201 l 192 97 q 256 309 213 219 q 358 456 300 399 q 481 542 417 514 q 608 569 546 569 q 739 541 682 569 q 828 460 796 513 q 861 331 861 407 q 798 147 861 225 q 622 28 735 69 q 360 -14 510 -14 m 161 56 q 165 535 172 299 q 125 1022 158 771 l 278 1043 q 282 784 282 913 q 278 533 282 656 q 265 294 274 410 q 244 75 257 179 l 161 56 z "},"ڟ":{"ha":944,"x_min":56,"x_max":861,"o":"m 360 -14 q 244 -5 304 -14 q 133 17 183 4 q 56 42 83 31 l 78 122 q 185 92 125 107 q 353 76 246 76 q 551 107 471 76 q 672 190 631 138 q 714 306 714 242 q 672 413 714 374 q 564 451 631 451 q 445 410 504 451 q 335 285 386 369 q 250 72 285 201 l 192 97 q 256 309 213 219 q 358 456 300 399 q 481 542 417 514 q 608 569 546 569 q 739 541 682 569 q 828 460 796 513 q 861 331 861 407 q 798 147 861 225 q 622 28 735 69 q 360 -14 510 -14 m 161 56 q 165 535 172 299 q 125 1022 158 771 l 278 1043 q 282 784 282 913 q 278 533 282 656 q 265 294 274 410 q 244 75 257 179 l 161 56 m 585 789 q 546 821 564 804 q 511 857 528 838 l 585 931 q 618 892 603 910 q 656 857 633 875 l 585 789 m 531 654 q 487 687 508 669 q 450 724 465 704 l 519 797 q 556 759 538 776 q 599 726 575 742 l 531 654 m 661 654 q 618 687 639 669 q 582 724 597 704 l 650 797 q 688 759 669 776 q 731 726 707 742 l 661 654 z "},"ظ":{"ha":944,"x_min":56,"x_max":861,"o":"m 360 -14 q 244 -5 304 -14 q 133 17 183 4 q 56 42 83 31 l 78 122 q 185 92 125 107 q 353 76 246 76 q 551 107 471 76 q 672 190 631 138 q 714 306 714 242 q 672 413 714 374 q 564 451 631 451 q 445 410 504 451 q 335 285 386 369 q 250 72 285 201 l 192 97 q 256 309 213 219 q 358 456 300 399 q 481 542 417 514 q 608 569 546 569 q 739 541 682 569 q 828 460 796 513 q 861 331 861 407 q 798 147 861 225 q 622 28 735 69 q 360 -14 510 -14 m 161 56 q 165 535 172 299 q 125 1022 158 771 l 278 1043 q 282 784 282 913 q 278 533 282 656 q 265 294 274 410 q 244 75 257 179 l 161 56 m 589 672 q 538 710 563 689 q 494 753 513 731 l 575 839 q 619 795 597 815 q 669 756 642 775 l 589 672 z "},"ع":{"ha":804,"x_min":56,"x_max":776,"o":"m 456 -586 q 250 -547 340 -586 q 108 -432 160 -507 q 56 -251 56 -357 q 90 -84 56 -161 q 192 53 125 -7 q 356 151 260 113 l 617 165 l 678 78 q 394 34 517 78 q 201 -87 271 -10 q 132 -264 132 -164 q 159 -365 132 -326 q 230 -426 186 -404 q 324 -456 274 -447 q 422 -464 375 -464 q 552 -451 475 -464 q 715 -400 629 -437 l 776 -529 q 644 -562 701 -550 q 542 -581 588 -575 q 456 -586 497 -586 m 678 78 l 383 96 q 229 135 290 96 q 138 235 168 175 q 108 358 108 296 q 146 489 108 436 q 245 569 183 542 q 378 597 307 597 q 513 574 446 597 q 638 489 581 550 l 554 390 q 476 444 529 417 q 360 472 422 472 q 235 428 282 472 q 189 325 189 383 q 213 251 189 285 q 276 197 236 217 q 364 176 315 176 q 481 187 431 176 q 570 208 532 197 q 638 218 608 218 l 678 78 z "},"ڠ":{"ha":804,"x_min":56,"x_max":776,"o":"m 456 -586 q 250 -547 340 -586 q 108 -432 160 -507 q 56 -251 56 -357 q 90 -84 56 -161 q 192 53 125 -7 q 356 151 260 113 l 617 165 l 678 78 q 394 34 517 78 q 201 -87 271 -10 q 132 -264 132 -164 q 159 -365 132 -326 q 230 -426 186 -404 q 324 -456 274 -447 q 422 -464 375 -464 q 552 -451 475 -464 q 715 -400 629 -437 l 776 -529 q 644 -562 701 -550 q 542 -581 588 -575 q 456 -586 497 -586 m 678 78 l 383 96 q 229 135 290 96 q 138 235 168 175 q 108 358 108 296 q 146 489 108 436 q 245 569 183 542 q 378 597 307 597 q 513 574 446 597 q 638 489 581 550 l 554 390 q 476 444 529 417 q 360 472 422 472 q 235 428 282 472 q 189 325 189 383 q 213 251 189 285 q 276 197 236 217 q 364 176 315 176 q 481 187 431 176 q 570 208 532 197 q 638 218 608 218 l 678 78 m 394 836 q 351 872 371 853 q 313 913 332 890 l 394 994 q 431 951 414 971 q 472 913 447 932 l 394 836 m 333 688 q 285 722 308 703 q 244 764 261 742 l 321 846 q 363 804 342 824 q 410 767 383 785 l 333 688 m 479 688 q 431 722 454 703 q 390 764 407 742 l 467 846 q 508 804 488 824 q 556 767 529 785 l 479 688 z "},"غ":{"ha":804,"x_min":56,"x_max":776,"o":"m 456 -586 q 250 -547 340 -586 q 108 -432 160 -507 q 56 -251 56 -357 q 90 -84 56 -161 q 192 53 125 -7 q 356 151 260 113 l 617 165 l 678 78 q 394 34 517 78 q 201 -87 271 -10 q 132 -264 132 -164 q 159 -365 132 -326 q 230 -426 186 -404 q 324 -456 274 -447 q 422 -464 375 -464 q 552 -451 475 -464 q 715 -400 629 -437 l 776 -529 q 644 -562 701 -550 q 542 -581 588 -575 q 456 -586 497 -586 m 678 78 l 383 96 q 229 135 290 96 q 138 235 168 175 q 108 358 108 296 q 146 489 108 436 q 245 569 183 542 q 378 597 307 597 q 513 574 446 597 q 638 489 581 550 l 554 390 q 476 444 529 417 q 360 472 422 472 q 235 428 282 472 q 189 325 189 383 q 213 251 189 285 q 276 197 236 217 q 364 176 315 176 q 481 187 431 176 q 570 208 532 197 q 638 218 608 218 l 678 78 m 399 700 q 347 738 372 717 q 304 781 322 758 l 385 867 q 429 823 407 843 q 479 783 451 803 l 399 700 z "},"ف":{"ha":1306,"x_min":42,"x_max":1222,"o":"m 675 -10 q 440 16 556 -10 q 224 110 325 42 q 42 306 122 179 l 178 389 q 272 231 215 293 q 395 133 328 168 q 535 83 463 97 q 679 69 608 69 q 821 92 750 69 q 949 152 892 114 q 1042 239 1007 190 q 1076 340 1076 288 q 1029 436 1076 403 q 908 469 982 469 q 783 431 831 469 q 735 335 735 392 q 790 206 735 263 q 942 113 846 149 l 882 56 q 756 124 811 85 q 669 217 701 164 q 638 335 638 269 q 669 452 638 394 q 768 548 700 510 q 946 586 836 586 q 1082 558 1019 586 q 1183 474 1144 529 q 1222 340 1222 419 q 1188 222 1222 276 q 1095 124 1153 167 q 965 52 1038 82 q 818 6 893 22 q 675 -10 743 -10 m 931 700 q 879 738 904 717 q 836 781 854 758 l 917 867 q 961 823 939 843 q 1011 783 983 803 l 931 700 z "}}}
